%TF.GenerationSoftware,KiCad,Pcbnew,7.0.9*%
%TF.CreationDate,2024-10-07T21:11:49-04:00*%
%TF.ProjectId,T12 soldering station,54313220-736f-46c6-9465-72696e672073,rev?*%
%TF.SameCoordinates,Original*%
%TF.FileFunction,Drillmap*%
%TF.FilePolarity,Positive*%
%FSLAX45Y45*%
G04 Gerber Fmt 4.5, Leading zero omitted, Abs format (unit mm)*
G04 Created by KiCad (PCBNEW 7.0.9) date 2024-10-07 21:11:49*
%MOMM*%
%LPD*%
G01*
G04 APERTURE LIST*
%ADD10C,0.100000*%
%ADD11C,0.200000*%
%ADD12C,0.110000*%
%ADD13C,0.119989*%
%ADD14C,0.159999*%
%ADD15C,0.239999*%
%ADD16C,0.270000*%
G04 APERTURE END LIST*
D10*
X9816298Y-9924388D02*
G75*
G03*
X9717108Y-10023580I2J-99192D01*
G01*
X17866379Y-10031178D02*
X17867652Y-15475402D01*
X17767480Y-9924390D02*
X9816480Y-9924390D01*
X17768462Y-15574592D02*
G75*
G03*
X17867652Y-15475402I-2J99192D01*
G01*
X9717108Y-10023580D02*
X9717108Y-15475402D01*
X17768462Y-15574592D02*
X9816298Y-15574592D01*
X9717108Y-15475402D02*
G75*
G03*
X9816298Y-15574592I99192J2D01*
G01*
X17866379Y-10031178D02*
G75*
G03*
X17767480Y-9924390I-98899J7598D01*
G01*
D11*
D10*
X12218456Y-10233182D02*
X12248936Y-10263662D01*
X12248936Y-10233182D02*
X12218456Y-10263662D01*
X12283440Y-10281920D02*
X12313920Y-10312400D01*
X12313920Y-10281920D02*
X12283440Y-10312400D01*
X12457642Y-12131427D02*
X12488122Y-12161907D01*
X12488122Y-12131427D02*
X12457642Y-12161907D01*
X12488640Y-11770360D02*
X12519120Y-11800840D01*
X12519120Y-11770360D02*
X12488640Y-11800840D01*
X12517887Y-12185915D02*
X12548367Y-12216395D01*
X12548367Y-12185915D02*
X12517887Y-12216395D01*
X12730480Y-11785600D02*
X12760960Y-11816080D01*
X12760960Y-11785600D02*
X12730480Y-11816080D01*
X12810352Y-11770809D02*
X12840832Y-11801289D01*
X12840832Y-11770809D02*
X12810352Y-11801289D01*
X13294360Y-10381030D02*
X13324840Y-10411510D01*
X13324840Y-10381030D02*
X13294360Y-10411510D01*
X13294360Y-10462260D02*
X13324840Y-10492740D01*
X13324840Y-10462260D02*
X13294360Y-10492740D01*
X13333767Y-10655054D02*
X13364247Y-10685534D01*
X13364247Y-10655054D02*
X13333767Y-10685534D01*
X13390880Y-10721340D02*
X13421360Y-10751820D01*
X13421360Y-10721340D02*
X13390880Y-10751820D01*
X13693190Y-10741660D02*
X13723670Y-10772140D01*
X13723670Y-10741660D02*
X13693190Y-10772140D01*
X13774420Y-10741660D02*
X13804900Y-10772140D01*
X13804900Y-10741660D02*
X13774420Y-10772140D01*
X13959840Y-11145520D02*
X13990320Y-11176000D01*
X13990320Y-11145520D02*
X13959840Y-11176000D01*
X14061440Y-11206430D02*
X14091920Y-11236910D01*
X14091920Y-11206430D02*
X14061440Y-11236910D01*
X14104047Y-14616582D02*
X14134527Y-14647062D01*
X14134527Y-14616582D02*
X14104047Y-14647062D01*
X14133860Y-14914880D02*
X14164340Y-14945360D01*
X14164340Y-14914880D02*
X14133860Y-14945360D01*
X14173200Y-11465510D02*
X14203680Y-11495990D01*
X14203680Y-11465510D02*
X14173200Y-11495990D01*
X14224690Y-11064240D02*
X14255170Y-11094720D01*
X14255170Y-11064240D02*
X14224690Y-11094720D01*
X14288666Y-11014186D02*
X14319146Y-11044666D01*
X14319146Y-11014186D02*
X14288666Y-11044666D01*
X14594840Y-11054080D02*
X14625320Y-11084560D01*
X14625320Y-11054080D02*
X14594840Y-11084560D01*
X14848840Y-12415520D02*
X14879320Y-12446000D01*
X14879320Y-12415520D02*
X14848840Y-12446000D01*
X14914880Y-13187680D02*
X14945360Y-13218160D01*
X14945360Y-13187680D02*
X14914880Y-13218160D01*
X14930018Y-12412621D02*
X14960498Y-12443101D01*
X14960498Y-12412621D02*
X14930018Y-12443101D01*
X14965624Y-13251110D02*
X14996104Y-13281590D01*
X14996104Y-13251110D02*
X14965624Y-13281590D01*
X15062200Y-14775380D02*
X15092680Y-14805860D01*
X15092680Y-14775380D02*
X15062200Y-14805860D01*
X15311602Y-12553308D02*
X15342082Y-12583788D01*
X15342082Y-12553308D02*
X15311602Y-12583788D01*
X15321280Y-12633960D02*
X15351760Y-12664440D01*
X15351760Y-12633960D02*
X15321280Y-12664440D01*
X15400020Y-13042900D02*
X15430500Y-13073380D01*
X15430500Y-13042900D02*
X15400020Y-13073380D01*
X15402819Y-13124082D02*
X15433299Y-13154562D01*
X15433299Y-13124082D02*
X15402819Y-13154562D01*
X15440660Y-11054080D02*
X15471140Y-11084560D01*
X15471140Y-11054080D02*
X15440660Y-11084560D01*
X15509240Y-10637520D02*
X15539720Y-10668000D01*
X15539720Y-10637520D02*
X15509240Y-10668000D01*
X15579122Y-10596109D02*
X15609602Y-10626589D01*
X15609602Y-10596109D02*
X15579122Y-10626589D01*
X15742882Y-14838938D02*
X15773362Y-14869418D01*
X15773362Y-14838938D02*
X15742882Y-14869418D01*
X15839440Y-14855970D02*
X15869920Y-14886450D01*
X15869920Y-14855970D02*
X15839440Y-14886450D01*
X16234299Y-14865681D02*
X16264779Y-14896161D01*
X16264779Y-14865681D02*
X16234299Y-14896161D01*
X16280602Y-14584983D02*
X16311082Y-14615463D01*
X16311082Y-14584983D02*
X16280602Y-14615463D01*
X16301720Y-14663420D02*
X16332200Y-14693900D01*
X16332200Y-14663420D02*
X16301720Y-14693900D01*
X16316960Y-14869160D02*
X16347440Y-14899640D01*
X16347440Y-14869160D02*
X16316960Y-14899640D01*
X16349470Y-14410970D02*
X16379950Y-14441450D01*
X16379950Y-14410970D02*
X16349470Y-14441450D01*
X16360140Y-13914120D02*
X16390620Y-13944600D01*
X16390620Y-13914120D02*
X16360140Y-13944600D01*
X16360140Y-14320520D02*
X16390620Y-14351000D01*
X16390620Y-14320520D02*
X16360140Y-14351000D01*
X16366141Y-13833112D02*
X16396621Y-13863592D01*
X16396621Y-13833112D02*
X16366141Y-13863592D01*
X16438023Y-14297443D02*
X16468503Y-14327923D01*
X16468503Y-14297443D02*
X16438023Y-14327923D01*
X16472712Y-14663670D02*
X16503192Y-14694150D01*
X16503192Y-14663670D02*
X16472712Y-14694150D01*
X16503301Y-14226736D02*
X16533781Y-14257216D01*
X16533781Y-14226736D02*
X16503301Y-14257216D01*
X16521059Y-14337621D02*
X16551539Y-14368101D01*
X16551539Y-14337621D02*
X16521059Y-14368101D01*
X16525240Y-14419580D02*
X16555720Y-14450060D01*
X16555720Y-14419580D02*
X16525240Y-14450060D01*
X16573500Y-14709140D02*
X16603980Y-14739620D01*
X16603980Y-14709140D02*
X16573500Y-14739620D01*
X16649009Y-13891565D02*
X16679489Y-13922045D01*
X16679489Y-13891565D02*
X16649009Y-13922045D01*
X16670020Y-14117320D02*
X16700500Y-14147800D01*
X16700500Y-14117320D02*
X16670020Y-14147800D01*
X16680180Y-14706600D02*
X16710660Y-14737080D01*
X16710660Y-14706600D02*
X16680180Y-14737080D01*
X16723360Y-13924280D02*
X16753840Y-13954760D01*
X16753840Y-13924280D02*
X16723360Y-13954760D01*
X16751300Y-14124940D02*
X16781780Y-14155420D01*
X16781780Y-14124940D02*
X16751300Y-14155420D01*
X16763720Y-14672412D02*
X16794200Y-14702892D01*
X16794200Y-14672412D02*
X16763720Y-14702892D01*
X16804416Y-13821078D02*
X16834896Y-13851558D01*
X16834896Y-13821078D02*
X16804416Y-13851558D01*
X16855188Y-14394001D02*
X16885668Y-14424481D01*
X16885668Y-14394001D02*
X16855188Y-14424481D01*
X16886346Y-13821500D02*
X16916826Y-13851980D01*
X16916826Y-13821500D02*
X16886346Y-13851980D01*
X16933141Y-13897630D02*
X16963621Y-13928110D01*
X16963621Y-13897630D02*
X16933141Y-13928110D01*
X16936373Y-14396720D02*
X16966853Y-14427200D01*
X16966853Y-14396720D02*
X16936373Y-14427200D01*
X17012920Y-13522960D02*
X17043400Y-13553440D01*
X17043400Y-13522960D02*
X17012920Y-13553440D01*
X17055156Y-13592347D02*
X17085636Y-13622827D01*
X17085636Y-13592347D02*
X17055156Y-13622827D01*
X17205960Y-13916720D02*
X17236440Y-13947200D01*
X17236440Y-13916720D02*
X17205960Y-13947200D01*
X17289780Y-13926820D02*
X17320260Y-13957300D01*
X17320260Y-13926820D02*
X17289780Y-13957300D01*
X14139860Y-11813540D02*
G75*
G03*
X14139860Y-11813540I-20000J0D01*
G01*
X11582400Y-10645140D02*
X11582400Y-10706100D01*
X11551920Y-10675620D02*
X11612880Y-10675620D01*
X11607800Y-10349280D02*
X11607800Y-10410240D01*
X11577320Y-10379760D02*
X11638280Y-10379760D01*
X11617960Y-13843000D02*
X11617960Y-13903960D01*
X11587480Y-13873480D02*
X11648440Y-13873480D01*
X11841480Y-13848080D02*
X11841480Y-13909040D01*
X11811000Y-13878560D02*
X11871960Y-13878560D01*
X11866880Y-11079480D02*
X11866880Y-11140440D01*
X11836400Y-11109960D02*
X11897360Y-11109960D01*
X12034520Y-15209520D02*
X12034520Y-15270480D01*
X12004040Y-15240000D02*
X12065000Y-15240000D01*
X12075160Y-13843000D02*
X12075160Y-13903960D01*
X12044680Y-13873480D02*
X12105640Y-13873480D01*
X12166600Y-11685020D02*
X12166600Y-11745980D01*
X12136120Y-11715500D02*
X12197080Y-11715500D01*
X12230100Y-10868660D02*
X12230100Y-10929620D01*
X12199620Y-10899140D02*
X12260580Y-10899140D01*
X12339320Y-11023600D02*
X12339320Y-11084560D01*
X12308840Y-11054080D02*
X12369800Y-11054080D01*
X12985700Y-10824260D02*
X12985700Y-10885220D01*
X12955220Y-10854740D02*
X13016180Y-10854740D01*
X13078460Y-10383520D02*
X13078460Y-10444480D01*
X13047980Y-10414000D02*
X13108940Y-10414000D01*
X13157200Y-12593320D02*
X13157200Y-12654280D01*
X13126720Y-12623800D02*
X13187680Y-12623800D01*
X13177520Y-14447520D02*
X13177520Y-14508480D01*
X13147040Y-14478000D02*
X13208000Y-14478000D01*
X13192760Y-14279880D02*
X13192760Y-14340840D01*
X13162280Y-14310360D02*
X13223240Y-14310360D01*
X13248640Y-15214600D02*
X13248640Y-15275560D01*
X13218160Y-15245080D02*
X13279120Y-15245080D01*
X13357860Y-14317980D02*
X13357860Y-14378940D01*
X13327380Y-14348460D02*
X13388340Y-14348460D01*
X13360400Y-12390120D02*
X13360400Y-12451080D01*
X13329920Y-12420600D02*
X13390880Y-12420600D01*
X13360400Y-12567920D02*
X13360400Y-12628880D01*
X13329920Y-12598400D02*
X13390880Y-12598400D01*
X13360400Y-12771120D02*
X13360400Y-12832080D01*
X13329920Y-12801600D02*
X13390880Y-12801600D01*
X13517880Y-14277340D02*
X13517880Y-14338300D01*
X13487400Y-14307820D02*
X13548360Y-14307820D01*
X13589000Y-12390120D02*
X13589000Y-12451080D01*
X13558520Y-12420600D02*
X13619480Y-12420600D01*
X13589000Y-12567920D02*
X13589000Y-12628880D01*
X13558520Y-12598400D02*
X13619480Y-12598400D01*
X13589000Y-12771120D02*
X13589000Y-12832080D01*
X13558520Y-12801600D02*
X13619480Y-12801600D01*
X13629640Y-14335810D02*
X13629640Y-14396770D01*
X13599160Y-14366290D02*
X13660120Y-14366290D01*
X13629640Y-14437360D02*
X13629640Y-14498320D01*
X13599160Y-14467840D02*
X13660120Y-14467840D01*
X13766800Y-14542480D02*
X13766800Y-14603440D01*
X13736320Y-14572960D02*
X13797280Y-14572960D01*
X13792200Y-12390120D02*
X13792200Y-12451080D01*
X13761720Y-12420600D02*
X13822680Y-12420600D01*
X13792200Y-12567920D02*
X13792200Y-12628880D01*
X13761720Y-12598400D02*
X13822680Y-12598400D01*
X13792200Y-12771120D02*
X13792200Y-12832080D01*
X13761720Y-12801600D02*
X13822680Y-12801600D01*
X13792200Y-13990320D02*
X13792200Y-14051280D01*
X13761720Y-14020800D02*
X13822680Y-14020800D01*
X13797280Y-10312400D02*
X13797280Y-10373360D01*
X13766800Y-10342880D02*
X13827760Y-10342880D01*
X13802360Y-14147800D02*
X13802360Y-14208760D01*
X13771880Y-14178280D02*
X13832840Y-14178280D01*
X13802360Y-14274800D02*
X13802360Y-14335760D01*
X13771880Y-14305280D02*
X13832840Y-14305280D01*
X13812520Y-14681200D02*
X13812520Y-14742160D01*
X13782040Y-14711680D02*
X13843000Y-14711680D01*
X13876020Y-14542480D02*
X13876020Y-14603440D01*
X13845540Y-14572960D02*
X13906500Y-14572960D01*
X13959840Y-10317480D02*
X13959840Y-10378440D01*
X13929360Y-10347960D02*
X13990320Y-10347960D01*
X13985240Y-13992860D02*
X13985240Y-14053820D01*
X13954760Y-14023340D02*
X14015720Y-14023340D01*
X13985240Y-14145260D02*
X13985240Y-14206220D01*
X13954760Y-14175740D02*
X14015720Y-14175740D01*
X13987780Y-14274800D02*
X13987780Y-14335760D01*
X13957300Y-14305280D02*
X14018260Y-14305280D01*
X14147800Y-11602720D02*
X14147800Y-11663680D01*
X14117320Y-11633200D02*
X14178280Y-11633200D01*
X14190980Y-13987780D02*
X14190980Y-14048740D01*
X14160500Y-14018260D02*
X14221460Y-14018260D01*
X14193520Y-11878340D02*
X14193520Y-11939300D01*
X14163040Y-11908820D02*
X14224000Y-11908820D01*
X14301500Y-15097760D02*
X14301500Y-15158720D01*
X14271020Y-15128240D02*
X14331980Y-15128240D01*
X14579600Y-12720320D02*
X14579600Y-12781280D01*
X14549120Y-12750800D02*
X14610080Y-12750800D01*
X14693900Y-14599920D02*
X14693900Y-14660880D01*
X14663420Y-14630400D02*
X14724380Y-14630400D01*
X14756894Y-13828266D02*
X14756894Y-13889226D01*
X14726414Y-13858746D02*
X14787374Y-13858746D01*
X14935200Y-12783820D02*
X14935200Y-12844780D01*
X14904720Y-12814300D02*
X14965680Y-12814300D01*
X15214600Y-12054840D02*
X15214600Y-12115800D01*
X15184120Y-12085320D02*
X15245080Y-12085320D01*
X15245080Y-14396720D02*
X15245080Y-14457680D01*
X15214600Y-14427200D02*
X15275560Y-14427200D01*
X15255240Y-13050520D02*
X15255240Y-13111480D01*
X15224760Y-13081000D02*
X15285720Y-13081000D01*
X15372080Y-14853920D02*
X15372080Y-14914880D01*
X15341600Y-14884400D02*
X15402560Y-14884400D01*
X15580360Y-14605000D02*
X15580360Y-14665960D01*
X15549880Y-14635480D02*
X15610840Y-14635480D01*
X15697200Y-13624560D02*
X15697200Y-13685520D01*
X15666720Y-13655040D02*
X15727680Y-13655040D01*
X16074390Y-13905230D02*
X16074390Y-13966190D01*
X16043910Y-13935710D02*
X16104870Y-13935710D01*
X16371600Y-14141480D02*
X16371600Y-14202440D01*
X16341120Y-14171960D02*
X16402080Y-14171960D01*
X17233000Y-14025280D02*
X17233000Y-14086240D01*
X17202520Y-14055760D02*
X17263480Y-14055760D01*
X17517480Y-14314840D02*
X17517480Y-14375800D01*
X17487000Y-14345320D02*
X17547960Y-14345320D01*
X17527640Y-14162440D02*
X17527640Y-14223400D01*
X17497160Y-14192920D02*
X17558120Y-14192920D01*
D12*
X12778451Y-11179331D02*
X12778451Y-11101549D01*
X12700669Y-11101549D01*
X12700669Y-11179331D01*
X12778451Y-11179331D01*
X13028451Y-11179331D02*
X13028451Y-11101549D01*
X12950669Y-11101549D01*
X12950669Y-11179331D01*
X13028451Y-11179331D01*
X13278451Y-11179331D02*
X13278451Y-11101549D01*
X13200669Y-11101549D01*
X13200669Y-11179331D01*
X13278451Y-11179331D01*
X13528451Y-11179331D02*
X13528451Y-11101549D01*
X13450669Y-11101549D01*
X13450669Y-11179331D01*
X13528451Y-11179331D01*
D13*
X11049000Y-10888395D02*
X11108995Y-10828400D01*
X11049000Y-10768405D01*
X10989005Y-10828400D01*
X11049000Y-10888395D01*
X11049000Y-11388395D02*
X11108995Y-11328400D01*
X11049000Y-11268405D01*
X10989005Y-11328400D01*
X11049000Y-11388395D01*
X11074400Y-11978435D02*
X11134395Y-11918440D01*
X11074400Y-11858445D01*
X11014405Y-11918440D01*
X11074400Y-11978435D01*
X11074400Y-12478435D02*
X11134395Y-12418440D01*
X11074400Y-12358445D01*
X11014405Y-12418440D01*
X11074400Y-12478435D01*
X11074400Y-13064795D02*
X11134395Y-13004800D01*
X11074400Y-12944805D01*
X11014405Y-13004800D01*
X11074400Y-13064795D01*
X11074400Y-13564795D02*
X11134395Y-13504800D01*
X11074400Y-13444805D01*
X11014405Y-13504800D01*
X11074400Y-13564795D01*
X11074400Y-14156995D02*
X11134395Y-14097000D01*
X11074400Y-14037005D01*
X11014405Y-14097000D01*
X11074400Y-14156995D01*
X11074400Y-14656995D02*
X11134395Y-14597000D01*
X11074400Y-14537005D01*
X11014405Y-14597000D01*
X11074400Y-14656995D01*
D14*
X15802620Y-13227000D02*
X15962620Y-13387000D01*
X15962620Y-13227000D02*
X15802620Y-13387000D01*
X15962620Y-13307000D02*
G75*
G03*
X15962620Y-13307000I-80000J0D01*
G01*
X16056620Y-11477000D02*
X16216620Y-11637000D01*
X16216620Y-11477000D02*
X16056620Y-11637000D01*
X16216620Y-11557000D02*
G75*
G03*
X16216620Y-11557000I-80000J0D01*
G01*
X16310620Y-13227000D02*
X16470620Y-13387000D01*
X16470620Y-13227000D02*
X16310620Y-13387000D01*
X16470620Y-13307000D02*
G75*
G03*
X16470620Y-13307000I-80000J0D01*
G01*
X16564620Y-11477000D02*
X16724620Y-11637000D01*
X16724620Y-11477000D02*
X16564620Y-11637000D01*
X16724620Y-11557000D02*
G75*
G03*
X16724620Y-11557000I-80000J0D01*
G01*
X16818620Y-13227000D02*
X16978620Y-13387000D01*
X16978620Y-13227000D02*
X16818620Y-13387000D01*
X16978620Y-13307000D02*
G75*
G03*
X16978620Y-13307000I-80000J0D01*
G01*
D15*
X15530620Y-12137000D02*
X15770620Y-12377000D01*
X15770620Y-12137000D02*
X15530620Y-12377000D01*
X15650620Y-12137000D02*
X15650620Y-12377000D01*
X15530620Y-12257000D02*
X15770620Y-12257000D01*
D10*
X15770620Y-12261999D02*
X15770620Y-12252001D01*
X15770620Y-12252001D02*
G75*
G03*
X15530620Y-12252001I-120000J0D01*
G01*
X15530620Y-12252001D02*
X15530620Y-12261999D01*
X15530620Y-12261999D02*
G75*
G03*
X15770620Y-12261999I120000J0D01*
G01*
D15*
X17010620Y-12137000D02*
X17250620Y-12377000D01*
X17250620Y-12137000D02*
X17010620Y-12377000D01*
X17130620Y-12137000D02*
X17130620Y-12377000D01*
X17010620Y-12257000D02*
X17250620Y-12257000D01*
D10*
X17250620Y-12261999D02*
X17250620Y-12252001D01*
X17250620Y-12252001D02*
G75*
G03*
X17010620Y-12252001I-120000J0D01*
G01*
X17010620Y-12252001D02*
X17010620Y-12261999D01*
X17010620Y-12261999D02*
G75*
G03*
X17250620Y-12261999I120000J0D01*
G01*
D16*
X10045320Y-10218040D02*
X10315320Y-10488040D01*
X10315320Y-10218040D02*
X10045320Y-10488040D01*
X10275780Y-10448500D02*
X10275780Y-10257580D01*
X10084860Y-10257580D01*
X10084860Y-10448500D01*
X10275780Y-10448500D01*
X10045320Y-15013560D02*
X10315320Y-15283560D01*
X10315320Y-15013560D02*
X10045320Y-15283560D01*
X10275780Y-15244020D02*
X10275780Y-15053100D01*
X10084860Y-15053100D01*
X10084860Y-15244020D01*
X10275780Y-15244020D01*
X17279240Y-10223120D02*
X17549240Y-10493120D01*
X17549240Y-10223120D02*
X17279240Y-10493120D01*
X17509700Y-10453580D02*
X17509700Y-10262660D01*
X17318780Y-10262660D01*
X17318780Y-10453580D01*
X17509700Y-10453580D01*
X17279240Y-15013560D02*
X17549240Y-15283560D01*
X17549240Y-15013560D02*
X17279240Y-15283560D01*
X17509700Y-15244020D02*
X17509700Y-15053100D01*
X17318780Y-15053100D01*
X17318780Y-15244020D01*
X17509700Y-15244020D01*
D11*
X9972885Y-15891076D02*
X9972885Y-15691076D01*
X9972885Y-15691076D02*
X10020504Y-15691076D01*
X10020504Y-15691076D02*
X10049075Y-15700600D01*
X10049075Y-15700600D02*
X10068123Y-15719647D01*
X10068123Y-15719647D02*
X10077647Y-15738695D01*
X10077647Y-15738695D02*
X10087170Y-15776790D01*
X10087170Y-15776790D02*
X10087170Y-15805362D01*
X10087170Y-15805362D02*
X10077647Y-15843457D01*
X10077647Y-15843457D02*
X10068123Y-15862504D01*
X10068123Y-15862504D02*
X10049075Y-15881552D01*
X10049075Y-15881552D02*
X10020504Y-15891076D01*
X10020504Y-15891076D02*
X9972885Y-15891076D01*
X10172885Y-15891076D02*
X10172885Y-15757743D01*
X10172885Y-15795838D02*
X10182409Y-15776790D01*
X10182409Y-15776790D02*
X10191932Y-15767266D01*
X10191932Y-15767266D02*
X10210980Y-15757743D01*
X10210980Y-15757743D02*
X10230028Y-15757743D01*
X10296694Y-15891076D02*
X10296694Y-15757743D01*
X10296694Y-15691076D02*
X10287170Y-15700600D01*
X10287170Y-15700600D02*
X10296694Y-15710124D01*
X10296694Y-15710124D02*
X10306218Y-15700600D01*
X10306218Y-15700600D02*
X10296694Y-15691076D01*
X10296694Y-15691076D02*
X10296694Y-15710124D01*
X10420504Y-15891076D02*
X10401456Y-15881552D01*
X10401456Y-15881552D02*
X10391932Y-15862504D01*
X10391932Y-15862504D02*
X10391932Y-15691076D01*
X10525266Y-15891076D02*
X10506218Y-15881552D01*
X10506218Y-15881552D02*
X10496694Y-15862504D01*
X10496694Y-15862504D02*
X10496694Y-15691076D01*
X10753837Y-15891076D02*
X10753837Y-15691076D01*
X10753837Y-15691076D02*
X10820504Y-15833933D01*
X10820504Y-15833933D02*
X10887170Y-15691076D01*
X10887170Y-15691076D02*
X10887170Y-15891076D01*
X11068123Y-15891076D02*
X11068123Y-15786314D01*
X11068123Y-15786314D02*
X11058599Y-15767266D01*
X11058599Y-15767266D02*
X11039551Y-15757743D01*
X11039551Y-15757743D02*
X11001456Y-15757743D01*
X11001456Y-15757743D02*
X10982409Y-15767266D01*
X11068123Y-15881552D02*
X11049075Y-15891076D01*
X11049075Y-15891076D02*
X11001456Y-15891076D01*
X11001456Y-15891076D02*
X10982409Y-15881552D01*
X10982409Y-15881552D02*
X10972885Y-15862504D01*
X10972885Y-15862504D02*
X10972885Y-15843457D01*
X10972885Y-15843457D02*
X10982409Y-15824409D01*
X10982409Y-15824409D02*
X11001456Y-15814885D01*
X11001456Y-15814885D02*
X11049075Y-15814885D01*
X11049075Y-15814885D02*
X11068123Y-15805362D01*
X11163361Y-15757743D02*
X11163361Y-15957743D01*
X11163361Y-15767266D02*
X11182409Y-15757743D01*
X11182409Y-15757743D02*
X11220504Y-15757743D01*
X11220504Y-15757743D02*
X11239551Y-15767266D01*
X11239551Y-15767266D02*
X11249075Y-15776790D01*
X11249075Y-15776790D02*
X11258599Y-15795838D01*
X11258599Y-15795838D02*
X11258599Y-15852981D01*
X11258599Y-15852981D02*
X11249075Y-15872028D01*
X11249075Y-15872028D02*
X11239551Y-15881552D01*
X11239551Y-15881552D02*
X11220504Y-15891076D01*
X11220504Y-15891076D02*
X11182409Y-15891076D01*
X11182409Y-15891076D02*
X11163361Y-15881552D01*
X11344313Y-15872028D02*
X11353837Y-15881552D01*
X11353837Y-15881552D02*
X11344313Y-15891076D01*
X11344313Y-15891076D02*
X11334789Y-15881552D01*
X11334789Y-15881552D02*
X11344313Y-15872028D01*
X11344313Y-15872028D02*
X11344313Y-15891076D01*
X11344313Y-15767266D02*
X11353837Y-15776790D01*
X11353837Y-15776790D02*
X11344313Y-15786314D01*
X11344313Y-15786314D02*
X11334789Y-15776790D01*
X11334789Y-15776790D02*
X11344313Y-15767266D01*
X11344313Y-15767266D02*
X11344313Y-15786314D01*
D10*
X9681628Y-16204352D02*
X9712108Y-16234832D01*
X9712108Y-16204352D02*
X9681628Y-16234832D01*
D11*
X10010980Y-16111076D02*
X10030028Y-16111076D01*
X10030028Y-16111076D02*
X10049075Y-16120600D01*
X10049075Y-16120600D02*
X10058599Y-16130124D01*
X10058599Y-16130124D02*
X10068123Y-16149171D01*
X10068123Y-16149171D02*
X10077647Y-16187266D01*
X10077647Y-16187266D02*
X10077647Y-16234885D01*
X10077647Y-16234885D02*
X10068123Y-16272981D01*
X10068123Y-16272981D02*
X10058599Y-16292028D01*
X10058599Y-16292028D02*
X10049075Y-16301552D01*
X10049075Y-16301552D02*
X10030028Y-16311076D01*
X10030028Y-16311076D02*
X10010980Y-16311076D01*
X10010980Y-16311076D02*
X9991932Y-16301552D01*
X9991932Y-16301552D02*
X9982409Y-16292028D01*
X9982409Y-16292028D02*
X9972885Y-16272981D01*
X9972885Y-16272981D02*
X9963361Y-16234885D01*
X9963361Y-16234885D02*
X9963361Y-16187266D01*
X9963361Y-16187266D02*
X9972885Y-16149171D01*
X9972885Y-16149171D02*
X9982409Y-16130124D01*
X9982409Y-16130124D02*
X9991932Y-16120600D01*
X9991932Y-16120600D02*
X10010980Y-16111076D01*
X10163361Y-16292028D02*
X10172885Y-16301552D01*
X10172885Y-16301552D02*
X10163361Y-16311076D01*
X10163361Y-16311076D02*
X10153837Y-16301552D01*
X10153837Y-16301552D02*
X10163361Y-16292028D01*
X10163361Y-16292028D02*
X10163361Y-16311076D01*
X10239551Y-16111076D02*
X10363361Y-16111076D01*
X10363361Y-16111076D02*
X10296694Y-16187266D01*
X10296694Y-16187266D02*
X10325266Y-16187266D01*
X10325266Y-16187266D02*
X10344313Y-16196790D01*
X10344313Y-16196790D02*
X10353837Y-16206314D01*
X10353837Y-16206314D02*
X10363361Y-16225362D01*
X10363361Y-16225362D02*
X10363361Y-16272981D01*
X10363361Y-16272981D02*
X10353837Y-16292028D01*
X10353837Y-16292028D02*
X10344313Y-16301552D01*
X10344313Y-16301552D02*
X10325266Y-16311076D01*
X10325266Y-16311076D02*
X10268123Y-16311076D01*
X10268123Y-16311076D02*
X10249075Y-16301552D01*
X10249075Y-16301552D02*
X10239551Y-16292028D01*
X10487170Y-16111076D02*
X10506218Y-16111076D01*
X10506218Y-16111076D02*
X10525266Y-16120600D01*
X10525266Y-16120600D02*
X10534790Y-16130124D01*
X10534790Y-16130124D02*
X10544313Y-16149171D01*
X10544313Y-16149171D02*
X10553837Y-16187266D01*
X10553837Y-16187266D02*
X10553837Y-16234885D01*
X10553837Y-16234885D02*
X10544313Y-16272981D01*
X10544313Y-16272981D02*
X10534790Y-16292028D01*
X10534790Y-16292028D02*
X10525266Y-16301552D01*
X10525266Y-16301552D02*
X10506218Y-16311076D01*
X10506218Y-16311076D02*
X10487170Y-16311076D01*
X10487170Y-16311076D02*
X10468123Y-16301552D01*
X10468123Y-16301552D02*
X10458599Y-16292028D01*
X10458599Y-16292028D02*
X10449075Y-16272981D01*
X10449075Y-16272981D02*
X10439551Y-16234885D01*
X10439551Y-16234885D02*
X10439551Y-16187266D01*
X10439551Y-16187266D02*
X10449075Y-16149171D01*
X10449075Y-16149171D02*
X10458599Y-16130124D01*
X10458599Y-16130124D02*
X10468123Y-16120600D01*
X10468123Y-16120600D02*
X10487170Y-16111076D01*
X10734790Y-16111076D02*
X10639551Y-16111076D01*
X10639551Y-16111076D02*
X10630028Y-16206314D01*
X10630028Y-16206314D02*
X10639551Y-16196790D01*
X10639551Y-16196790D02*
X10658599Y-16187266D01*
X10658599Y-16187266D02*
X10706218Y-16187266D01*
X10706218Y-16187266D02*
X10725266Y-16196790D01*
X10725266Y-16196790D02*
X10734790Y-16206314D01*
X10734790Y-16206314D02*
X10744313Y-16225362D01*
X10744313Y-16225362D02*
X10744313Y-16272981D01*
X10744313Y-16272981D02*
X10734790Y-16292028D01*
X10734790Y-16292028D02*
X10725266Y-16301552D01*
X10725266Y-16301552D02*
X10706218Y-16311076D01*
X10706218Y-16311076D02*
X10658599Y-16311076D01*
X10658599Y-16311076D02*
X10639551Y-16301552D01*
X10639551Y-16301552D02*
X10630028Y-16292028D01*
X10830028Y-16311076D02*
X10830028Y-16177743D01*
X10830028Y-16196790D02*
X10839551Y-16187266D01*
X10839551Y-16187266D02*
X10858599Y-16177743D01*
X10858599Y-16177743D02*
X10887171Y-16177743D01*
X10887171Y-16177743D02*
X10906218Y-16187266D01*
X10906218Y-16187266D02*
X10915742Y-16206314D01*
X10915742Y-16206314D02*
X10915742Y-16311076D01*
X10915742Y-16206314D02*
X10925266Y-16187266D01*
X10925266Y-16187266D02*
X10944313Y-16177743D01*
X10944313Y-16177743D02*
X10972885Y-16177743D01*
X10972885Y-16177743D02*
X10991932Y-16187266D01*
X10991932Y-16187266D02*
X11001456Y-16206314D01*
X11001456Y-16206314D02*
X11001456Y-16311076D01*
X11096694Y-16311076D02*
X11096694Y-16177743D01*
X11096694Y-16196790D02*
X11106218Y-16187266D01*
X11106218Y-16187266D02*
X11125266Y-16177743D01*
X11125266Y-16177743D02*
X11153837Y-16177743D01*
X11153837Y-16177743D02*
X11172885Y-16187266D01*
X11172885Y-16187266D02*
X11182409Y-16206314D01*
X11182409Y-16206314D02*
X11182409Y-16311076D01*
X11182409Y-16206314D02*
X11191932Y-16187266D01*
X11191932Y-16187266D02*
X11210980Y-16177743D01*
X11210980Y-16177743D02*
X11239551Y-16177743D01*
X11239551Y-16177743D02*
X11258599Y-16187266D01*
X11258599Y-16187266D02*
X11268123Y-16206314D01*
X11268123Y-16206314D02*
X11268123Y-16311076D01*
X11658599Y-16101552D02*
X11487171Y-16358695D01*
X11915742Y-16111076D02*
X11934790Y-16111076D01*
X11934790Y-16111076D02*
X11953837Y-16120600D01*
X11953837Y-16120600D02*
X11963361Y-16130124D01*
X11963361Y-16130124D02*
X11972885Y-16149171D01*
X11972885Y-16149171D02*
X11982409Y-16187266D01*
X11982409Y-16187266D02*
X11982409Y-16234885D01*
X11982409Y-16234885D02*
X11972885Y-16272981D01*
X11972885Y-16272981D02*
X11963361Y-16292028D01*
X11963361Y-16292028D02*
X11953837Y-16301552D01*
X11953837Y-16301552D02*
X11934790Y-16311076D01*
X11934790Y-16311076D02*
X11915742Y-16311076D01*
X11915742Y-16311076D02*
X11896694Y-16301552D01*
X11896694Y-16301552D02*
X11887171Y-16292028D01*
X11887171Y-16292028D02*
X11877647Y-16272981D01*
X11877647Y-16272981D02*
X11868123Y-16234885D01*
X11868123Y-16234885D02*
X11868123Y-16187266D01*
X11868123Y-16187266D02*
X11877647Y-16149171D01*
X11877647Y-16149171D02*
X11887171Y-16130124D01*
X11887171Y-16130124D02*
X11896694Y-16120600D01*
X11896694Y-16120600D02*
X11915742Y-16111076D01*
X12068123Y-16292028D02*
X12077647Y-16301552D01*
X12077647Y-16301552D02*
X12068123Y-16311076D01*
X12068123Y-16311076D02*
X12058599Y-16301552D01*
X12058599Y-16301552D02*
X12068123Y-16292028D01*
X12068123Y-16292028D02*
X12068123Y-16311076D01*
X12201456Y-16111076D02*
X12220504Y-16111076D01*
X12220504Y-16111076D02*
X12239552Y-16120600D01*
X12239552Y-16120600D02*
X12249075Y-16130124D01*
X12249075Y-16130124D02*
X12258599Y-16149171D01*
X12258599Y-16149171D02*
X12268123Y-16187266D01*
X12268123Y-16187266D02*
X12268123Y-16234885D01*
X12268123Y-16234885D02*
X12258599Y-16272981D01*
X12258599Y-16272981D02*
X12249075Y-16292028D01*
X12249075Y-16292028D02*
X12239552Y-16301552D01*
X12239552Y-16301552D02*
X12220504Y-16311076D01*
X12220504Y-16311076D02*
X12201456Y-16311076D01*
X12201456Y-16311076D02*
X12182409Y-16301552D01*
X12182409Y-16301552D02*
X12172885Y-16292028D01*
X12172885Y-16292028D02*
X12163361Y-16272981D01*
X12163361Y-16272981D02*
X12153837Y-16234885D01*
X12153837Y-16234885D02*
X12153837Y-16187266D01*
X12153837Y-16187266D02*
X12163361Y-16149171D01*
X12163361Y-16149171D02*
X12172885Y-16130124D01*
X12172885Y-16130124D02*
X12182409Y-16120600D01*
X12182409Y-16120600D02*
X12201456Y-16111076D01*
X12458599Y-16311076D02*
X12344313Y-16311076D01*
X12401456Y-16311076D02*
X12401456Y-16111076D01*
X12401456Y-16111076D02*
X12382409Y-16139647D01*
X12382409Y-16139647D02*
X12363361Y-16158695D01*
X12363361Y-16158695D02*
X12344313Y-16168219D01*
X12534790Y-16130124D02*
X12544313Y-16120600D01*
X12544313Y-16120600D02*
X12563361Y-16111076D01*
X12563361Y-16111076D02*
X12610980Y-16111076D01*
X12610980Y-16111076D02*
X12630028Y-16120600D01*
X12630028Y-16120600D02*
X12639552Y-16130124D01*
X12639552Y-16130124D02*
X12649075Y-16149171D01*
X12649075Y-16149171D02*
X12649075Y-16168219D01*
X12649075Y-16168219D02*
X12639552Y-16196790D01*
X12639552Y-16196790D02*
X12525266Y-16311076D01*
X12525266Y-16311076D02*
X12649075Y-16311076D01*
X12772885Y-16111076D02*
X12791933Y-16111076D01*
X12791933Y-16111076D02*
X12810980Y-16120600D01*
X12810980Y-16120600D02*
X12820504Y-16130124D01*
X12820504Y-16130124D02*
X12830028Y-16149171D01*
X12830028Y-16149171D02*
X12839552Y-16187266D01*
X12839552Y-16187266D02*
X12839552Y-16234885D01*
X12839552Y-16234885D02*
X12830028Y-16272981D01*
X12830028Y-16272981D02*
X12820504Y-16292028D01*
X12820504Y-16292028D02*
X12810980Y-16301552D01*
X12810980Y-16301552D02*
X12791933Y-16311076D01*
X12791933Y-16311076D02*
X12772885Y-16311076D01*
X12772885Y-16311076D02*
X12753837Y-16301552D01*
X12753837Y-16301552D02*
X12744313Y-16292028D01*
X12744313Y-16292028D02*
X12734790Y-16272981D01*
X12734790Y-16272981D02*
X12725266Y-16234885D01*
X12725266Y-16234885D02*
X12725266Y-16187266D01*
X12725266Y-16187266D02*
X12734790Y-16149171D01*
X12734790Y-16149171D02*
X12744313Y-16130124D01*
X12744313Y-16130124D02*
X12753837Y-16120600D01*
X12753837Y-16120600D02*
X12772885Y-16111076D01*
X12915742Y-16111076D02*
X12915742Y-16149171D01*
X12991933Y-16111076D02*
X12991933Y-16149171D01*
X13287171Y-16387266D02*
X13277647Y-16377743D01*
X13277647Y-16377743D02*
X13258599Y-16349171D01*
X13258599Y-16349171D02*
X13249075Y-16330124D01*
X13249075Y-16330124D02*
X13239552Y-16301552D01*
X13239552Y-16301552D02*
X13230028Y-16253933D01*
X13230028Y-16253933D02*
X13230028Y-16215838D01*
X13230028Y-16215838D02*
X13239552Y-16168219D01*
X13239552Y-16168219D02*
X13249075Y-16139647D01*
X13249075Y-16139647D02*
X13258599Y-16120600D01*
X13258599Y-16120600D02*
X13277647Y-16092028D01*
X13277647Y-16092028D02*
X13287171Y-16082504D01*
X13449075Y-16111076D02*
X13410980Y-16111076D01*
X13410980Y-16111076D02*
X13391933Y-16120600D01*
X13391933Y-16120600D02*
X13382409Y-16130124D01*
X13382409Y-16130124D02*
X13363361Y-16158695D01*
X13363361Y-16158695D02*
X13353837Y-16196790D01*
X13353837Y-16196790D02*
X13353837Y-16272981D01*
X13353837Y-16272981D02*
X13363361Y-16292028D01*
X13363361Y-16292028D02*
X13372885Y-16301552D01*
X13372885Y-16301552D02*
X13391933Y-16311076D01*
X13391933Y-16311076D02*
X13430028Y-16311076D01*
X13430028Y-16311076D02*
X13449075Y-16301552D01*
X13449075Y-16301552D02*
X13458599Y-16292028D01*
X13458599Y-16292028D02*
X13468123Y-16272981D01*
X13468123Y-16272981D02*
X13468123Y-16225362D01*
X13468123Y-16225362D02*
X13458599Y-16206314D01*
X13458599Y-16206314D02*
X13449075Y-16196790D01*
X13449075Y-16196790D02*
X13430028Y-16187266D01*
X13430028Y-16187266D02*
X13391933Y-16187266D01*
X13391933Y-16187266D02*
X13372885Y-16196790D01*
X13372885Y-16196790D02*
X13363361Y-16206314D01*
X13363361Y-16206314D02*
X13353837Y-16225362D01*
X13639552Y-16177743D02*
X13639552Y-16311076D01*
X13591933Y-16101552D02*
X13544314Y-16244409D01*
X13544314Y-16244409D02*
X13668123Y-16244409D01*
X13896695Y-16311076D02*
X13896695Y-16111076D01*
X13982409Y-16311076D02*
X13982409Y-16206314D01*
X13982409Y-16206314D02*
X13972885Y-16187266D01*
X13972885Y-16187266D02*
X13953837Y-16177743D01*
X13953837Y-16177743D02*
X13925266Y-16177743D01*
X13925266Y-16177743D02*
X13906218Y-16187266D01*
X13906218Y-16187266D02*
X13896695Y-16196790D01*
X14106218Y-16311076D02*
X14087171Y-16301552D01*
X14087171Y-16301552D02*
X14077647Y-16292028D01*
X14077647Y-16292028D02*
X14068123Y-16272981D01*
X14068123Y-16272981D02*
X14068123Y-16215838D01*
X14068123Y-16215838D02*
X14077647Y-16196790D01*
X14077647Y-16196790D02*
X14087171Y-16187266D01*
X14087171Y-16187266D02*
X14106218Y-16177743D01*
X14106218Y-16177743D02*
X14134790Y-16177743D01*
X14134790Y-16177743D02*
X14153837Y-16187266D01*
X14153837Y-16187266D02*
X14163361Y-16196790D01*
X14163361Y-16196790D02*
X14172885Y-16215838D01*
X14172885Y-16215838D02*
X14172885Y-16272981D01*
X14172885Y-16272981D02*
X14163361Y-16292028D01*
X14163361Y-16292028D02*
X14153837Y-16301552D01*
X14153837Y-16301552D02*
X14134790Y-16311076D01*
X14134790Y-16311076D02*
X14106218Y-16311076D01*
X14287171Y-16311076D02*
X14268123Y-16301552D01*
X14268123Y-16301552D02*
X14258599Y-16282504D01*
X14258599Y-16282504D02*
X14258599Y-16111076D01*
X14439552Y-16301552D02*
X14420504Y-16311076D01*
X14420504Y-16311076D02*
X14382409Y-16311076D01*
X14382409Y-16311076D02*
X14363361Y-16301552D01*
X14363361Y-16301552D02*
X14353837Y-16282504D01*
X14353837Y-16282504D02*
X14353837Y-16206314D01*
X14353837Y-16206314D02*
X14363361Y-16187266D01*
X14363361Y-16187266D02*
X14382409Y-16177743D01*
X14382409Y-16177743D02*
X14420504Y-16177743D01*
X14420504Y-16177743D02*
X14439552Y-16187266D01*
X14439552Y-16187266D02*
X14449076Y-16206314D01*
X14449076Y-16206314D02*
X14449076Y-16225362D01*
X14449076Y-16225362D02*
X14353837Y-16244409D01*
X14525266Y-16301552D02*
X14544314Y-16311076D01*
X14544314Y-16311076D02*
X14582409Y-16311076D01*
X14582409Y-16311076D02*
X14601457Y-16301552D01*
X14601457Y-16301552D02*
X14610980Y-16282504D01*
X14610980Y-16282504D02*
X14610980Y-16272981D01*
X14610980Y-16272981D02*
X14601457Y-16253933D01*
X14601457Y-16253933D02*
X14582409Y-16244409D01*
X14582409Y-16244409D02*
X14553837Y-16244409D01*
X14553837Y-16244409D02*
X14534790Y-16234885D01*
X14534790Y-16234885D02*
X14525266Y-16215838D01*
X14525266Y-16215838D02*
X14525266Y-16206314D01*
X14525266Y-16206314D02*
X14534790Y-16187266D01*
X14534790Y-16187266D02*
X14553837Y-16177743D01*
X14553837Y-16177743D02*
X14582409Y-16177743D01*
X14582409Y-16177743D02*
X14601457Y-16187266D01*
X14677647Y-16387266D02*
X14687171Y-16377743D01*
X14687171Y-16377743D02*
X14706218Y-16349171D01*
X14706218Y-16349171D02*
X14715742Y-16330124D01*
X14715742Y-16330124D02*
X14725266Y-16301552D01*
X14725266Y-16301552D02*
X14734790Y-16253933D01*
X14734790Y-16253933D02*
X14734790Y-16215838D01*
X14734790Y-16215838D02*
X14725266Y-16168219D01*
X14725266Y-16168219D02*
X14715742Y-16139647D01*
X14715742Y-16139647D02*
X14706218Y-16120600D01*
X14706218Y-16120600D02*
X14687171Y-16092028D01*
X14687171Y-16092028D02*
X14677647Y-16082504D01*
D10*
X9712108Y-16483592D02*
G75*
G03*
X9712108Y-16483592I-20000J0D01*
G01*
D11*
X10010980Y-16375076D02*
X10030028Y-16375076D01*
X10030028Y-16375076D02*
X10049075Y-16384600D01*
X10049075Y-16384600D02*
X10058599Y-16394124D01*
X10058599Y-16394124D02*
X10068123Y-16413171D01*
X10068123Y-16413171D02*
X10077647Y-16451266D01*
X10077647Y-16451266D02*
X10077647Y-16498885D01*
X10077647Y-16498885D02*
X10068123Y-16536981D01*
X10068123Y-16536981D02*
X10058599Y-16556028D01*
X10058599Y-16556028D02*
X10049075Y-16565552D01*
X10049075Y-16565552D02*
X10030028Y-16575076D01*
X10030028Y-16575076D02*
X10010980Y-16575076D01*
X10010980Y-16575076D02*
X9991932Y-16565552D01*
X9991932Y-16565552D02*
X9982409Y-16556028D01*
X9982409Y-16556028D02*
X9972885Y-16536981D01*
X9972885Y-16536981D02*
X9963361Y-16498885D01*
X9963361Y-16498885D02*
X9963361Y-16451266D01*
X9963361Y-16451266D02*
X9972885Y-16413171D01*
X9972885Y-16413171D02*
X9982409Y-16394124D01*
X9982409Y-16394124D02*
X9991932Y-16384600D01*
X9991932Y-16384600D02*
X10010980Y-16375076D01*
X10163361Y-16556028D02*
X10172885Y-16565552D01*
X10172885Y-16565552D02*
X10163361Y-16575076D01*
X10163361Y-16575076D02*
X10153837Y-16565552D01*
X10153837Y-16565552D02*
X10163361Y-16556028D01*
X10163361Y-16556028D02*
X10163361Y-16575076D01*
X10344313Y-16441743D02*
X10344313Y-16575076D01*
X10296694Y-16365552D02*
X10249075Y-16508409D01*
X10249075Y-16508409D02*
X10372885Y-16508409D01*
X10487170Y-16375076D02*
X10506218Y-16375076D01*
X10506218Y-16375076D02*
X10525266Y-16384600D01*
X10525266Y-16384600D02*
X10534790Y-16394124D01*
X10534790Y-16394124D02*
X10544313Y-16413171D01*
X10544313Y-16413171D02*
X10553837Y-16451266D01*
X10553837Y-16451266D02*
X10553837Y-16498885D01*
X10553837Y-16498885D02*
X10544313Y-16536981D01*
X10544313Y-16536981D02*
X10534790Y-16556028D01*
X10534790Y-16556028D02*
X10525266Y-16565552D01*
X10525266Y-16565552D02*
X10506218Y-16575076D01*
X10506218Y-16575076D02*
X10487170Y-16575076D01*
X10487170Y-16575076D02*
X10468123Y-16565552D01*
X10468123Y-16565552D02*
X10458599Y-16556028D01*
X10458599Y-16556028D02*
X10449075Y-16536981D01*
X10449075Y-16536981D02*
X10439551Y-16498885D01*
X10439551Y-16498885D02*
X10439551Y-16451266D01*
X10439551Y-16451266D02*
X10449075Y-16413171D01*
X10449075Y-16413171D02*
X10458599Y-16394124D01*
X10458599Y-16394124D02*
X10468123Y-16384600D01*
X10468123Y-16384600D02*
X10487170Y-16375076D01*
X10677647Y-16375076D02*
X10696694Y-16375076D01*
X10696694Y-16375076D02*
X10715742Y-16384600D01*
X10715742Y-16384600D02*
X10725266Y-16394124D01*
X10725266Y-16394124D02*
X10734790Y-16413171D01*
X10734790Y-16413171D02*
X10744313Y-16451266D01*
X10744313Y-16451266D02*
X10744313Y-16498885D01*
X10744313Y-16498885D02*
X10734790Y-16536981D01*
X10734790Y-16536981D02*
X10725266Y-16556028D01*
X10725266Y-16556028D02*
X10715742Y-16565552D01*
X10715742Y-16565552D02*
X10696694Y-16575076D01*
X10696694Y-16575076D02*
X10677647Y-16575076D01*
X10677647Y-16575076D02*
X10658599Y-16565552D01*
X10658599Y-16565552D02*
X10649075Y-16556028D01*
X10649075Y-16556028D02*
X10639551Y-16536981D01*
X10639551Y-16536981D02*
X10630028Y-16498885D01*
X10630028Y-16498885D02*
X10630028Y-16451266D01*
X10630028Y-16451266D02*
X10639551Y-16413171D01*
X10639551Y-16413171D02*
X10649075Y-16394124D01*
X10649075Y-16394124D02*
X10658599Y-16384600D01*
X10658599Y-16384600D02*
X10677647Y-16375076D01*
X10830028Y-16575076D02*
X10830028Y-16441743D01*
X10830028Y-16460790D02*
X10839551Y-16451266D01*
X10839551Y-16451266D02*
X10858599Y-16441743D01*
X10858599Y-16441743D02*
X10887171Y-16441743D01*
X10887171Y-16441743D02*
X10906218Y-16451266D01*
X10906218Y-16451266D02*
X10915742Y-16470314D01*
X10915742Y-16470314D02*
X10915742Y-16575076D01*
X10915742Y-16470314D02*
X10925266Y-16451266D01*
X10925266Y-16451266D02*
X10944313Y-16441743D01*
X10944313Y-16441743D02*
X10972885Y-16441743D01*
X10972885Y-16441743D02*
X10991932Y-16451266D01*
X10991932Y-16451266D02*
X11001456Y-16470314D01*
X11001456Y-16470314D02*
X11001456Y-16575076D01*
X11096694Y-16575076D02*
X11096694Y-16441743D01*
X11096694Y-16460790D02*
X11106218Y-16451266D01*
X11106218Y-16451266D02*
X11125266Y-16441743D01*
X11125266Y-16441743D02*
X11153837Y-16441743D01*
X11153837Y-16441743D02*
X11172885Y-16451266D01*
X11172885Y-16451266D02*
X11182409Y-16470314D01*
X11182409Y-16470314D02*
X11182409Y-16575076D01*
X11182409Y-16470314D02*
X11191932Y-16451266D01*
X11191932Y-16451266D02*
X11210980Y-16441743D01*
X11210980Y-16441743D02*
X11239551Y-16441743D01*
X11239551Y-16441743D02*
X11258599Y-16451266D01*
X11258599Y-16451266D02*
X11268123Y-16470314D01*
X11268123Y-16470314D02*
X11268123Y-16575076D01*
X11658599Y-16365552D02*
X11487171Y-16622695D01*
X11915742Y-16375076D02*
X11934790Y-16375076D01*
X11934790Y-16375076D02*
X11953837Y-16384600D01*
X11953837Y-16384600D02*
X11963361Y-16394124D01*
X11963361Y-16394124D02*
X11972885Y-16413171D01*
X11972885Y-16413171D02*
X11982409Y-16451266D01*
X11982409Y-16451266D02*
X11982409Y-16498885D01*
X11982409Y-16498885D02*
X11972885Y-16536981D01*
X11972885Y-16536981D02*
X11963361Y-16556028D01*
X11963361Y-16556028D02*
X11953837Y-16565552D01*
X11953837Y-16565552D02*
X11934790Y-16575076D01*
X11934790Y-16575076D02*
X11915742Y-16575076D01*
X11915742Y-16575076D02*
X11896694Y-16565552D01*
X11896694Y-16565552D02*
X11887171Y-16556028D01*
X11887171Y-16556028D02*
X11877647Y-16536981D01*
X11877647Y-16536981D02*
X11868123Y-16498885D01*
X11868123Y-16498885D02*
X11868123Y-16451266D01*
X11868123Y-16451266D02*
X11877647Y-16413171D01*
X11877647Y-16413171D02*
X11887171Y-16394124D01*
X11887171Y-16394124D02*
X11896694Y-16384600D01*
X11896694Y-16384600D02*
X11915742Y-16375076D01*
X12068123Y-16556028D02*
X12077647Y-16565552D01*
X12077647Y-16565552D02*
X12068123Y-16575076D01*
X12068123Y-16575076D02*
X12058599Y-16565552D01*
X12058599Y-16565552D02*
X12068123Y-16556028D01*
X12068123Y-16556028D02*
X12068123Y-16575076D01*
X12201456Y-16375076D02*
X12220504Y-16375076D01*
X12220504Y-16375076D02*
X12239552Y-16384600D01*
X12239552Y-16384600D02*
X12249075Y-16394124D01*
X12249075Y-16394124D02*
X12258599Y-16413171D01*
X12258599Y-16413171D02*
X12268123Y-16451266D01*
X12268123Y-16451266D02*
X12268123Y-16498885D01*
X12268123Y-16498885D02*
X12258599Y-16536981D01*
X12258599Y-16536981D02*
X12249075Y-16556028D01*
X12249075Y-16556028D02*
X12239552Y-16565552D01*
X12239552Y-16565552D02*
X12220504Y-16575076D01*
X12220504Y-16575076D02*
X12201456Y-16575076D01*
X12201456Y-16575076D02*
X12182409Y-16565552D01*
X12182409Y-16565552D02*
X12172885Y-16556028D01*
X12172885Y-16556028D02*
X12163361Y-16536981D01*
X12163361Y-16536981D02*
X12153837Y-16498885D01*
X12153837Y-16498885D02*
X12153837Y-16451266D01*
X12153837Y-16451266D02*
X12163361Y-16413171D01*
X12163361Y-16413171D02*
X12172885Y-16394124D01*
X12172885Y-16394124D02*
X12182409Y-16384600D01*
X12182409Y-16384600D02*
X12201456Y-16375076D01*
X12458599Y-16575076D02*
X12344313Y-16575076D01*
X12401456Y-16575076D02*
X12401456Y-16375076D01*
X12401456Y-16375076D02*
X12382409Y-16403647D01*
X12382409Y-16403647D02*
X12363361Y-16422695D01*
X12363361Y-16422695D02*
X12344313Y-16432219D01*
X12639552Y-16375076D02*
X12544313Y-16375076D01*
X12544313Y-16375076D02*
X12534790Y-16470314D01*
X12534790Y-16470314D02*
X12544313Y-16460790D01*
X12544313Y-16460790D02*
X12563361Y-16451266D01*
X12563361Y-16451266D02*
X12610980Y-16451266D01*
X12610980Y-16451266D02*
X12630028Y-16460790D01*
X12630028Y-16460790D02*
X12639552Y-16470314D01*
X12639552Y-16470314D02*
X12649075Y-16489362D01*
X12649075Y-16489362D02*
X12649075Y-16536981D01*
X12649075Y-16536981D02*
X12639552Y-16556028D01*
X12639552Y-16556028D02*
X12630028Y-16565552D01*
X12630028Y-16565552D02*
X12610980Y-16575076D01*
X12610980Y-16575076D02*
X12563361Y-16575076D01*
X12563361Y-16575076D02*
X12544313Y-16565552D01*
X12544313Y-16565552D02*
X12534790Y-16556028D01*
X12715742Y-16375076D02*
X12849075Y-16375076D01*
X12849075Y-16375076D02*
X12763361Y-16575076D01*
X12915742Y-16375076D02*
X12915742Y-16413171D01*
X12991933Y-16375076D02*
X12991933Y-16413171D01*
X13287171Y-16651266D02*
X13277647Y-16641743D01*
X13277647Y-16641743D02*
X13258599Y-16613171D01*
X13258599Y-16613171D02*
X13249075Y-16594124D01*
X13249075Y-16594124D02*
X13239552Y-16565552D01*
X13239552Y-16565552D02*
X13230028Y-16517933D01*
X13230028Y-16517933D02*
X13230028Y-16479838D01*
X13230028Y-16479838D02*
X13239552Y-16432219D01*
X13239552Y-16432219D02*
X13249075Y-16403647D01*
X13249075Y-16403647D02*
X13258599Y-16384600D01*
X13258599Y-16384600D02*
X13277647Y-16356028D01*
X13277647Y-16356028D02*
X13287171Y-16346504D01*
X13468123Y-16575076D02*
X13353837Y-16575076D01*
X13410980Y-16575076D02*
X13410980Y-16375076D01*
X13410980Y-16375076D02*
X13391933Y-16403647D01*
X13391933Y-16403647D02*
X13372885Y-16422695D01*
X13372885Y-16422695D02*
X13353837Y-16432219D01*
X13706218Y-16575076D02*
X13706218Y-16375076D01*
X13791933Y-16575076D02*
X13791933Y-16470314D01*
X13791933Y-16470314D02*
X13782409Y-16451266D01*
X13782409Y-16451266D02*
X13763361Y-16441743D01*
X13763361Y-16441743D02*
X13734790Y-16441743D01*
X13734790Y-16441743D02*
X13715742Y-16451266D01*
X13715742Y-16451266D02*
X13706218Y-16460790D01*
X13915742Y-16575076D02*
X13896695Y-16565552D01*
X13896695Y-16565552D02*
X13887171Y-16556028D01*
X13887171Y-16556028D02*
X13877647Y-16536981D01*
X13877647Y-16536981D02*
X13877647Y-16479838D01*
X13877647Y-16479838D02*
X13887171Y-16460790D01*
X13887171Y-16460790D02*
X13896695Y-16451266D01*
X13896695Y-16451266D02*
X13915742Y-16441743D01*
X13915742Y-16441743D02*
X13944314Y-16441743D01*
X13944314Y-16441743D02*
X13963361Y-16451266D01*
X13963361Y-16451266D02*
X13972885Y-16460790D01*
X13972885Y-16460790D02*
X13982409Y-16479838D01*
X13982409Y-16479838D02*
X13982409Y-16536981D01*
X13982409Y-16536981D02*
X13972885Y-16556028D01*
X13972885Y-16556028D02*
X13963361Y-16565552D01*
X13963361Y-16565552D02*
X13944314Y-16575076D01*
X13944314Y-16575076D02*
X13915742Y-16575076D01*
X14096695Y-16575076D02*
X14077647Y-16565552D01*
X14077647Y-16565552D02*
X14068123Y-16546504D01*
X14068123Y-16546504D02*
X14068123Y-16375076D01*
X14249076Y-16565552D02*
X14230028Y-16575076D01*
X14230028Y-16575076D02*
X14191933Y-16575076D01*
X14191933Y-16575076D02*
X14172885Y-16565552D01*
X14172885Y-16565552D02*
X14163361Y-16546504D01*
X14163361Y-16546504D02*
X14163361Y-16470314D01*
X14163361Y-16470314D02*
X14172885Y-16451266D01*
X14172885Y-16451266D02*
X14191933Y-16441743D01*
X14191933Y-16441743D02*
X14230028Y-16441743D01*
X14230028Y-16441743D02*
X14249076Y-16451266D01*
X14249076Y-16451266D02*
X14258599Y-16470314D01*
X14258599Y-16470314D02*
X14258599Y-16489362D01*
X14258599Y-16489362D02*
X14163361Y-16508409D01*
X14325266Y-16651266D02*
X14334790Y-16641743D01*
X14334790Y-16641743D02*
X14353837Y-16613171D01*
X14353837Y-16613171D02*
X14363361Y-16594124D01*
X14363361Y-16594124D02*
X14372885Y-16565552D01*
X14372885Y-16565552D02*
X14382409Y-16517933D01*
X14382409Y-16517933D02*
X14382409Y-16479838D01*
X14382409Y-16479838D02*
X14372885Y-16432219D01*
X14372885Y-16432219D02*
X14363361Y-16403647D01*
X14363361Y-16403647D02*
X14353837Y-16384600D01*
X14353837Y-16384600D02*
X14334790Y-16356028D01*
X14334790Y-16356028D02*
X14325266Y-16346504D01*
D10*
X9681628Y-16717112D02*
X9681628Y-16778072D01*
X9651148Y-16747592D02*
X9712108Y-16747592D01*
D11*
X10010980Y-16639076D02*
X10030028Y-16639076D01*
X10030028Y-16639076D02*
X10049075Y-16648600D01*
X10049075Y-16648600D02*
X10058599Y-16658124D01*
X10058599Y-16658124D02*
X10068123Y-16677171D01*
X10068123Y-16677171D02*
X10077647Y-16715266D01*
X10077647Y-16715266D02*
X10077647Y-16762885D01*
X10077647Y-16762885D02*
X10068123Y-16800981D01*
X10068123Y-16800981D02*
X10058599Y-16820028D01*
X10058599Y-16820028D02*
X10049075Y-16829552D01*
X10049075Y-16829552D02*
X10030028Y-16839076D01*
X10030028Y-16839076D02*
X10010980Y-16839076D01*
X10010980Y-16839076D02*
X9991932Y-16829552D01*
X9991932Y-16829552D02*
X9982409Y-16820028D01*
X9982409Y-16820028D02*
X9972885Y-16800981D01*
X9972885Y-16800981D02*
X9963361Y-16762885D01*
X9963361Y-16762885D02*
X9963361Y-16715266D01*
X9963361Y-16715266D02*
X9972885Y-16677171D01*
X9972885Y-16677171D02*
X9982409Y-16658124D01*
X9982409Y-16658124D02*
X9991932Y-16648600D01*
X9991932Y-16648600D02*
X10010980Y-16639076D01*
X10163361Y-16820028D02*
X10172885Y-16829552D01*
X10172885Y-16829552D02*
X10163361Y-16839076D01*
X10163361Y-16839076D02*
X10153837Y-16829552D01*
X10153837Y-16829552D02*
X10163361Y-16820028D01*
X10163361Y-16820028D02*
X10163361Y-16839076D01*
X10344313Y-16639076D02*
X10306218Y-16639076D01*
X10306218Y-16639076D02*
X10287170Y-16648600D01*
X10287170Y-16648600D02*
X10277647Y-16658124D01*
X10277647Y-16658124D02*
X10258599Y-16686695D01*
X10258599Y-16686695D02*
X10249075Y-16724790D01*
X10249075Y-16724790D02*
X10249075Y-16800981D01*
X10249075Y-16800981D02*
X10258599Y-16820028D01*
X10258599Y-16820028D02*
X10268123Y-16829552D01*
X10268123Y-16829552D02*
X10287170Y-16839076D01*
X10287170Y-16839076D02*
X10325266Y-16839076D01*
X10325266Y-16839076D02*
X10344313Y-16829552D01*
X10344313Y-16829552D02*
X10353837Y-16820028D01*
X10353837Y-16820028D02*
X10363361Y-16800981D01*
X10363361Y-16800981D02*
X10363361Y-16753362D01*
X10363361Y-16753362D02*
X10353837Y-16734314D01*
X10353837Y-16734314D02*
X10344313Y-16724790D01*
X10344313Y-16724790D02*
X10325266Y-16715266D01*
X10325266Y-16715266D02*
X10287170Y-16715266D01*
X10287170Y-16715266D02*
X10268123Y-16724790D01*
X10268123Y-16724790D02*
X10258599Y-16734314D01*
X10258599Y-16734314D02*
X10249075Y-16753362D01*
X10553837Y-16839076D02*
X10439551Y-16839076D01*
X10496694Y-16839076D02*
X10496694Y-16639076D01*
X10496694Y-16639076D02*
X10477647Y-16667647D01*
X10477647Y-16667647D02*
X10458599Y-16686695D01*
X10458599Y-16686695D02*
X10439551Y-16696219D01*
X10677647Y-16639076D02*
X10696694Y-16639076D01*
X10696694Y-16639076D02*
X10715742Y-16648600D01*
X10715742Y-16648600D02*
X10725266Y-16658124D01*
X10725266Y-16658124D02*
X10734790Y-16677171D01*
X10734790Y-16677171D02*
X10744313Y-16715266D01*
X10744313Y-16715266D02*
X10744313Y-16762885D01*
X10744313Y-16762885D02*
X10734790Y-16800981D01*
X10734790Y-16800981D02*
X10725266Y-16820028D01*
X10725266Y-16820028D02*
X10715742Y-16829552D01*
X10715742Y-16829552D02*
X10696694Y-16839076D01*
X10696694Y-16839076D02*
X10677647Y-16839076D01*
X10677647Y-16839076D02*
X10658599Y-16829552D01*
X10658599Y-16829552D02*
X10649075Y-16820028D01*
X10649075Y-16820028D02*
X10639551Y-16800981D01*
X10639551Y-16800981D02*
X10630028Y-16762885D01*
X10630028Y-16762885D02*
X10630028Y-16715266D01*
X10630028Y-16715266D02*
X10639551Y-16677171D01*
X10639551Y-16677171D02*
X10649075Y-16658124D01*
X10649075Y-16658124D02*
X10658599Y-16648600D01*
X10658599Y-16648600D02*
X10677647Y-16639076D01*
X10830028Y-16839076D02*
X10830028Y-16705743D01*
X10830028Y-16724790D02*
X10839551Y-16715266D01*
X10839551Y-16715266D02*
X10858599Y-16705743D01*
X10858599Y-16705743D02*
X10887171Y-16705743D01*
X10887171Y-16705743D02*
X10906218Y-16715266D01*
X10906218Y-16715266D02*
X10915742Y-16734314D01*
X10915742Y-16734314D02*
X10915742Y-16839076D01*
X10915742Y-16734314D02*
X10925266Y-16715266D01*
X10925266Y-16715266D02*
X10944313Y-16705743D01*
X10944313Y-16705743D02*
X10972885Y-16705743D01*
X10972885Y-16705743D02*
X10991932Y-16715266D01*
X10991932Y-16715266D02*
X11001456Y-16734314D01*
X11001456Y-16734314D02*
X11001456Y-16839076D01*
X11096694Y-16839076D02*
X11096694Y-16705743D01*
X11096694Y-16724790D02*
X11106218Y-16715266D01*
X11106218Y-16715266D02*
X11125266Y-16705743D01*
X11125266Y-16705743D02*
X11153837Y-16705743D01*
X11153837Y-16705743D02*
X11172885Y-16715266D01*
X11172885Y-16715266D02*
X11182409Y-16734314D01*
X11182409Y-16734314D02*
X11182409Y-16839076D01*
X11182409Y-16734314D02*
X11191932Y-16715266D01*
X11191932Y-16715266D02*
X11210980Y-16705743D01*
X11210980Y-16705743D02*
X11239551Y-16705743D01*
X11239551Y-16705743D02*
X11258599Y-16715266D01*
X11258599Y-16715266D02*
X11268123Y-16734314D01*
X11268123Y-16734314D02*
X11268123Y-16839076D01*
X11658599Y-16629552D02*
X11487171Y-16886695D01*
X11915742Y-16639076D02*
X11934790Y-16639076D01*
X11934790Y-16639076D02*
X11953837Y-16648600D01*
X11953837Y-16648600D02*
X11963361Y-16658124D01*
X11963361Y-16658124D02*
X11972885Y-16677171D01*
X11972885Y-16677171D02*
X11982409Y-16715266D01*
X11982409Y-16715266D02*
X11982409Y-16762885D01*
X11982409Y-16762885D02*
X11972885Y-16800981D01*
X11972885Y-16800981D02*
X11963361Y-16820028D01*
X11963361Y-16820028D02*
X11953837Y-16829552D01*
X11953837Y-16829552D02*
X11934790Y-16839076D01*
X11934790Y-16839076D02*
X11915742Y-16839076D01*
X11915742Y-16839076D02*
X11896694Y-16829552D01*
X11896694Y-16829552D02*
X11887171Y-16820028D01*
X11887171Y-16820028D02*
X11877647Y-16800981D01*
X11877647Y-16800981D02*
X11868123Y-16762885D01*
X11868123Y-16762885D02*
X11868123Y-16715266D01*
X11868123Y-16715266D02*
X11877647Y-16677171D01*
X11877647Y-16677171D02*
X11887171Y-16658124D01*
X11887171Y-16658124D02*
X11896694Y-16648600D01*
X11896694Y-16648600D02*
X11915742Y-16639076D01*
X12068123Y-16820028D02*
X12077647Y-16829552D01*
X12077647Y-16829552D02*
X12068123Y-16839076D01*
X12068123Y-16839076D02*
X12058599Y-16829552D01*
X12058599Y-16829552D02*
X12068123Y-16820028D01*
X12068123Y-16820028D02*
X12068123Y-16839076D01*
X12201456Y-16639076D02*
X12220504Y-16639076D01*
X12220504Y-16639076D02*
X12239552Y-16648600D01*
X12239552Y-16648600D02*
X12249075Y-16658124D01*
X12249075Y-16658124D02*
X12258599Y-16677171D01*
X12258599Y-16677171D02*
X12268123Y-16715266D01*
X12268123Y-16715266D02*
X12268123Y-16762885D01*
X12268123Y-16762885D02*
X12258599Y-16800981D01*
X12258599Y-16800981D02*
X12249075Y-16820028D01*
X12249075Y-16820028D02*
X12239552Y-16829552D01*
X12239552Y-16829552D02*
X12220504Y-16839076D01*
X12220504Y-16839076D02*
X12201456Y-16839076D01*
X12201456Y-16839076D02*
X12182409Y-16829552D01*
X12182409Y-16829552D02*
X12172885Y-16820028D01*
X12172885Y-16820028D02*
X12163361Y-16800981D01*
X12163361Y-16800981D02*
X12153837Y-16762885D01*
X12153837Y-16762885D02*
X12153837Y-16715266D01*
X12153837Y-16715266D02*
X12163361Y-16677171D01*
X12163361Y-16677171D02*
X12172885Y-16658124D01*
X12172885Y-16658124D02*
X12182409Y-16648600D01*
X12182409Y-16648600D02*
X12201456Y-16639076D01*
X12344313Y-16658124D02*
X12353837Y-16648600D01*
X12353837Y-16648600D02*
X12372885Y-16639076D01*
X12372885Y-16639076D02*
X12420504Y-16639076D01*
X12420504Y-16639076D02*
X12439552Y-16648600D01*
X12439552Y-16648600D02*
X12449075Y-16658124D01*
X12449075Y-16658124D02*
X12458599Y-16677171D01*
X12458599Y-16677171D02*
X12458599Y-16696219D01*
X12458599Y-16696219D02*
X12449075Y-16724790D01*
X12449075Y-16724790D02*
X12334790Y-16839076D01*
X12334790Y-16839076D02*
X12458599Y-16839076D01*
X12630028Y-16705743D02*
X12630028Y-16839076D01*
X12582409Y-16629552D02*
X12534790Y-16772409D01*
X12534790Y-16772409D02*
X12658599Y-16772409D01*
X12772885Y-16639076D02*
X12791933Y-16639076D01*
X12791933Y-16639076D02*
X12810980Y-16648600D01*
X12810980Y-16648600D02*
X12820504Y-16658124D01*
X12820504Y-16658124D02*
X12830028Y-16677171D01*
X12830028Y-16677171D02*
X12839552Y-16715266D01*
X12839552Y-16715266D02*
X12839552Y-16762885D01*
X12839552Y-16762885D02*
X12830028Y-16800981D01*
X12830028Y-16800981D02*
X12820504Y-16820028D01*
X12820504Y-16820028D02*
X12810980Y-16829552D01*
X12810980Y-16829552D02*
X12791933Y-16839076D01*
X12791933Y-16839076D02*
X12772885Y-16839076D01*
X12772885Y-16839076D02*
X12753837Y-16829552D01*
X12753837Y-16829552D02*
X12744313Y-16820028D01*
X12744313Y-16820028D02*
X12734790Y-16800981D01*
X12734790Y-16800981D02*
X12725266Y-16762885D01*
X12725266Y-16762885D02*
X12725266Y-16715266D01*
X12725266Y-16715266D02*
X12734790Y-16677171D01*
X12734790Y-16677171D02*
X12744313Y-16658124D01*
X12744313Y-16658124D02*
X12753837Y-16648600D01*
X12753837Y-16648600D02*
X12772885Y-16639076D01*
X12915742Y-16639076D02*
X12915742Y-16677171D01*
X12991933Y-16639076D02*
X12991933Y-16677171D01*
X13287171Y-16915266D02*
X13277647Y-16905743D01*
X13277647Y-16905743D02*
X13258599Y-16877171D01*
X13258599Y-16877171D02*
X13249075Y-16858124D01*
X13249075Y-16858124D02*
X13239552Y-16829552D01*
X13239552Y-16829552D02*
X13230028Y-16781933D01*
X13230028Y-16781933D02*
X13230028Y-16743838D01*
X13230028Y-16743838D02*
X13239552Y-16696219D01*
X13239552Y-16696219D02*
X13249075Y-16667647D01*
X13249075Y-16667647D02*
X13258599Y-16648600D01*
X13258599Y-16648600D02*
X13277647Y-16620028D01*
X13277647Y-16620028D02*
X13287171Y-16610504D01*
X13458599Y-16639076D02*
X13363361Y-16639076D01*
X13363361Y-16639076D02*
X13353837Y-16734314D01*
X13353837Y-16734314D02*
X13363361Y-16724790D01*
X13363361Y-16724790D02*
X13382409Y-16715266D01*
X13382409Y-16715266D02*
X13430028Y-16715266D01*
X13430028Y-16715266D02*
X13449075Y-16724790D01*
X13449075Y-16724790D02*
X13458599Y-16734314D01*
X13458599Y-16734314D02*
X13468123Y-16753362D01*
X13468123Y-16753362D02*
X13468123Y-16800981D01*
X13468123Y-16800981D02*
X13458599Y-16820028D01*
X13458599Y-16820028D02*
X13449075Y-16829552D01*
X13449075Y-16829552D02*
X13430028Y-16839076D01*
X13430028Y-16839076D02*
X13382409Y-16839076D01*
X13382409Y-16839076D02*
X13363361Y-16829552D01*
X13363361Y-16829552D02*
X13353837Y-16820028D01*
X13563361Y-16839076D02*
X13601456Y-16839076D01*
X13601456Y-16839076D02*
X13620504Y-16829552D01*
X13620504Y-16829552D02*
X13630028Y-16820028D01*
X13630028Y-16820028D02*
X13649075Y-16791457D01*
X13649075Y-16791457D02*
X13658599Y-16753362D01*
X13658599Y-16753362D02*
X13658599Y-16677171D01*
X13658599Y-16677171D02*
X13649075Y-16658124D01*
X13649075Y-16658124D02*
X13639552Y-16648600D01*
X13639552Y-16648600D02*
X13620504Y-16639076D01*
X13620504Y-16639076D02*
X13582409Y-16639076D01*
X13582409Y-16639076D02*
X13563361Y-16648600D01*
X13563361Y-16648600D02*
X13553837Y-16658124D01*
X13553837Y-16658124D02*
X13544314Y-16677171D01*
X13544314Y-16677171D02*
X13544314Y-16724790D01*
X13544314Y-16724790D02*
X13553837Y-16743838D01*
X13553837Y-16743838D02*
X13563361Y-16753362D01*
X13563361Y-16753362D02*
X13582409Y-16762885D01*
X13582409Y-16762885D02*
X13620504Y-16762885D01*
X13620504Y-16762885D02*
X13639552Y-16753362D01*
X13639552Y-16753362D02*
X13649075Y-16743838D01*
X13649075Y-16743838D02*
X13658599Y-16724790D01*
X13896695Y-16839076D02*
X13896695Y-16639076D01*
X13982409Y-16839076D02*
X13982409Y-16734314D01*
X13982409Y-16734314D02*
X13972885Y-16715266D01*
X13972885Y-16715266D02*
X13953837Y-16705743D01*
X13953837Y-16705743D02*
X13925266Y-16705743D01*
X13925266Y-16705743D02*
X13906218Y-16715266D01*
X13906218Y-16715266D02*
X13896695Y-16724790D01*
X14106218Y-16839076D02*
X14087171Y-16829552D01*
X14087171Y-16829552D02*
X14077647Y-16820028D01*
X14077647Y-16820028D02*
X14068123Y-16800981D01*
X14068123Y-16800981D02*
X14068123Y-16743838D01*
X14068123Y-16743838D02*
X14077647Y-16724790D01*
X14077647Y-16724790D02*
X14087171Y-16715266D01*
X14087171Y-16715266D02*
X14106218Y-16705743D01*
X14106218Y-16705743D02*
X14134790Y-16705743D01*
X14134790Y-16705743D02*
X14153837Y-16715266D01*
X14153837Y-16715266D02*
X14163361Y-16724790D01*
X14163361Y-16724790D02*
X14172885Y-16743838D01*
X14172885Y-16743838D02*
X14172885Y-16800981D01*
X14172885Y-16800981D02*
X14163361Y-16820028D01*
X14163361Y-16820028D02*
X14153837Y-16829552D01*
X14153837Y-16829552D02*
X14134790Y-16839076D01*
X14134790Y-16839076D02*
X14106218Y-16839076D01*
X14287171Y-16839076D02*
X14268123Y-16829552D01*
X14268123Y-16829552D02*
X14258599Y-16810505D01*
X14258599Y-16810505D02*
X14258599Y-16639076D01*
X14439552Y-16829552D02*
X14420504Y-16839076D01*
X14420504Y-16839076D02*
X14382409Y-16839076D01*
X14382409Y-16839076D02*
X14363361Y-16829552D01*
X14363361Y-16829552D02*
X14353837Y-16810505D01*
X14353837Y-16810505D02*
X14353837Y-16734314D01*
X14353837Y-16734314D02*
X14363361Y-16715266D01*
X14363361Y-16715266D02*
X14382409Y-16705743D01*
X14382409Y-16705743D02*
X14420504Y-16705743D01*
X14420504Y-16705743D02*
X14439552Y-16715266D01*
X14439552Y-16715266D02*
X14449076Y-16734314D01*
X14449076Y-16734314D02*
X14449076Y-16753362D01*
X14449076Y-16753362D02*
X14353837Y-16772409D01*
X14525266Y-16829552D02*
X14544314Y-16839076D01*
X14544314Y-16839076D02*
X14582409Y-16839076D01*
X14582409Y-16839076D02*
X14601457Y-16829552D01*
X14601457Y-16829552D02*
X14610980Y-16810505D01*
X14610980Y-16810505D02*
X14610980Y-16800981D01*
X14610980Y-16800981D02*
X14601457Y-16781933D01*
X14601457Y-16781933D02*
X14582409Y-16772409D01*
X14582409Y-16772409D02*
X14553837Y-16772409D01*
X14553837Y-16772409D02*
X14534790Y-16762885D01*
X14534790Y-16762885D02*
X14525266Y-16743838D01*
X14525266Y-16743838D02*
X14525266Y-16734314D01*
X14525266Y-16734314D02*
X14534790Y-16715266D01*
X14534790Y-16715266D02*
X14553837Y-16705743D01*
X14553837Y-16705743D02*
X14582409Y-16705743D01*
X14582409Y-16705743D02*
X14601457Y-16715266D01*
X14677647Y-16915266D02*
X14687171Y-16905743D01*
X14687171Y-16905743D02*
X14706218Y-16877171D01*
X14706218Y-16877171D02*
X14715742Y-16858124D01*
X14715742Y-16858124D02*
X14725266Y-16829552D01*
X14725266Y-16829552D02*
X14734790Y-16781933D01*
X14734790Y-16781933D02*
X14734790Y-16743838D01*
X14734790Y-16743838D02*
X14725266Y-16696219D01*
X14725266Y-16696219D02*
X14715742Y-16667647D01*
X14715742Y-16667647D02*
X14706218Y-16648600D01*
X14706218Y-16648600D02*
X14687171Y-16620028D01*
X14687171Y-16620028D02*
X14677647Y-16610504D01*
D12*
X9695999Y-17050483D02*
X9695999Y-16972701D01*
X9618217Y-16972701D01*
X9618217Y-17050483D01*
X9695999Y-17050483D01*
D11*
X10077647Y-17103076D02*
X9963361Y-17103076D01*
X10020504Y-17103076D02*
X10020504Y-16903076D01*
X10020504Y-16903076D02*
X10001456Y-16931647D01*
X10001456Y-16931647D02*
X9982409Y-16950695D01*
X9982409Y-16950695D02*
X9963361Y-16960219D01*
X10163361Y-17084028D02*
X10172885Y-17093552D01*
X10172885Y-17093552D02*
X10163361Y-17103076D01*
X10163361Y-17103076D02*
X10153837Y-17093552D01*
X10153837Y-17093552D02*
X10163361Y-17084028D01*
X10163361Y-17084028D02*
X10163361Y-17103076D01*
X10363361Y-17103076D02*
X10249075Y-17103076D01*
X10306218Y-17103076D02*
X10306218Y-16903076D01*
X10306218Y-16903076D02*
X10287170Y-16931647D01*
X10287170Y-16931647D02*
X10268123Y-16950695D01*
X10268123Y-16950695D02*
X10249075Y-16960219D01*
X10487170Y-16903076D02*
X10506218Y-16903076D01*
X10506218Y-16903076D02*
X10525266Y-16912600D01*
X10525266Y-16912600D02*
X10534790Y-16922124D01*
X10534790Y-16922124D02*
X10544313Y-16941171D01*
X10544313Y-16941171D02*
X10553837Y-16979266D01*
X10553837Y-16979266D02*
X10553837Y-17026886D01*
X10553837Y-17026886D02*
X10544313Y-17064981D01*
X10544313Y-17064981D02*
X10534790Y-17084028D01*
X10534790Y-17084028D02*
X10525266Y-17093552D01*
X10525266Y-17093552D02*
X10506218Y-17103076D01*
X10506218Y-17103076D02*
X10487170Y-17103076D01*
X10487170Y-17103076D02*
X10468123Y-17093552D01*
X10468123Y-17093552D02*
X10458599Y-17084028D01*
X10458599Y-17084028D02*
X10449075Y-17064981D01*
X10449075Y-17064981D02*
X10439551Y-17026886D01*
X10439551Y-17026886D02*
X10439551Y-16979266D01*
X10439551Y-16979266D02*
X10449075Y-16941171D01*
X10449075Y-16941171D02*
X10458599Y-16922124D01*
X10458599Y-16922124D02*
X10468123Y-16912600D01*
X10468123Y-16912600D02*
X10487170Y-16903076D01*
X10677647Y-16903076D02*
X10696694Y-16903076D01*
X10696694Y-16903076D02*
X10715742Y-16912600D01*
X10715742Y-16912600D02*
X10725266Y-16922124D01*
X10725266Y-16922124D02*
X10734790Y-16941171D01*
X10734790Y-16941171D02*
X10744313Y-16979266D01*
X10744313Y-16979266D02*
X10744313Y-17026886D01*
X10744313Y-17026886D02*
X10734790Y-17064981D01*
X10734790Y-17064981D02*
X10725266Y-17084028D01*
X10725266Y-17084028D02*
X10715742Y-17093552D01*
X10715742Y-17093552D02*
X10696694Y-17103076D01*
X10696694Y-17103076D02*
X10677647Y-17103076D01*
X10677647Y-17103076D02*
X10658599Y-17093552D01*
X10658599Y-17093552D02*
X10649075Y-17084028D01*
X10649075Y-17084028D02*
X10639551Y-17064981D01*
X10639551Y-17064981D02*
X10630028Y-17026886D01*
X10630028Y-17026886D02*
X10630028Y-16979266D01*
X10630028Y-16979266D02*
X10639551Y-16941171D01*
X10639551Y-16941171D02*
X10649075Y-16922124D01*
X10649075Y-16922124D02*
X10658599Y-16912600D01*
X10658599Y-16912600D02*
X10677647Y-16903076D01*
X10830028Y-17103076D02*
X10830028Y-16969743D01*
X10830028Y-16988790D02*
X10839551Y-16979266D01*
X10839551Y-16979266D02*
X10858599Y-16969743D01*
X10858599Y-16969743D02*
X10887171Y-16969743D01*
X10887171Y-16969743D02*
X10906218Y-16979266D01*
X10906218Y-16979266D02*
X10915742Y-16998314D01*
X10915742Y-16998314D02*
X10915742Y-17103076D01*
X10915742Y-16998314D02*
X10925266Y-16979266D01*
X10925266Y-16979266D02*
X10944313Y-16969743D01*
X10944313Y-16969743D02*
X10972885Y-16969743D01*
X10972885Y-16969743D02*
X10991932Y-16979266D01*
X10991932Y-16979266D02*
X11001456Y-16998314D01*
X11001456Y-16998314D02*
X11001456Y-17103076D01*
X11096694Y-17103076D02*
X11096694Y-16969743D01*
X11096694Y-16988790D02*
X11106218Y-16979266D01*
X11106218Y-16979266D02*
X11125266Y-16969743D01*
X11125266Y-16969743D02*
X11153837Y-16969743D01*
X11153837Y-16969743D02*
X11172885Y-16979266D01*
X11172885Y-16979266D02*
X11182409Y-16998314D01*
X11182409Y-16998314D02*
X11182409Y-17103076D01*
X11182409Y-16998314D02*
X11191932Y-16979266D01*
X11191932Y-16979266D02*
X11210980Y-16969743D01*
X11210980Y-16969743D02*
X11239551Y-16969743D01*
X11239551Y-16969743D02*
X11258599Y-16979266D01*
X11258599Y-16979266D02*
X11268123Y-16998314D01*
X11268123Y-16998314D02*
X11268123Y-17103076D01*
X11658599Y-16893552D02*
X11487171Y-17150695D01*
X11915742Y-16903076D02*
X11934790Y-16903076D01*
X11934790Y-16903076D02*
X11953837Y-16912600D01*
X11953837Y-16912600D02*
X11963361Y-16922124D01*
X11963361Y-16922124D02*
X11972885Y-16941171D01*
X11972885Y-16941171D02*
X11982409Y-16979266D01*
X11982409Y-16979266D02*
X11982409Y-17026886D01*
X11982409Y-17026886D02*
X11972885Y-17064981D01*
X11972885Y-17064981D02*
X11963361Y-17084028D01*
X11963361Y-17084028D02*
X11953837Y-17093552D01*
X11953837Y-17093552D02*
X11934790Y-17103076D01*
X11934790Y-17103076D02*
X11915742Y-17103076D01*
X11915742Y-17103076D02*
X11896694Y-17093552D01*
X11896694Y-17093552D02*
X11887171Y-17084028D01*
X11887171Y-17084028D02*
X11877647Y-17064981D01*
X11877647Y-17064981D02*
X11868123Y-17026886D01*
X11868123Y-17026886D02*
X11868123Y-16979266D01*
X11868123Y-16979266D02*
X11877647Y-16941171D01*
X11877647Y-16941171D02*
X11887171Y-16922124D01*
X11887171Y-16922124D02*
X11896694Y-16912600D01*
X11896694Y-16912600D02*
X11915742Y-16903076D01*
X12068123Y-17084028D02*
X12077647Y-17093552D01*
X12077647Y-17093552D02*
X12068123Y-17103076D01*
X12068123Y-17103076D02*
X12058599Y-17093552D01*
X12058599Y-17093552D02*
X12068123Y-17084028D01*
X12068123Y-17084028D02*
X12068123Y-17103076D01*
X12201456Y-16903076D02*
X12220504Y-16903076D01*
X12220504Y-16903076D02*
X12239552Y-16912600D01*
X12239552Y-16912600D02*
X12249075Y-16922124D01*
X12249075Y-16922124D02*
X12258599Y-16941171D01*
X12258599Y-16941171D02*
X12268123Y-16979266D01*
X12268123Y-16979266D02*
X12268123Y-17026886D01*
X12268123Y-17026886D02*
X12258599Y-17064981D01*
X12258599Y-17064981D02*
X12249075Y-17084028D01*
X12249075Y-17084028D02*
X12239552Y-17093552D01*
X12239552Y-17093552D02*
X12220504Y-17103076D01*
X12220504Y-17103076D02*
X12201456Y-17103076D01*
X12201456Y-17103076D02*
X12182409Y-17093552D01*
X12182409Y-17093552D02*
X12172885Y-17084028D01*
X12172885Y-17084028D02*
X12163361Y-17064981D01*
X12163361Y-17064981D02*
X12153837Y-17026886D01*
X12153837Y-17026886D02*
X12153837Y-16979266D01*
X12153837Y-16979266D02*
X12163361Y-16941171D01*
X12163361Y-16941171D02*
X12172885Y-16922124D01*
X12172885Y-16922124D02*
X12182409Y-16912600D01*
X12182409Y-16912600D02*
X12201456Y-16903076D01*
X12439552Y-16969743D02*
X12439552Y-17103076D01*
X12391932Y-16893552D02*
X12344313Y-17036409D01*
X12344313Y-17036409D02*
X12468123Y-17036409D01*
X12525266Y-16903076D02*
X12649075Y-16903076D01*
X12649075Y-16903076D02*
X12582409Y-16979266D01*
X12582409Y-16979266D02*
X12610980Y-16979266D01*
X12610980Y-16979266D02*
X12630028Y-16988790D01*
X12630028Y-16988790D02*
X12639552Y-16998314D01*
X12639552Y-16998314D02*
X12649075Y-17017362D01*
X12649075Y-17017362D02*
X12649075Y-17064981D01*
X12649075Y-17064981D02*
X12639552Y-17084028D01*
X12639552Y-17084028D02*
X12630028Y-17093552D01*
X12630028Y-17093552D02*
X12610980Y-17103076D01*
X12610980Y-17103076D02*
X12553837Y-17103076D01*
X12553837Y-17103076D02*
X12534790Y-17093552D01*
X12534790Y-17093552D02*
X12525266Y-17084028D01*
X12715742Y-16903076D02*
X12839552Y-16903076D01*
X12839552Y-16903076D02*
X12772885Y-16979266D01*
X12772885Y-16979266D02*
X12801456Y-16979266D01*
X12801456Y-16979266D02*
X12820504Y-16988790D01*
X12820504Y-16988790D02*
X12830028Y-16998314D01*
X12830028Y-16998314D02*
X12839552Y-17017362D01*
X12839552Y-17017362D02*
X12839552Y-17064981D01*
X12839552Y-17064981D02*
X12830028Y-17084028D01*
X12830028Y-17084028D02*
X12820504Y-17093552D01*
X12820504Y-17093552D02*
X12801456Y-17103076D01*
X12801456Y-17103076D02*
X12744313Y-17103076D01*
X12744313Y-17103076D02*
X12725266Y-17093552D01*
X12725266Y-17093552D02*
X12715742Y-17084028D01*
X12915742Y-16903076D02*
X12915742Y-16941171D01*
X12991933Y-16903076D02*
X12991933Y-16941171D01*
X13287171Y-17179266D02*
X13277647Y-17169743D01*
X13277647Y-17169743D02*
X13258599Y-17141171D01*
X13258599Y-17141171D02*
X13249075Y-17122124D01*
X13249075Y-17122124D02*
X13239552Y-17093552D01*
X13239552Y-17093552D02*
X13230028Y-17045933D01*
X13230028Y-17045933D02*
X13230028Y-17007838D01*
X13230028Y-17007838D02*
X13239552Y-16960219D01*
X13239552Y-16960219D02*
X13249075Y-16931647D01*
X13249075Y-16931647D02*
X13258599Y-16912600D01*
X13258599Y-16912600D02*
X13277647Y-16884028D01*
X13277647Y-16884028D02*
X13287171Y-16874505D01*
X13449075Y-16969743D02*
X13449075Y-17103076D01*
X13401456Y-16893552D02*
X13353837Y-17036409D01*
X13353837Y-17036409D02*
X13477647Y-17036409D01*
X13706218Y-17103076D02*
X13706218Y-16903076D01*
X13791933Y-17103076D02*
X13791933Y-16998314D01*
X13791933Y-16998314D02*
X13782409Y-16979266D01*
X13782409Y-16979266D02*
X13763361Y-16969743D01*
X13763361Y-16969743D02*
X13734790Y-16969743D01*
X13734790Y-16969743D02*
X13715742Y-16979266D01*
X13715742Y-16979266D02*
X13706218Y-16988790D01*
X13915742Y-17103076D02*
X13896695Y-17093552D01*
X13896695Y-17093552D02*
X13887171Y-17084028D01*
X13887171Y-17084028D02*
X13877647Y-17064981D01*
X13877647Y-17064981D02*
X13877647Y-17007838D01*
X13877647Y-17007838D02*
X13887171Y-16988790D01*
X13887171Y-16988790D02*
X13896695Y-16979266D01*
X13896695Y-16979266D02*
X13915742Y-16969743D01*
X13915742Y-16969743D02*
X13944314Y-16969743D01*
X13944314Y-16969743D02*
X13963361Y-16979266D01*
X13963361Y-16979266D02*
X13972885Y-16988790D01*
X13972885Y-16988790D02*
X13982409Y-17007838D01*
X13982409Y-17007838D02*
X13982409Y-17064981D01*
X13982409Y-17064981D02*
X13972885Y-17084028D01*
X13972885Y-17084028D02*
X13963361Y-17093552D01*
X13963361Y-17093552D02*
X13944314Y-17103076D01*
X13944314Y-17103076D02*
X13915742Y-17103076D01*
X14096695Y-17103076D02*
X14077647Y-17093552D01*
X14077647Y-17093552D02*
X14068123Y-17074505D01*
X14068123Y-17074505D02*
X14068123Y-16903076D01*
X14249076Y-17093552D02*
X14230028Y-17103076D01*
X14230028Y-17103076D02*
X14191933Y-17103076D01*
X14191933Y-17103076D02*
X14172885Y-17093552D01*
X14172885Y-17093552D02*
X14163361Y-17074505D01*
X14163361Y-17074505D02*
X14163361Y-16998314D01*
X14163361Y-16998314D02*
X14172885Y-16979266D01*
X14172885Y-16979266D02*
X14191933Y-16969743D01*
X14191933Y-16969743D02*
X14230028Y-16969743D01*
X14230028Y-16969743D02*
X14249076Y-16979266D01*
X14249076Y-16979266D02*
X14258599Y-16998314D01*
X14258599Y-16998314D02*
X14258599Y-17017362D01*
X14258599Y-17017362D02*
X14163361Y-17036409D01*
X14334790Y-17093552D02*
X14353837Y-17103076D01*
X14353837Y-17103076D02*
X14391933Y-17103076D01*
X14391933Y-17103076D02*
X14410980Y-17093552D01*
X14410980Y-17093552D02*
X14420504Y-17074505D01*
X14420504Y-17074505D02*
X14420504Y-17064981D01*
X14420504Y-17064981D02*
X14410980Y-17045933D01*
X14410980Y-17045933D02*
X14391933Y-17036409D01*
X14391933Y-17036409D02*
X14363361Y-17036409D01*
X14363361Y-17036409D02*
X14344314Y-17026886D01*
X14344314Y-17026886D02*
X14334790Y-17007838D01*
X14334790Y-17007838D02*
X14334790Y-16998314D01*
X14334790Y-16998314D02*
X14344314Y-16979266D01*
X14344314Y-16979266D02*
X14363361Y-16969743D01*
X14363361Y-16969743D02*
X14391933Y-16969743D01*
X14391933Y-16969743D02*
X14410980Y-16979266D01*
X14487171Y-17179266D02*
X14496695Y-17169743D01*
X14496695Y-17169743D02*
X14515742Y-17141171D01*
X14515742Y-17141171D02*
X14525266Y-17122124D01*
X14525266Y-17122124D02*
X14534790Y-17093552D01*
X14534790Y-17093552D02*
X14544314Y-17045933D01*
X14544314Y-17045933D02*
X14544314Y-17007838D01*
X14544314Y-17007838D02*
X14534790Y-16960219D01*
X14534790Y-16960219D02*
X14525266Y-16931647D01*
X14525266Y-16931647D02*
X14515742Y-16912600D01*
X14515742Y-16912600D02*
X14496695Y-16884028D01*
X14496695Y-16884028D02*
X14487171Y-16874505D01*
D13*
X9652113Y-17335587D02*
X9712108Y-17275592D01*
X9652113Y-17215597D01*
X9592118Y-17275592D01*
X9652113Y-17335587D01*
D11*
X10077647Y-17367076D02*
X9963361Y-17367076D01*
X10020504Y-17367076D02*
X10020504Y-17167076D01*
X10020504Y-17167076D02*
X10001456Y-17195647D01*
X10001456Y-17195647D02*
X9982409Y-17214695D01*
X9982409Y-17214695D02*
X9963361Y-17224219D01*
X10163361Y-17348028D02*
X10172885Y-17357552D01*
X10172885Y-17357552D02*
X10163361Y-17367076D01*
X10163361Y-17367076D02*
X10153837Y-17357552D01*
X10153837Y-17357552D02*
X10163361Y-17348028D01*
X10163361Y-17348028D02*
X10163361Y-17367076D01*
X10249075Y-17186124D02*
X10258599Y-17176600D01*
X10258599Y-17176600D02*
X10277647Y-17167076D01*
X10277647Y-17167076D02*
X10325266Y-17167076D01*
X10325266Y-17167076D02*
X10344313Y-17176600D01*
X10344313Y-17176600D02*
X10353837Y-17186124D01*
X10353837Y-17186124D02*
X10363361Y-17205171D01*
X10363361Y-17205171D02*
X10363361Y-17224219D01*
X10363361Y-17224219D02*
X10353837Y-17252790D01*
X10353837Y-17252790D02*
X10239551Y-17367076D01*
X10239551Y-17367076D02*
X10363361Y-17367076D01*
X10487170Y-17167076D02*
X10506218Y-17167076D01*
X10506218Y-17167076D02*
X10525266Y-17176600D01*
X10525266Y-17176600D02*
X10534790Y-17186124D01*
X10534790Y-17186124D02*
X10544313Y-17205171D01*
X10544313Y-17205171D02*
X10553837Y-17243266D01*
X10553837Y-17243266D02*
X10553837Y-17290886D01*
X10553837Y-17290886D02*
X10544313Y-17328981D01*
X10544313Y-17328981D02*
X10534790Y-17348028D01*
X10534790Y-17348028D02*
X10525266Y-17357552D01*
X10525266Y-17357552D02*
X10506218Y-17367076D01*
X10506218Y-17367076D02*
X10487170Y-17367076D01*
X10487170Y-17367076D02*
X10468123Y-17357552D01*
X10468123Y-17357552D02*
X10458599Y-17348028D01*
X10458599Y-17348028D02*
X10449075Y-17328981D01*
X10449075Y-17328981D02*
X10439551Y-17290886D01*
X10439551Y-17290886D02*
X10439551Y-17243266D01*
X10439551Y-17243266D02*
X10449075Y-17205171D01*
X10449075Y-17205171D02*
X10458599Y-17186124D01*
X10458599Y-17186124D02*
X10468123Y-17176600D01*
X10468123Y-17176600D02*
X10487170Y-17167076D01*
X10677647Y-17167076D02*
X10696694Y-17167076D01*
X10696694Y-17167076D02*
X10715742Y-17176600D01*
X10715742Y-17176600D02*
X10725266Y-17186124D01*
X10725266Y-17186124D02*
X10734790Y-17205171D01*
X10734790Y-17205171D02*
X10744313Y-17243266D01*
X10744313Y-17243266D02*
X10744313Y-17290886D01*
X10744313Y-17290886D02*
X10734790Y-17328981D01*
X10734790Y-17328981D02*
X10725266Y-17348028D01*
X10725266Y-17348028D02*
X10715742Y-17357552D01*
X10715742Y-17357552D02*
X10696694Y-17367076D01*
X10696694Y-17367076D02*
X10677647Y-17367076D01*
X10677647Y-17367076D02*
X10658599Y-17357552D01*
X10658599Y-17357552D02*
X10649075Y-17348028D01*
X10649075Y-17348028D02*
X10639551Y-17328981D01*
X10639551Y-17328981D02*
X10630028Y-17290886D01*
X10630028Y-17290886D02*
X10630028Y-17243266D01*
X10630028Y-17243266D02*
X10639551Y-17205171D01*
X10639551Y-17205171D02*
X10649075Y-17186124D01*
X10649075Y-17186124D02*
X10658599Y-17176600D01*
X10658599Y-17176600D02*
X10677647Y-17167076D01*
X10830028Y-17367076D02*
X10830028Y-17233743D01*
X10830028Y-17252790D02*
X10839551Y-17243266D01*
X10839551Y-17243266D02*
X10858599Y-17233743D01*
X10858599Y-17233743D02*
X10887171Y-17233743D01*
X10887171Y-17233743D02*
X10906218Y-17243266D01*
X10906218Y-17243266D02*
X10915742Y-17262314D01*
X10915742Y-17262314D02*
X10915742Y-17367076D01*
X10915742Y-17262314D02*
X10925266Y-17243266D01*
X10925266Y-17243266D02*
X10944313Y-17233743D01*
X10944313Y-17233743D02*
X10972885Y-17233743D01*
X10972885Y-17233743D02*
X10991932Y-17243266D01*
X10991932Y-17243266D02*
X11001456Y-17262314D01*
X11001456Y-17262314D02*
X11001456Y-17367076D01*
X11096694Y-17367076D02*
X11096694Y-17233743D01*
X11096694Y-17252790D02*
X11106218Y-17243266D01*
X11106218Y-17243266D02*
X11125266Y-17233743D01*
X11125266Y-17233743D02*
X11153837Y-17233743D01*
X11153837Y-17233743D02*
X11172885Y-17243266D01*
X11172885Y-17243266D02*
X11182409Y-17262314D01*
X11182409Y-17262314D02*
X11182409Y-17367076D01*
X11182409Y-17262314D02*
X11191932Y-17243266D01*
X11191932Y-17243266D02*
X11210980Y-17233743D01*
X11210980Y-17233743D02*
X11239551Y-17233743D01*
X11239551Y-17233743D02*
X11258599Y-17243266D01*
X11258599Y-17243266D02*
X11268123Y-17262314D01*
X11268123Y-17262314D02*
X11268123Y-17367076D01*
X11658599Y-17157552D02*
X11487171Y-17414695D01*
X11915742Y-17167076D02*
X11934790Y-17167076D01*
X11934790Y-17167076D02*
X11953837Y-17176600D01*
X11953837Y-17176600D02*
X11963361Y-17186124D01*
X11963361Y-17186124D02*
X11972885Y-17205171D01*
X11972885Y-17205171D02*
X11982409Y-17243266D01*
X11982409Y-17243266D02*
X11982409Y-17290886D01*
X11982409Y-17290886D02*
X11972885Y-17328981D01*
X11972885Y-17328981D02*
X11963361Y-17348028D01*
X11963361Y-17348028D02*
X11953837Y-17357552D01*
X11953837Y-17357552D02*
X11934790Y-17367076D01*
X11934790Y-17367076D02*
X11915742Y-17367076D01*
X11915742Y-17367076D02*
X11896694Y-17357552D01*
X11896694Y-17357552D02*
X11887171Y-17348028D01*
X11887171Y-17348028D02*
X11877647Y-17328981D01*
X11877647Y-17328981D02*
X11868123Y-17290886D01*
X11868123Y-17290886D02*
X11868123Y-17243266D01*
X11868123Y-17243266D02*
X11877647Y-17205171D01*
X11877647Y-17205171D02*
X11887171Y-17186124D01*
X11887171Y-17186124D02*
X11896694Y-17176600D01*
X11896694Y-17176600D02*
X11915742Y-17167076D01*
X12068123Y-17348028D02*
X12077647Y-17357552D01*
X12077647Y-17357552D02*
X12068123Y-17367076D01*
X12068123Y-17367076D02*
X12058599Y-17357552D01*
X12058599Y-17357552D02*
X12068123Y-17348028D01*
X12068123Y-17348028D02*
X12068123Y-17367076D01*
X12201456Y-17167076D02*
X12220504Y-17167076D01*
X12220504Y-17167076D02*
X12239552Y-17176600D01*
X12239552Y-17176600D02*
X12249075Y-17186124D01*
X12249075Y-17186124D02*
X12258599Y-17205171D01*
X12258599Y-17205171D02*
X12268123Y-17243266D01*
X12268123Y-17243266D02*
X12268123Y-17290886D01*
X12268123Y-17290886D02*
X12258599Y-17328981D01*
X12258599Y-17328981D02*
X12249075Y-17348028D01*
X12249075Y-17348028D02*
X12239552Y-17357552D01*
X12239552Y-17357552D02*
X12220504Y-17367076D01*
X12220504Y-17367076D02*
X12201456Y-17367076D01*
X12201456Y-17367076D02*
X12182409Y-17357552D01*
X12182409Y-17357552D02*
X12172885Y-17348028D01*
X12172885Y-17348028D02*
X12163361Y-17328981D01*
X12163361Y-17328981D02*
X12153837Y-17290886D01*
X12153837Y-17290886D02*
X12153837Y-17243266D01*
X12153837Y-17243266D02*
X12163361Y-17205171D01*
X12163361Y-17205171D02*
X12172885Y-17186124D01*
X12172885Y-17186124D02*
X12182409Y-17176600D01*
X12182409Y-17176600D02*
X12201456Y-17167076D01*
X12439552Y-17233743D02*
X12439552Y-17367076D01*
X12391932Y-17157552D02*
X12344313Y-17300409D01*
X12344313Y-17300409D02*
X12468123Y-17300409D01*
X12525266Y-17167076D02*
X12658599Y-17167076D01*
X12658599Y-17167076D02*
X12572885Y-17367076D01*
X12725266Y-17186124D02*
X12734790Y-17176600D01*
X12734790Y-17176600D02*
X12753837Y-17167076D01*
X12753837Y-17167076D02*
X12801456Y-17167076D01*
X12801456Y-17167076D02*
X12820504Y-17176600D01*
X12820504Y-17176600D02*
X12830028Y-17186124D01*
X12830028Y-17186124D02*
X12839552Y-17205171D01*
X12839552Y-17205171D02*
X12839552Y-17224219D01*
X12839552Y-17224219D02*
X12830028Y-17252790D01*
X12830028Y-17252790D02*
X12715742Y-17367076D01*
X12715742Y-17367076D02*
X12839552Y-17367076D01*
X12915742Y-17167076D02*
X12915742Y-17205171D01*
X12991933Y-17167076D02*
X12991933Y-17205171D01*
X13287171Y-17443266D02*
X13277647Y-17433743D01*
X13277647Y-17433743D02*
X13258599Y-17405171D01*
X13258599Y-17405171D02*
X13249075Y-17386124D01*
X13249075Y-17386124D02*
X13239552Y-17357552D01*
X13239552Y-17357552D02*
X13230028Y-17309933D01*
X13230028Y-17309933D02*
X13230028Y-17271838D01*
X13230028Y-17271838D02*
X13239552Y-17224219D01*
X13239552Y-17224219D02*
X13249075Y-17195647D01*
X13249075Y-17195647D02*
X13258599Y-17176600D01*
X13258599Y-17176600D02*
X13277647Y-17148028D01*
X13277647Y-17148028D02*
X13287171Y-17138505D01*
X13391933Y-17252790D02*
X13372885Y-17243266D01*
X13372885Y-17243266D02*
X13363361Y-17233743D01*
X13363361Y-17233743D02*
X13353837Y-17214695D01*
X13353837Y-17214695D02*
X13353837Y-17205171D01*
X13353837Y-17205171D02*
X13363361Y-17186124D01*
X13363361Y-17186124D02*
X13372885Y-17176600D01*
X13372885Y-17176600D02*
X13391933Y-17167076D01*
X13391933Y-17167076D02*
X13430028Y-17167076D01*
X13430028Y-17167076D02*
X13449075Y-17176600D01*
X13449075Y-17176600D02*
X13458599Y-17186124D01*
X13458599Y-17186124D02*
X13468123Y-17205171D01*
X13468123Y-17205171D02*
X13468123Y-17214695D01*
X13468123Y-17214695D02*
X13458599Y-17233743D01*
X13458599Y-17233743D02*
X13449075Y-17243266D01*
X13449075Y-17243266D02*
X13430028Y-17252790D01*
X13430028Y-17252790D02*
X13391933Y-17252790D01*
X13391933Y-17252790D02*
X13372885Y-17262314D01*
X13372885Y-17262314D02*
X13363361Y-17271838D01*
X13363361Y-17271838D02*
X13353837Y-17290886D01*
X13353837Y-17290886D02*
X13353837Y-17328981D01*
X13353837Y-17328981D02*
X13363361Y-17348028D01*
X13363361Y-17348028D02*
X13372885Y-17357552D01*
X13372885Y-17357552D02*
X13391933Y-17367076D01*
X13391933Y-17367076D02*
X13430028Y-17367076D01*
X13430028Y-17367076D02*
X13449075Y-17357552D01*
X13449075Y-17357552D02*
X13458599Y-17348028D01*
X13458599Y-17348028D02*
X13468123Y-17328981D01*
X13468123Y-17328981D02*
X13468123Y-17290886D01*
X13468123Y-17290886D02*
X13458599Y-17271838D01*
X13458599Y-17271838D02*
X13449075Y-17262314D01*
X13449075Y-17262314D02*
X13430028Y-17252790D01*
X13706218Y-17367076D02*
X13706218Y-17167076D01*
X13791933Y-17367076D02*
X13791933Y-17262314D01*
X13791933Y-17262314D02*
X13782409Y-17243266D01*
X13782409Y-17243266D02*
X13763361Y-17233743D01*
X13763361Y-17233743D02*
X13734790Y-17233743D01*
X13734790Y-17233743D02*
X13715742Y-17243266D01*
X13715742Y-17243266D02*
X13706218Y-17252790D01*
X13915742Y-17367076D02*
X13896695Y-17357552D01*
X13896695Y-17357552D02*
X13887171Y-17348028D01*
X13887171Y-17348028D02*
X13877647Y-17328981D01*
X13877647Y-17328981D02*
X13877647Y-17271838D01*
X13877647Y-17271838D02*
X13887171Y-17252790D01*
X13887171Y-17252790D02*
X13896695Y-17243266D01*
X13896695Y-17243266D02*
X13915742Y-17233743D01*
X13915742Y-17233743D02*
X13944314Y-17233743D01*
X13944314Y-17233743D02*
X13963361Y-17243266D01*
X13963361Y-17243266D02*
X13972885Y-17252790D01*
X13972885Y-17252790D02*
X13982409Y-17271838D01*
X13982409Y-17271838D02*
X13982409Y-17328981D01*
X13982409Y-17328981D02*
X13972885Y-17348028D01*
X13972885Y-17348028D02*
X13963361Y-17357552D01*
X13963361Y-17357552D02*
X13944314Y-17367076D01*
X13944314Y-17367076D02*
X13915742Y-17367076D01*
X14096695Y-17367076D02*
X14077647Y-17357552D01*
X14077647Y-17357552D02*
X14068123Y-17338505D01*
X14068123Y-17338505D02*
X14068123Y-17167076D01*
X14249076Y-17357552D02*
X14230028Y-17367076D01*
X14230028Y-17367076D02*
X14191933Y-17367076D01*
X14191933Y-17367076D02*
X14172885Y-17357552D01*
X14172885Y-17357552D02*
X14163361Y-17338505D01*
X14163361Y-17338505D02*
X14163361Y-17262314D01*
X14163361Y-17262314D02*
X14172885Y-17243266D01*
X14172885Y-17243266D02*
X14191933Y-17233743D01*
X14191933Y-17233743D02*
X14230028Y-17233743D01*
X14230028Y-17233743D02*
X14249076Y-17243266D01*
X14249076Y-17243266D02*
X14258599Y-17262314D01*
X14258599Y-17262314D02*
X14258599Y-17281362D01*
X14258599Y-17281362D02*
X14163361Y-17300409D01*
X14334790Y-17357552D02*
X14353837Y-17367076D01*
X14353837Y-17367076D02*
X14391933Y-17367076D01*
X14391933Y-17367076D02*
X14410980Y-17357552D01*
X14410980Y-17357552D02*
X14420504Y-17338505D01*
X14420504Y-17338505D02*
X14420504Y-17328981D01*
X14420504Y-17328981D02*
X14410980Y-17309933D01*
X14410980Y-17309933D02*
X14391933Y-17300409D01*
X14391933Y-17300409D02*
X14363361Y-17300409D01*
X14363361Y-17300409D02*
X14344314Y-17290886D01*
X14344314Y-17290886D02*
X14334790Y-17271838D01*
X14334790Y-17271838D02*
X14334790Y-17262314D01*
X14334790Y-17262314D02*
X14344314Y-17243266D01*
X14344314Y-17243266D02*
X14363361Y-17233743D01*
X14363361Y-17233743D02*
X14391933Y-17233743D01*
X14391933Y-17233743D02*
X14410980Y-17243266D01*
X14487171Y-17443266D02*
X14496695Y-17433743D01*
X14496695Y-17433743D02*
X14515742Y-17405171D01*
X14515742Y-17405171D02*
X14525266Y-17386124D01*
X14525266Y-17386124D02*
X14534790Y-17357552D01*
X14534790Y-17357552D02*
X14544314Y-17309933D01*
X14544314Y-17309933D02*
X14544314Y-17271838D01*
X14544314Y-17271838D02*
X14534790Y-17224219D01*
X14534790Y-17224219D02*
X14525266Y-17195647D01*
X14525266Y-17195647D02*
X14515742Y-17176600D01*
X14515742Y-17176600D02*
X14496695Y-17148028D01*
X14496695Y-17148028D02*
X14487171Y-17138505D01*
D14*
X9552108Y-17459592D02*
X9712108Y-17619592D01*
X9712108Y-17459592D02*
X9552108Y-17619592D01*
X9712108Y-17539592D02*
G75*
G03*
X9712108Y-17539592I-80000J0D01*
G01*
D11*
X10077647Y-17631076D02*
X9963361Y-17631076D01*
X10020504Y-17631076D02*
X10020504Y-17431076D01*
X10020504Y-17431076D02*
X10001456Y-17459647D01*
X10001456Y-17459647D02*
X9982409Y-17478695D01*
X9982409Y-17478695D02*
X9963361Y-17488219D01*
X10163361Y-17612028D02*
X10172885Y-17621552D01*
X10172885Y-17621552D02*
X10163361Y-17631076D01*
X10163361Y-17631076D02*
X10153837Y-17621552D01*
X10153837Y-17621552D02*
X10163361Y-17612028D01*
X10163361Y-17612028D02*
X10163361Y-17631076D01*
X10344313Y-17431076D02*
X10306218Y-17431076D01*
X10306218Y-17431076D02*
X10287170Y-17440600D01*
X10287170Y-17440600D02*
X10277647Y-17450124D01*
X10277647Y-17450124D02*
X10258599Y-17478695D01*
X10258599Y-17478695D02*
X10249075Y-17516790D01*
X10249075Y-17516790D02*
X10249075Y-17592981D01*
X10249075Y-17592981D02*
X10258599Y-17612028D01*
X10258599Y-17612028D02*
X10268123Y-17621552D01*
X10268123Y-17621552D02*
X10287170Y-17631076D01*
X10287170Y-17631076D02*
X10325266Y-17631076D01*
X10325266Y-17631076D02*
X10344313Y-17621552D01*
X10344313Y-17621552D02*
X10353837Y-17612028D01*
X10353837Y-17612028D02*
X10363361Y-17592981D01*
X10363361Y-17592981D02*
X10363361Y-17545362D01*
X10363361Y-17545362D02*
X10353837Y-17526314D01*
X10353837Y-17526314D02*
X10344313Y-17516790D01*
X10344313Y-17516790D02*
X10325266Y-17507266D01*
X10325266Y-17507266D02*
X10287170Y-17507266D01*
X10287170Y-17507266D02*
X10268123Y-17516790D01*
X10268123Y-17516790D02*
X10258599Y-17526314D01*
X10258599Y-17526314D02*
X10249075Y-17545362D01*
X10487170Y-17431076D02*
X10506218Y-17431076D01*
X10506218Y-17431076D02*
X10525266Y-17440600D01*
X10525266Y-17440600D02*
X10534790Y-17450124D01*
X10534790Y-17450124D02*
X10544313Y-17469171D01*
X10544313Y-17469171D02*
X10553837Y-17507266D01*
X10553837Y-17507266D02*
X10553837Y-17554886D01*
X10553837Y-17554886D02*
X10544313Y-17592981D01*
X10544313Y-17592981D02*
X10534790Y-17612028D01*
X10534790Y-17612028D02*
X10525266Y-17621552D01*
X10525266Y-17621552D02*
X10506218Y-17631076D01*
X10506218Y-17631076D02*
X10487170Y-17631076D01*
X10487170Y-17631076D02*
X10468123Y-17621552D01*
X10468123Y-17621552D02*
X10458599Y-17612028D01*
X10458599Y-17612028D02*
X10449075Y-17592981D01*
X10449075Y-17592981D02*
X10439551Y-17554886D01*
X10439551Y-17554886D02*
X10439551Y-17507266D01*
X10439551Y-17507266D02*
X10449075Y-17469171D01*
X10449075Y-17469171D02*
X10458599Y-17450124D01*
X10458599Y-17450124D02*
X10468123Y-17440600D01*
X10468123Y-17440600D02*
X10487170Y-17431076D01*
X10677647Y-17431076D02*
X10696694Y-17431076D01*
X10696694Y-17431076D02*
X10715742Y-17440600D01*
X10715742Y-17440600D02*
X10725266Y-17450124D01*
X10725266Y-17450124D02*
X10734790Y-17469171D01*
X10734790Y-17469171D02*
X10744313Y-17507266D01*
X10744313Y-17507266D02*
X10744313Y-17554886D01*
X10744313Y-17554886D02*
X10734790Y-17592981D01*
X10734790Y-17592981D02*
X10725266Y-17612028D01*
X10725266Y-17612028D02*
X10715742Y-17621552D01*
X10715742Y-17621552D02*
X10696694Y-17631076D01*
X10696694Y-17631076D02*
X10677647Y-17631076D01*
X10677647Y-17631076D02*
X10658599Y-17621552D01*
X10658599Y-17621552D02*
X10649075Y-17612028D01*
X10649075Y-17612028D02*
X10639551Y-17592981D01*
X10639551Y-17592981D02*
X10630028Y-17554886D01*
X10630028Y-17554886D02*
X10630028Y-17507266D01*
X10630028Y-17507266D02*
X10639551Y-17469171D01*
X10639551Y-17469171D02*
X10649075Y-17450124D01*
X10649075Y-17450124D02*
X10658599Y-17440600D01*
X10658599Y-17440600D02*
X10677647Y-17431076D01*
X10830028Y-17631076D02*
X10830028Y-17497743D01*
X10830028Y-17516790D02*
X10839551Y-17507266D01*
X10839551Y-17507266D02*
X10858599Y-17497743D01*
X10858599Y-17497743D02*
X10887171Y-17497743D01*
X10887171Y-17497743D02*
X10906218Y-17507266D01*
X10906218Y-17507266D02*
X10915742Y-17526314D01*
X10915742Y-17526314D02*
X10915742Y-17631076D01*
X10915742Y-17526314D02*
X10925266Y-17507266D01*
X10925266Y-17507266D02*
X10944313Y-17497743D01*
X10944313Y-17497743D02*
X10972885Y-17497743D01*
X10972885Y-17497743D02*
X10991932Y-17507266D01*
X10991932Y-17507266D02*
X11001456Y-17526314D01*
X11001456Y-17526314D02*
X11001456Y-17631076D01*
X11096694Y-17631076D02*
X11096694Y-17497743D01*
X11096694Y-17516790D02*
X11106218Y-17507266D01*
X11106218Y-17507266D02*
X11125266Y-17497743D01*
X11125266Y-17497743D02*
X11153837Y-17497743D01*
X11153837Y-17497743D02*
X11172885Y-17507266D01*
X11172885Y-17507266D02*
X11182409Y-17526314D01*
X11182409Y-17526314D02*
X11182409Y-17631076D01*
X11182409Y-17526314D02*
X11191932Y-17507266D01*
X11191932Y-17507266D02*
X11210980Y-17497743D01*
X11210980Y-17497743D02*
X11239551Y-17497743D01*
X11239551Y-17497743D02*
X11258599Y-17507266D01*
X11258599Y-17507266D02*
X11268123Y-17526314D01*
X11268123Y-17526314D02*
X11268123Y-17631076D01*
X11658599Y-17421552D02*
X11487171Y-17678695D01*
X11915742Y-17431076D02*
X11934790Y-17431076D01*
X11934790Y-17431076D02*
X11953837Y-17440600D01*
X11953837Y-17440600D02*
X11963361Y-17450124D01*
X11963361Y-17450124D02*
X11972885Y-17469171D01*
X11972885Y-17469171D02*
X11982409Y-17507266D01*
X11982409Y-17507266D02*
X11982409Y-17554886D01*
X11982409Y-17554886D02*
X11972885Y-17592981D01*
X11972885Y-17592981D02*
X11963361Y-17612028D01*
X11963361Y-17612028D02*
X11953837Y-17621552D01*
X11953837Y-17621552D02*
X11934790Y-17631076D01*
X11934790Y-17631076D02*
X11915742Y-17631076D01*
X11915742Y-17631076D02*
X11896694Y-17621552D01*
X11896694Y-17621552D02*
X11887171Y-17612028D01*
X11887171Y-17612028D02*
X11877647Y-17592981D01*
X11877647Y-17592981D02*
X11868123Y-17554886D01*
X11868123Y-17554886D02*
X11868123Y-17507266D01*
X11868123Y-17507266D02*
X11877647Y-17469171D01*
X11877647Y-17469171D02*
X11887171Y-17450124D01*
X11887171Y-17450124D02*
X11896694Y-17440600D01*
X11896694Y-17440600D02*
X11915742Y-17431076D01*
X12068123Y-17612028D02*
X12077647Y-17621552D01*
X12077647Y-17621552D02*
X12068123Y-17631076D01*
X12068123Y-17631076D02*
X12058599Y-17621552D01*
X12058599Y-17621552D02*
X12068123Y-17612028D01*
X12068123Y-17612028D02*
X12068123Y-17631076D01*
X12201456Y-17431076D02*
X12220504Y-17431076D01*
X12220504Y-17431076D02*
X12239552Y-17440600D01*
X12239552Y-17440600D02*
X12249075Y-17450124D01*
X12249075Y-17450124D02*
X12258599Y-17469171D01*
X12258599Y-17469171D02*
X12268123Y-17507266D01*
X12268123Y-17507266D02*
X12268123Y-17554886D01*
X12268123Y-17554886D02*
X12258599Y-17592981D01*
X12258599Y-17592981D02*
X12249075Y-17612028D01*
X12249075Y-17612028D02*
X12239552Y-17621552D01*
X12239552Y-17621552D02*
X12220504Y-17631076D01*
X12220504Y-17631076D02*
X12201456Y-17631076D01*
X12201456Y-17631076D02*
X12182409Y-17621552D01*
X12182409Y-17621552D02*
X12172885Y-17612028D01*
X12172885Y-17612028D02*
X12163361Y-17592981D01*
X12163361Y-17592981D02*
X12153837Y-17554886D01*
X12153837Y-17554886D02*
X12153837Y-17507266D01*
X12153837Y-17507266D02*
X12163361Y-17469171D01*
X12163361Y-17469171D02*
X12172885Y-17450124D01*
X12172885Y-17450124D02*
X12182409Y-17440600D01*
X12182409Y-17440600D02*
X12201456Y-17431076D01*
X12439552Y-17431076D02*
X12401456Y-17431076D01*
X12401456Y-17431076D02*
X12382409Y-17440600D01*
X12382409Y-17440600D02*
X12372885Y-17450124D01*
X12372885Y-17450124D02*
X12353837Y-17478695D01*
X12353837Y-17478695D02*
X12344313Y-17516790D01*
X12344313Y-17516790D02*
X12344313Y-17592981D01*
X12344313Y-17592981D02*
X12353837Y-17612028D01*
X12353837Y-17612028D02*
X12363361Y-17621552D01*
X12363361Y-17621552D02*
X12382409Y-17631076D01*
X12382409Y-17631076D02*
X12420504Y-17631076D01*
X12420504Y-17631076D02*
X12439552Y-17621552D01*
X12439552Y-17621552D02*
X12449075Y-17612028D01*
X12449075Y-17612028D02*
X12458599Y-17592981D01*
X12458599Y-17592981D02*
X12458599Y-17545362D01*
X12458599Y-17545362D02*
X12449075Y-17526314D01*
X12449075Y-17526314D02*
X12439552Y-17516790D01*
X12439552Y-17516790D02*
X12420504Y-17507266D01*
X12420504Y-17507266D02*
X12382409Y-17507266D01*
X12382409Y-17507266D02*
X12363361Y-17516790D01*
X12363361Y-17516790D02*
X12353837Y-17526314D01*
X12353837Y-17526314D02*
X12344313Y-17545362D01*
X12525266Y-17431076D02*
X12649075Y-17431076D01*
X12649075Y-17431076D02*
X12582409Y-17507266D01*
X12582409Y-17507266D02*
X12610980Y-17507266D01*
X12610980Y-17507266D02*
X12630028Y-17516790D01*
X12630028Y-17516790D02*
X12639552Y-17526314D01*
X12639552Y-17526314D02*
X12649075Y-17545362D01*
X12649075Y-17545362D02*
X12649075Y-17592981D01*
X12649075Y-17592981D02*
X12639552Y-17612028D01*
X12639552Y-17612028D02*
X12630028Y-17621552D01*
X12630028Y-17621552D02*
X12610980Y-17631076D01*
X12610980Y-17631076D02*
X12553837Y-17631076D01*
X12553837Y-17631076D02*
X12534790Y-17621552D01*
X12534790Y-17621552D02*
X12525266Y-17612028D01*
X12772885Y-17431076D02*
X12791933Y-17431076D01*
X12791933Y-17431076D02*
X12810980Y-17440600D01*
X12810980Y-17440600D02*
X12820504Y-17450124D01*
X12820504Y-17450124D02*
X12830028Y-17469171D01*
X12830028Y-17469171D02*
X12839552Y-17507266D01*
X12839552Y-17507266D02*
X12839552Y-17554886D01*
X12839552Y-17554886D02*
X12830028Y-17592981D01*
X12830028Y-17592981D02*
X12820504Y-17612028D01*
X12820504Y-17612028D02*
X12810980Y-17621552D01*
X12810980Y-17621552D02*
X12791933Y-17631076D01*
X12791933Y-17631076D02*
X12772885Y-17631076D01*
X12772885Y-17631076D02*
X12753837Y-17621552D01*
X12753837Y-17621552D02*
X12744313Y-17612028D01*
X12744313Y-17612028D02*
X12734790Y-17592981D01*
X12734790Y-17592981D02*
X12725266Y-17554886D01*
X12725266Y-17554886D02*
X12725266Y-17507266D01*
X12725266Y-17507266D02*
X12734790Y-17469171D01*
X12734790Y-17469171D02*
X12744313Y-17450124D01*
X12744313Y-17450124D02*
X12753837Y-17440600D01*
X12753837Y-17440600D02*
X12772885Y-17431076D01*
X12915742Y-17431076D02*
X12915742Y-17469171D01*
X12991933Y-17431076D02*
X12991933Y-17469171D01*
X13287171Y-17707266D02*
X13277647Y-17697743D01*
X13277647Y-17697743D02*
X13258599Y-17669171D01*
X13258599Y-17669171D02*
X13249075Y-17650124D01*
X13249075Y-17650124D02*
X13239552Y-17621552D01*
X13239552Y-17621552D02*
X13230028Y-17573933D01*
X13230028Y-17573933D02*
X13230028Y-17535838D01*
X13230028Y-17535838D02*
X13239552Y-17488219D01*
X13239552Y-17488219D02*
X13249075Y-17459647D01*
X13249075Y-17459647D02*
X13258599Y-17440600D01*
X13258599Y-17440600D02*
X13277647Y-17412028D01*
X13277647Y-17412028D02*
X13287171Y-17402505D01*
X13458599Y-17431076D02*
X13363361Y-17431076D01*
X13363361Y-17431076D02*
X13353837Y-17526314D01*
X13353837Y-17526314D02*
X13363361Y-17516790D01*
X13363361Y-17516790D02*
X13382409Y-17507266D01*
X13382409Y-17507266D02*
X13430028Y-17507266D01*
X13430028Y-17507266D02*
X13449075Y-17516790D01*
X13449075Y-17516790D02*
X13458599Y-17526314D01*
X13458599Y-17526314D02*
X13468123Y-17545362D01*
X13468123Y-17545362D02*
X13468123Y-17592981D01*
X13468123Y-17592981D02*
X13458599Y-17612028D01*
X13458599Y-17612028D02*
X13449075Y-17621552D01*
X13449075Y-17621552D02*
X13430028Y-17631076D01*
X13430028Y-17631076D02*
X13382409Y-17631076D01*
X13382409Y-17631076D02*
X13363361Y-17621552D01*
X13363361Y-17621552D02*
X13353837Y-17612028D01*
X13706218Y-17631076D02*
X13706218Y-17431076D01*
X13791933Y-17631076D02*
X13791933Y-17526314D01*
X13791933Y-17526314D02*
X13782409Y-17507266D01*
X13782409Y-17507266D02*
X13763361Y-17497743D01*
X13763361Y-17497743D02*
X13734790Y-17497743D01*
X13734790Y-17497743D02*
X13715742Y-17507266D01*
X13715742Y-17507266D02*
X13706218Y-17516790D01*
X13915742Y-17631076D02*
X13896695Y-17621552D01*
X13896695Y-17621552D02*
X13887171Y-17612028D01*
X13887171Y-17612028D02*
X13877647Y-17592981D01*
X13877647Y-17592981D02*
X13877647Y-17535838D01*
X13877647Y-17535838D02*
X13887171Y-17516790D01*
X13887171Y-17516790D02*
X13896695Y-17507266D01*
X13896695Y-17507266D02*
X13915742Y-17497743D01*
X13915742Y-17497743D02*
X13944314Y-17497743D01*
X13944314Y-17497743D02*
X13963361Y-17507266D01*
X13963361Y-17507266D02*
X13972885Y-17516790D01*
X13972885Y-17516790D02*
X13982409Y-17535838D01*
X13982409Y-17535838D02*
X13982409Y-17592981D01*
X13982409Y-17592981D02*
X13972885Y-17612028D01*
X13972885Y-17612028D02*
X13963361Y-17621552D01*
X13963361Y-17621552D02*
X13944314Y-17631076D01*
X13944314Y-17631076D02*
X13915742Y-17631076D01*
X14096695Y-17631076D02*
X14077647Y-17621552D01*
X14077647Y-17621552D02*
X14068123Y-17602505D01*
X14068123Y-17602505D02*
X14068123Y-17431076D01*
X14249076Y-17621552D02*
X14230028Y-17631076D01*
X14230028Y-17631076D02*
X14191933Y-17631076D01*
X14191933Y-17631076D02*
X14172885Y-17621552D01*
X14172885Y-17621552D02*
X14163361Y-17602505D01*
X14163361Y-17602505D02*
X14163361Y-17526314D01*
X14163361Y-17526314D02*
X14172885Y-17507266D01*
X14172885Y-17507266D02*
X14191933Y-17497743D01*
X14191933Y-17497743D02*
X14230028Y-17497743D01*
X14230028Y-17497743D02*
X14249076Y-17507266D01*
X14249076Y-17507266D02*
X14258599Y-17526314D01*
X14258599Y-17526314D02*
X14258599Y-17545362D01*
X14258599Y-17545362D02*
X14163361Y-17564409D01*
X14334790Y-17621552D02*
X14353837Y-17631076D01*
X14353837Y-17631076D02*
X14391933Y-17631076D01*
X14391933Y-17631076D02*
X14410980Y-17621552D01*
X14410980Y-17621552D02*
X14420504Y-17602505D01*
X14420504Y-17602505D02*
X14420504Y-17592981D01*
X14420504Y-17592981D02*
X14410980Y-17573933D01*
X14410980Y-17573933D02*
X14391933Y-17564409D01*
X14391933Y-17564409D02*
X14363361Y-17564409D01*
X14363361Y-17564409D02*
X14344314Y-17554886D01*
X14344314Y-17554886D02*
X14334790Y-17535838D01*
X14334790Y-17535838D02*
X14334790Y-17526314D01*
X14334790Y-17526314D02*
X14344314Y-17507266D01*
X14344314Y-17507266D02*
X14363361Y-17497743D01*
X14363361Y-17497743D02*
X14391933Y-17497743D01*
X14391933Y-17497743D02*
X14410980Y-17507266D01*
X14487171Y-17707266D02*
X14496695Y-17697743D01*
X14496695Y-17697743D02*
X14515742Y-17669171D01*
X14515742Y-17669171D02*
X14525266Y-17650124D01*
X14525266Y-17650124D02*
X14534790Y-17621552D01*
X14534790Y-17621552D02*
X14544314Y-17573933D01*
X14544314Y-17573933D02*
X14544314Y-17535838D01*
X14544314Y-17535838D02*
X14534790Y-17488219D01*
X14534790Y-17488219D02*
X14525266Y-17459647D01*
X14525266Y-17459647D02*
X14515742Y-17440600D01*
X14515742Y-17440600D02*
X14496695Y-17412028D01*
X14496695Y-17412028D02*
X14487171Y-17402505D01*
X9512108Y-17719592D02*
X9712108Y-17919592D01*
X9712108Y-17719592D02*
X9512108Y-17919592D01*
X9612108Y-17719592D02*
X9612108Y-17919592D01*
X9512108Y-17819592D02*
X9712108Y-17819592D01*
X9963361Y-17730123D02*
X9972885Y-17720600D01*
X9972885Y-17720600D02*
X9991932Y-17711076D01*
X9991932Y-17711076D02*
X10039551Y-17711076D01*
X10039551Y-17711076D02*
X10058599Y-17720600D01*
X10058599Y-17720600D02*
X10068123Y-17730123D01*
X10068123Y-17730123D02*
X10077647Y-17749171D01*
X10077647Y-17749171D02*
X10077647Y-17768219D01*
X10077647Y-17768219D02*
X10068123Y-17796790D01*
X10068123Y-17796790D02*
X9953837Y-17911076D01*
X9953837Y-17911076D02*
X10077647Y-17911076D01*
X10163361Y-17892028D02*
X10172885Y-17901552D01*
X10172885Y-17901552D02*
X10163361Y-17911076D01*
X10163361Y-17911076D02*
X10153837Y-17901552D01*
X10153837Y-17901552D02*
X10163361Y-17892028D01*
X10163361Y-17892028D02*
X10163361Y-17911076D01*
X10344313Y-17777742D02*
X10344313Y-17911076D01*
X10296694Y-17701552D02*
X10249075Y-17844409D01*
X10249075Y-17844409D02*
X10372885Y-17844409D01*
X10487170Y-17711076D02*
X10506218Y-17711076D01*
X10506218Y-17711076D02*
X10525266Y-17720600D01*
X10525266Y-17720600D02*
X10534790Y-17730123D01*
X10534790Y-17730123D02*
X10544313Y-17749171D01*
X10544313Y-17749171D02*
X10553837Y-17787266D01*
X10553837Y-17787266D02*
X10553837Y-17834885D01*
X10553837Y-17834885D02*
X10544313Y-17872980D01*
X10544313Y-17872980D02*
X10534790Y-17892028D01*
X10534790Y-17892028D02*
X10525266Y-17901552D01*
X10525266Y-17901552D02*
X10506218Y-17911076D01*
X10506218Y-17911076D02*
X10487170Y-17911076D01*
X10487170Y-17911076D02*
X10468123Y-17901552D01*
X10468123Y-17901552D02*
X10458599Y-17892028D01*
X10458599Y-17892028D02*
X10449075Y-17872980D01*
X10449075Y-17872980D02*
X10439551Y-17834885D01*
X10439551Y-17834885D02*
X10439551Y-17787266D01*
X10439551Y-17787266D02*
X10449075Y-17749171D01*
X10449075Y-17749171D02*
X10458599Y-17730123D01*
X10458599Y-17730123D02*
X10468123Y-17720600D01*
X10468123Y-17720600D02*
X10487170Y-17711076D01*
X10677647Y-17711076D02*
X10696694Y-17711076D01*
X10696694Y-17711076D02*
X10715742Y-17720600D01*
X10715742Y-17720600D02*
X10725266Y-17730123D01*
X10725266Y-17730123D02*
X10734790Y-17749171D01*
X10734790Y-17749171D02*
X10744313Y-17787266D01*
X10744313Y-17787266D02*
X10744313Y-17834885D01*
X10744313Y-17834885D02*
X10734790Y-17872980D01*
X10734790Y-17872980D02*
X10725266Y-17892028D01*
X10725266Y-17892028D02*
X10715742Y-17901552D01*
X10715742Y-17901552D02*
X10696694Y-17911076D01*
X10696694Y-17911076D02*
X10677647Y-17911076D01*
X10677647Y-17911076D02*
X10658599Y-17901552D01*
X10658599Y-17901552D02*
X10649075Y-17892028D01*
X10649075Y-17892028D02*
X10639551Y-17872980D01*
X10639551Y-17872980D02*
X10630028Y-17834885D01*
X10630028Y-17834885D02*
X10630028Y-17787266D01*
X10630028Y-17787266D02*
X10639551Y-17749171D01*
X10639551Y-17749171D02*
X10649075Y-17730123D01*
X10649075Y-17730123D02*
X10658599Y-17720600D01*
X10658599Y-17720600D02*
X10677647Y-17711076D01*
X10830028Y-17911076D02*
X10830028Y-17777742D01*
X10830028Y-17796790D02*
X10839551Y-17787266D01*
X10839551Y-17787266D02*
X10858599Y-17777742D01*
X10858599Y-17777742D02*
X10887171Y-17777742D01*
X10887171Y-17777742D02*
X10906218Y-17787266D01*
X10906218Y-17787266D02*
X10915742Y-17806314D01*
X10915742Y-17806314D02*
X10915742Y-17911076D01*
X10915742Y-17806314D02*
X10925266Y-17787266D01*
X10925266Y-17787266D02*
X10944313Y-17777742D01*
X10944313Y-17777742D02*
X10972885Y-17777742D01*
X10972885Y-17777742D02*
X10991932Y-17787266D01*
X10991932Y-17787266D02*
X11001456Y-17806314D01*
X11001456Y-17806314D02*
X11001456Y-17911076D01*
X11096694Y-17911076D02*
X11096694Y-17777742D01*
X11096694Y-17796790D02*
X11106218Y-17787266D01*
X11106218Y-17787266D02*
X11125266Y-17777742D01*
X11125266Y-17777742D02*
X11153837Y-17777742D01*
X11153837Y-17777742D02*
X11172885Y-17787266D01*
X11172885Y-17787266D02*
X11182409Y-17806314D01*
X11182409Y-17806314D02*
X11182409Y-17911076D01*
X11182409Y-17806314D02*
X11191932Y-17787266D01*
X11191932Y-17787266D02*
X11210980Y-17777742D01*
X11210980Y-17777742D02*
X11239551Y-17777742D01*
X11239551Y-17777742D02*
X11258599Y-17787266D01*
X11258599Y-17787266D02*
X11268123Y-17806314D01*
X11268123Y-17806314D02*
X11268123Y-17911076D01*
X11658599Y-17701552D02*
X11487171Y-17958695D01*
X11915742Y-17711076D02*
X11934790Y-17711076D01*
X11934790Y-17711076D02*
X11953837Y-17720600D01*
X11953837Y-17720600D02*
X11963361Y-17730123D01*
X11963361Y-17730123D02*
X11972885Y-17749171D01*
X11972885Y-17749171D02*
X11982409Y-17787266D01*
X11982409Y-17787266D02*
X11982409Y-17834885D01*
X11982409Y-17834885D02*
X11972885Y-17872980D01*
X11972885Y-17872980D02*
X11963361Y-17892028D01*
X11963361Y-17892028D02*
X11953837Y-17901552D01*
X11953837Y-17901552D02*
X11934790Y-17911076D01*
X11934790Y-17911076D02*
X11915742Y-17911076D01*
X11915742Y-17911076D02*
X11896694Y-17901552D01*
X11896694Y-17901552D02*
X11887171Y-17892028D01*
X11887171Y-17892028D02*
X11877647Y-17872980D01*
X11877647Y-17872980D02*
X11868123Y-17834885D01*
X11868123Y-17834885D02*
X11868123Y-17787266D01*
X11868123Y-17787266D02*
X11877647Y-17749171D01*
X11877647Y-17749171D02*
X11887171Y-17730123D01*
X11887171Y-17730123D02*
X11896694Y-17720600D01*
X11896694Y-17720600D02*
X11915742Y-17711076D01*
X12068123Y-17892028D02*
X12077647Y-17901552D01*
X12077647Y-17901552D02*
X12068123Y-17911076D01*
X12068123Y-17911076D02*
X12058599Y-17901552D01*
X12058599Y-17901552D02*
X12068123Y-17892028D01*
X12068123Y-17892028D02*
X12068123Y-17911076D01*
X12201456Y-17711076D02*
X12220504Y-17711076D01*
X12220504Y-17711076D02*
X12239552Y-17720600D01*
X12239552Y-17720600D02*
X12249075Y-17730123D01*
X12249075Y-17730123D02*
X12258599Y-17749171D01*
X12258599Y-17749171D02*
X12268123Y-17787266D01*
X12268123Y-17787266D02*
X12268123Y-17834885D01*
X12268123Y-17834885D02*
X12258599Y-17872980D01*
X12258599Y-17872980D02*
X12249075Y-17892028D01*
X12249075Y-17892028D02*
X12239552Y-17901552D01*
X12239552Y-17901552D02*
X12220504Y-17911076D01*
X12220504Y-17911076D02*
X12201456Y-17911076D01*
X12201456Y-17911076D02*
X12182409Y-17901552D01*
X12182409Y-17901552D02*
X12172885Y-17892028D01*
X12172885Y-17892028D02*
X12163361Y-17872980D01*
X12163361Y-17872980D02*
X12153837Y-17834885D01*
X12153837Y-17834885D02*
X12153837Y-17787266D01*
X12153837Y-17787266D02*
X12163361Y-17749171D01*
X12163361Y-17749171D02*
X12172885Y-17730123D01*
X12172885Y-17730123D02*
X12182409Y-17720600D01*
X12182409Y-17720600D02*
X12201456Y-17711076D01*
X12363361Y-17911076D02*
X12401456Y-17911076D01*
X12401456Y-17911076D02*
X12420504Y-17901552D01*
X12420504Y-17901552D02*
X12430028Y-17892028D01*
X12430028Y-17892028D02*
X12449075Y-17863457D01*
X12449075Y-17863457D02*
X12458599Y-17825361D01*
X12458599Y-17825361D02*
X12458599Y-17749171D01*
X12458599Y-17749171D02*
X12449075Y-17730123D01*
X12449075Y-17730123D02*
X12439552Y-17720600D01*
X12439552Y-17720600D02*
X12420504Y-17711076D01*
X12420504Y-17711076D02*
X12382409Y-17711076D01*
X12382409Y-17711076D02*
X12363361Y-17720600D01*
X12363361Y-17720600D02*
X12353837Y-17730123D01*
X12353837Y-17730123D02*
X12344313Y-17749171D01*
X12344313Y-17749171D02*
X12344313Y-17796790D01*
X12344313Y-17796790D02*
X12353837Y-17815838D01*
X12353837Y-17815838D02*
X12363361Y-17825361D01*
X12363361Y-17825361D02*
X12382409Y-17834885D01*
X12382409Y-17834885D02*
X12420504Y-17834885D01*
X12420504Y-17834885D02*
X12439552Y-17825361D01*
X12439552Y-17825361D02*
X12449075Y-17815838D01*
X12449075Y-17815838D02*
X12458599Y-17796790D01*
X12630028Y-17777742D02*
X12630028Y-17911076D01*
X12582409Y-17701552D02*
X12534790Y-17844409D01*
X12534790Y-17844409D02*
X12658599Y-17844409D01*
X12830028Y-17711076D02*
X12734790Y-17711076D01*
X12734790Y-17711076D02*
X12725266Y-17806314D01*
X12725266Y-17806314D02*
X12734790Y-17796790D01*
X12734790Y-17796790D02*
X12753837Y-17787266D01*
X12753837Y-17787266D02*
X12801456Y-17787266D01*
X12801456Y-17787266D02*
X12820504Y-17796790D01*
X12820504Y-17796790D02*
X12830028Y-17806314D01*
X12830028Y-17806314D02*
X12839552Y-17825361D01*
X12839552Y-17825361D02*
X12839552Y-17872980D01*
X12839552Y-17872980D02*
X12830028Y-17892028D01*
X12830028Y-17892028D02*
X12820504Y-17901552D01*
X12820504Y-17901552D02*
X12801456Y-17911076D01*
X12801456Y-17911076D02*
X12753837Y-17911076D01*
X12753837Y-17911076D02*
X12734790Y-17901552D01*
X12734790Y-17901552D02*
X12725266Y-17892028D01*
X12915742Y-17711076D02*
X12915742Y-17749171D01*
X12991933Y-17711076D02*
X12991933Y-17749171D01*
X13287171Y-17987266D02*
X13277647Y-17977742D01*
X13277647Y-17977742D02*
X13258599Y-17949171D01*
X13258599Y-17949171D02*
X13249075Y-17930123D01*
X13249075Y-17930123D02*
X13239552Y-17901552D01*
X13239552Y-17901552D02*
X13230028Y-17853933D01*
X13230028Y-17853933D02*
X13230028Y-17815838D01*
X13230028Y-17815838D02*
X13239552Y-17768219D01*
X13239552Y-17768219D02*
X13249075Y-17739647D01*
X13249075Y-17739647D02*
X13258599Y-17720600D01*
X13258599Y-17720600D02*
X13277647Y-17692028D01*
X13277647Y-17692028D02*
X13287171Y-17682504D01*
X13401456Y-17711076D02*
X13420504Y-17711076D01*
X13420504Y-17711076D02*
X13439552Y-17720600D01*
X13439552Y-17720600D02*
X13449075Y-17730123D01*
X13449075Y-17730123D02*
X13458599Y-17749171D01*
X13458599Y-17749171D02*
X13468123Y-17787266D01*
X13468123Y-17787266D02*
X13468123Y-17834885D01*
X13468123Y-17834885D02*
X13458599Y-17872980D01*
X13458599Y-17872980D02*
X13449075Y-17892028D01*
X13449075Y-17892028D02*
X13439552Y-17901552D01*
X13439552Y-17901552D02*
X13420504Y-17911076D01*
X13420504Y-17911076D02*
X13401456Y-17911076D01*
X13401456Y-17911076D02*
X13382409Y-17901552D01*
X13382409Y-17901552D02*
X13372885Y-17892028D01*
X13372885Y-17892028D02*
X13363361Y-17872980D01*
X13363361Y-17872980D02*
X13353837Y-17834885D01*
X13353837Y-17834885D02*
X13353837Y-17787266D01*
X13353837Y-17787266D02*
X13363361Y-17749171D01*
X13363361Y-17749171D02*
X13372885Y-17730123D01*
X13372885Y-17730123D02*
X13382409Y-17720600D01*
X13382409Y-17720600D02*
X13401456Y-17711076D01*
X13706218Y-17911076D02*
X13706218Y-17711076D01*
X13791933Y-17911076D02*
X13791933Y-17806314D01*
X13791933Y-17806314D02*
X13782409Y-17787266D01*
X13782409Y-17787266D02*
X13763361Y-17777742D01*
X13763361Y-17777742D02*
X13734790Y-17777742D01*
X13734790Y-17777742D02*
X13715742Y-17787266D01*
X13715742Y-17787266D02*
X13706218Y-17796790D01*
X13915742Y-17911076D02*
X13896695Y-17901552D01*
X13896695Y-17901552D02*
X13887171Y-17892028D01*
X13887171Y-17892028D02*
X13877647Y-17872980D01*
X13877647Y-17872980D02*
X13877647Y-17815838D01*
X13877647Y-17815838D02*
X13887171Y-17796790D01*
X13887171Y-17796790D02*
X13896695Y-17787266D01*
X13896695Y-17787266D02*
X13915742Y-17777742D01*
X13915742Y-17777742D02*
X13944314Y-17777742D01*
X13944314Y-17777742D02*
X13963361Y-17787266D01*
X13963361Y-17787266D02*
X13972885Y-17796790D01*
X13972885Y-17796790D02*
X13982409Y-17815838D01*
X13982409Y-17815838D02*
X13982409Y-17872980D01*
X13982409Y-17872980D02*
X13972885Y-17892028D01*
X13972885Y-17892028D02*
X13963361Y-17901552D01*
X13963361Y-17901552D02*
X13944314Y-17911076D01*
X13944314Y-17911076D02*
X13915742Y-17911076D01*
X14096695Y-17911076D02*
X14077647Y-17901552D01*
X14077647Y-17901552D02*
X14068123Y-17882504D01*
X14068123Y-17882504D02*
X14068123Y-17711076D01*
X14249076Y-17901552D02*
X14230028Y-17911076D01*
X14230028Y-17911076D02*
X14191933Y-17911076D01*
X14191933Y-17911076D02*
X14172885Y-17901552D01*
X14172885Y-17901552D02*
X14163361Y-17882504D01*
X14163361Y-17882504D02*
X14163361Y-17806314D01*
X14163361Y-17806314D02*
X14172885Y-17787266D01*
X14172885Y-17787266D02*
X14191933Y-17777742D01*
X14191933Y-17777742D02*
X14230028Y-17777742D01*
X14230028Y-17777742D02*
X14249076Y-17787266D01*
X14249076Y-17787266D02*
X14258599Y-17806314D01*
X14258599Y-17806314D02*
X14258599Y-17825361D01*
X14258599Y-17825361D02*
X14163361Y-17844409D01*
X14334790Y-17901552D02*
X14353837Y-17911076D01*
X14353837Y-17911076D02*
X14391933Y-17911076D01*
X14391933Y-17911076D02*
X14410980Y-17901552D01*
X14410980Y-17901552D02*
X14420504Y-17882504D01*
X14420504Y-17882504D02*
X14420504Y-17872980D01*
X14420504Y-17872980D02*
X14410980Y-17853933D01*
X14410980Y-17853933D02*
X14391933Y-17844409D01*
X14391933Y-17844409D02*
X14363361Y-17844409D01*
X14363361Y-17844409D02*
X14344314Y-17834885D01*
X14344314Y-17834885D02*
X14334790Y-17815838D01*
X14334790Y-17815838D02*
X14334790Y-17806314D01*
X14334790Y-17806314D02*
X14344314Y-17787266D01*
X14344314Y-17787266D02*
X14363361Y-17777742D01*
X14363361Y-17777742D02*
X14391933Y-17777742D01*
X14391933Y-17777742D02*
X14410980Y-17787266D01*
X14658599Y-17834885D02*
X14810980Y-17834885D01*
X14734790Y-17911076D02*
X14734790Y-17758695D01*
X15049076Y-17730123D02*
X15058599Y-17720600D01*
X15058599Y-17720600D02*
X15077647Y-17711076D01*
X15077647Y-17711076D02*
X15125266Y-17711076D01*
X15125266Y-17711076D02*
X15144314Y-17720600D01*
X15144314Y-17720600D02*
X15153838Y-17730123D01*
X15153838Y-17730123D02*
X15163361Y-17749171D01*
X15163361Y-17749171D02*
X15163361Y-17768219D01*
X15163361Y-17768219D02*
X15153838Y-17796790D01*
X15153838Y-17796790D02*
X15039552Y-17911076D01*
X15039552Y-17911076D02*
X15163361Y-17911076D01*
X15391933Y-17901552D02*
X15410980Y-17911076D01*
X15410980Y-17911076D02*
X15449076Y-17911076D01*
X15449076Y-17911076D02*
X15468123Y-17901552D01*
X15468123Y-17901552D02*
X15477647Y-17882504D01*
X15477647Y-17882504D02*
X15477647Y-17872980D01*
X15477647Y-17872980D02*
X15468123Y-17853933D01*
X15468123Y-17853933D02*
X15449076Y-17844409D01*
X15449076Y-17844409D02*
X15420504Y-17844409D01*
X15420504Y-17844409D02*
X15401457Y-17834885D01*
X15401457Y-17834885D02*
X15391933Y-17815838D01*
X15391933Y-17815838D02*
X15391933Y-17806314D01*
X15391933Y-17806314D02*
X15401457Y-17787266D01*
X15401457Y-17787266D02*
X15420504Y-17777742D01*
X15420504Y-17777742D02*
X15449076Y-17777742D01*
X15449076Y-17777742D02*
X15468123Y-17787266D01*
X15591933Y-17911076D02*
X15572885Y-17901552D01*
X15572885Y-17901552D02*
X15563361Y-17882504D01*
X15563361Y-17882504D02*
X15563361Y-17711076D01*
X15696695Y-17911076D02*
X15677647Y-17901552D01*
X15677647Y-17901552D02*
X15668123Y-17892028D01*
X15668123Y-17892028D02*
X15658600Y-17872980D01*
X15658600Y-17872980D02*
X15658600Y-17815838D01*
X15658600Y-17815838D02*
X15668123Y-17796790D01*
X15668123Y-17796790D02*
X15677647Y-17787266D01*
X15677647Y-17787266D02*
X15696695Y-17777742D01*
X15696695Y-17777742D02*
X15725266Y-17777742D01*
X15725266Y-17777742D02*
X15744314Y-17787266D01*
X15744314Y-17787266D02*
X15753838Y-17796790D01*
X15753838Y-17796790D02*
X15763361Y-17815838D01*
X15763361Y-17815838D02*
X15763361Y-17872980D01*
X15763361Y-17872980D02*
X15753838Y-17892028D01*
X15753838Y-17892028D02*
X15744314Y-17901552D01*
X15744314Y-17901552D02*
X15725266Y-17911076D01*
X15725266Y-17911076D02*
X15696695Y-17911076D01*
X15820504Y-17777742D02*
X15896695Y-17777742D01*
X15849076Y-17711076D02*
X15849076Y-17882504D01*
X15849076Y-17882504D02*
X15858600Y-17901552D01*
X15858600Y-17901552D02*
X15877647Y-17911076D01*
X15877647Y-17911076D02*
X15896695Y-17911076D01*
X15953838Y-17901552D02*
X15972885Y-17911076D01*
X15972885Y-17911076D02*
X16010980Y-17911076D01*
X16010980Y-17911076D02*
X16030028Y-17901552D01*
X16030028Y-17901552D02*
X16039552Y-17882504D01*
X16039552Y-17882504D02*
X16039552Y-17872980D01*
X16039552Y-17872980D02*
X16030028Y-17853933D01*
X16030028Y-17853933D02*
X16010980Y-17844409D01*
X16010980Y-17844409D02*
X15982409Y-17844409D01*
X15982409Y-17844409D02*
X15963361Y-17834885D01*
X15963361Y-17834885D02*
X15953838Y-17815838D01*
X15953838Y-17815838D02*
X15953838Y-17806314D01*
X15953838Y-17806314D02*
X15963361Y-17787266D01*
X15963361Y-17787266D02*
X15982409Y-17777742D01*
X15982409Y-17777742D02*
X16010980Y-17777742D01*
X16010980Y-17777742D02*
X16030028Y-17787266D01*
X16106219Y-17987266D02*
X16115742Y-17977742D01*
X16115742Y-17977742D02*
X16134790Y-17949171D01*
X16134790Y-17949171D02*
X16144314Y-17930123D01*
X16144314Y-17930123D02*
X16153838Y-17901552D01*
X16153838Y-17901552D02*
X16163361Y-17853933D01*
X16163361Y-17853933D02*
X16163361Y-17815838D01*
X16163361Y-17815838D02*
X16153838Y-17768219D01*
X16153838Y-17768219D02*
X16144314Y-17739647D01*
X16144314Y-17739647D02*
X16134790Y-17720600D01*
X16134790Y-17720600D02*
X16115742Y-17692028D01*
X16115742Y-17692028D02*
X16106219Y-17682504D01*
X9512108Y-18039592D02*
X9712108Y-18239592D01*
X9712108Y-18039592D02*
X9512108Y-18239592D01*
X9682819Y-18210303D02*
X9682819Y-18068881D01*
X9541397Y-18068881D01*
X9541397Y-18210303D01*
X9682819Y-18210303D01*
X9963361Y-18050123D02*
X9972885Y-18040600D01*
X9972885Y-18040600D02*
X9991932Y-18031076D01*
X9991932Y-18031076D02*
X10039551Y-18031076D01*
X10039551Y-18031076D02*
X10058599Y-18040600D01*
X10058599Y-18040600D02*
X10068123Y-18050123D01*
X10068123Y-18050123D02*
X10077647Y-18069171D01*
X10077647Y-18069171D02*
X10077647Y-18088219D01*
X10077647Y-18088219D02*
X10068123Y-18116790D01*
X10068123Y-18116790D02*
X9953837Y-18231076D01*
X9953837Y-18231076D02*
X10077647Y-18231076D01*
X10163361Y-18212028D02*
X10172885Y-18221552D01*
X10172885Y-18221552D02*
X10163361Y-18231076D01*
X10163361Y-18231076D02*
X10153837Y-18221552D01*
X10153837Y-18221552D02*
X10163361Y-18212028D01*
X10163361Y-18212028D02*
X10163361Y-18231076D01*
X10239551Y-18031076D02*
X10372885Y-18031076D01*
X10372885Y-18031076D02*
X10287170Y-18231076D01*
X10487170Y-18031076D02*
X10506218Y-18031076D01*
X10506218Y-18031076D02*
X10525266Y-18040600D01*
X10525266Y-18040600D02*
X10534790Y-18050123D01*
X10534790Y-18050123D02*
X10544313Y-18069171D01*
X10544313Y-18069171D02*
X10553837Y-18107266D01*
X10553837Y-18107266D02*
X10553837Y-18154885D01*
X10553837Y-18154885D02*
X10544313Y-18192980D01*
X10544313Y-18192980D02*
X10534790Y-18212028D01*
X10534790Y-18212028D02*
X10525266Y-18221552D01*
X10525266Y-18221552D02*
X10506218Y-18231076D01*
X10506218Y-18231076D02*
X10487170Y-18231076D01*
X10487170Y-18231076D02*
X10468123Y-18221552D01*
X10468123Y-18221552D02*
X10458599Y-18212028D01*
X10458599Y-18212028D02*
X10449075Y-18192980D01*
X10449075Y-18192980D02*
X10439551Y-18154885D01*
X10439551Y-18154885D02*
X10439551Y-18107266D01*
X10439551Y-18107266D02*
X10449075Y-18069171D01*
X10449075Y-18069171D02*
X10458599Y-18050123D01*
X10458599Y-18050123D02*
X10468123Y-18040600D01*
X10468123Y-18040600D02*
X10487170Y-18031076D01*
X10677647Y-18031076D02*
X10696694Y-18031076D01*
X10696694Y-18031076D02*
X10715742Y-18040600D01*
X10715742Y-18040600D02*
X10725266Y-18050123D01*
X10725266Y-18050123D02*
X10734790Y-18069171D01*
X10734790Y-18069171D02*
X10744313Y-18107266D01*
X10744313Y-18107266D02*
X10744313Y-18154885D01*
X10744313Y-18154885D02*
X10734790Y-18192980D01*
X10734790Y-18192980D02*
X10725266Y-18212028D01*
X10725266Y-18212028D02*
X10715742Y-18221552D01*
X10715742Y-18221552D02*
X10696694Y-18231076D01*
X10696694Y-18231076D02*
X10677647Y-18231076D01*
X10677647Y-18231076D02*
X10658599Y-18221552D01*
X10658599Y-18221552D02*
X10649075Y-18212028D01*
X10649075Y-18212028D02*
X10639551Y-18192980D01*
X10639551Y-18192980D02*
X10630028Y-18154885D01*
X10630028Y-18154885D02*
X10630028Y-18107266D01*
X10630028Y-18107266D02*
X10639551Y-18069171D01*
X10639551Y-18069171D02*
X10649075Y-18050123D01*
X10649075Y-18050123D02*
X10658599Y-18040600D01*
X10658599Y-18040600D02*
X10677647Y-18031076D01*
X10830028Y-18231076D02*
X10830028Y-18097742D01*
X10830028Y-18116790D02*
X10839551Y-18107266D01*
X10839551Y-18107266D02*
X10858599Y-18097742D01*
X10858599Y-18097742D02*
X10887171Y-18097742D01*
X10887171Y-18097742D02*
X10906218Y-18107266D01*
X10906218Y-18107266D02*
X10915742Y-18126314D01*
X10915742Y-18126314D02*
X10915742Y-18231076D01*
X10915742Y-18126314D02*
X10925266Y-18107266D01*
X10925266Y-18107266D02*
X10944313Y-18097742D01*
X10944313Y-18097742D02*
X10972885Y-18097742D01*
X10972885Y-18097742D02*
X10991932Y-18107266D01*
X10991932Y-18107266D02*
X11001456Y-18126314D01*
X11001456Y-18126314D02*
X11001456Y-18231076D01*
X11096694Y-18231076D02*
X11096694Y-18097742D01*
X11096694Y-18116790D02*
X11106218Y-18107266D01*
X11106218Y-18107266D02*
X11125266Y-18097742D01*
X11125266Y-18097742D02*
X11153837Y-18097742D01*
X11153837Y-18097742D02*
X11172885Y-18107266D01*
X11172885Y-18107266D02*
X11182409Y-18126314D01*
X11182409Y-18126314D02*
X11182409Y-18231076D01*
X11182409Y-18126314D02*
X11191932Y-18107266D01*
X11191932Y-18107266D02*
X11210980Y-18097742D01*
X11210980Y-18097742D02*
X11239551Y-18097742D01*
X11239551Y-18097742D02*
X11258599Y-18107266D01*
X11258599Y-18107266D02*
X11268123Y-18126314D01*
X11268123Y-18126314D02*
X11268123Y-18231076D01*
X11658599Y-18021552D02*
X11487171Y-18278695D01*
X11915742Y-18031076D02*
X11934790Y-18031076D01*
X11934790Y-18031076D02*
X11953837Y-18040600D01*
X11953837Y-18040600D02*
X11963361Y-18050123D01*
X11963361Y-18050123D02*
X11972885Y-18069171D01*
X11972885Y-18069171D02*
X11982409Y-18107266D01*
X11982409Y-18107266D02*
X11982409Y-18154885D01*
X11982409Y-18154885D02*
X11972885Y-18192980D01*
X11972885Y-18192980D02*
X11963361Y-18212028D01*
X11963361Y-18212028D02*
X11953837Y-18221552D01*
X11953837Y-18221552D02*
X11934790Y-18231076D01*
X11934790Y-18231076D02*
X11915742Y-18231076D01*
X11915742Y-18231076D02*
X11896694Y-18221552D01*
X11896694Y-18221552D02*
X11887171Y-18212028D01*
X11887171Y-18212028D02*
X11877647Y-18192980D01*
X11877647Y-18192980D02*
X11868123Y-18154885D01*
X11868123Y-18154885D02*
X11868123Y-18107266D01*
X11868123Y-18107266D02*
X11877647Y-18069171D01*
X11877647Y-18069171D02*
X11887171Y-18050123D01*
X11887171Y-18050123D02*
X11896694Y-18040600D01*
X11896694Y-18040600D02*
X11915742Y-18031076D01*
X12068123Y-18212028D02*
X12077647Y-18221552D01*
X12077647Y-18221552D02*
X12068123Y-18231076D01*
X12068123Y-18231076D02*
X12058599Y-18221552D01*
X12058599Y-18221552D02*
X12068123Y-18212028D01*
X12068123Y-18212028D02*
X12068123Y-18231076D01*
X12268123Y-18231076D02*
X12153837Y-18231076D01*
X12210980Y-18231076D02*
X12210980Y-18031076D01*
X12210980Y-18031076D02*
X12191932Y-18059647D01*
X12191932Y-18059647D02*
X12172885Y-18078695D01*
X12172885Y-18078695D02*
X12153837Y-18088219D01*
X12391932Y-18031076D02*
X12410980Y-18031076D01*
X12410980Y-18031076D02*
X12430028Y-18040600D01*
X12430028Y-18040600D02*
X12439552Y-18050123D01*
X12439552Y-18050123D02*
X12449075Y-18069171D01*
X12449075Y-18069171D02*
X12458599Y-18107266D01*
X12458599Y-18107266D02*
X12458599Y-18154885D01*
X12458599Y-18154885D02*
X12449075Y-18192980D01*
X12449075Y-18192980D02*
X12439552Y-18212028D01*
X12439552Y-18212028D02*
X12430028Y-18221552D01*
X12430028Y-18221552D02*
X12410980Y-18231076D01*
X12410980Y-18231076D02*
X12391932Y-18231076D01*
X12391932Y-18231076D02*
X12372885Y-18221552D01*
X12372885Y-18221552D02*
X12363361Y-18212028D01*
X12363361Y-18212028D02*
X12353837Y-18192980D01*
X12353837Y-18192980D02*
X12344313Y-18154885D01*
X12344313Y-18154885D02*
X12344313Y-18107266D01*
X12344313Y-18107266D02*
X12353837Y-18069171D01*
X12353837Y-18069171D02*
X12363361Y-18050123D01*
X12363361Y-18050123D02*
X12372885Y-18040600D01*
X12372885Y-18040600D02*
X12391932Y-18031076D01*
X12630028Y-18031076D02*
X12591932Y-18031076D01*
X12591932Y-18031076D02*
X12572885Y-18040600D01*
X12572885Y-18040600D02*
X12563361Y-18050123D01*
X12563361Y-18050123D02*
X12544313Y-18078695D01*
X12544313Y-18078695D02*
X12534790Y-18116790D01*
X12534790Y-18116790D02*
X12534790Y-18192980D01*
X12534790Y-18192980D02*
X12544313Y-18212028D01*
X12544313Y-18212028D02*
X12553837Y-18221552D01*
X12553837Y-18221552D02*
X12572885Y-18231076D01*
X12572885Y-18231076D02*
X12610980Y-18231076D01*
X12610980Y-18231076D02*
X12630028Y-18221552D01*
X12630028Y-18221552D02*
X12639552Y-18212028D01*
X12639552Y-18212028D02*
X12649075Y-18192980D01*
X12649075Y-18192980D02*
X12649075Y-18145361D01*
X12649075Y-18145361D02*
X12639552Y-18126314D01*
X12639552Y-18126314D02*
X12630028Y-18116790D01*
X12630028Y-18116790D02*
X12610980Y-18107266D01*
X12610980Y-18107266D02*
X12572885Y-18107266D01*
X12572885Y-18107266D02*
X12553837Y-18116790D01*
X12553837Y-18116790D02*
X12544313Y-18126314D01*
X12544313Y-18126314D02*
X12534790Y-18145361D01*
X12715742Y-18031076D02*
X12839552Y-18031076D01*
X12839552Y-18031076D02*
X12772885Y-18107266D01*
X12772885Y-18107266D02*
X12801456Y-18107266D01*
X12801456Y-18107266D02*
X12820504Y-18116790D01*
X12820504Y-18116790D02*
X12830028Y-18126314D01*
X12830028Y-18126314D02*
X12839552Y-18145361D01*
X12839552Y-18145361D02*
X12839552Y-18192980D01*
X12839552Y-18192980D02*
X12830028Y-18212028D01*
X12830028Y-18212028D02*
X12820504Y-18221552D01*
X12820504Y-18221552D02*
X12801456Y-18231076D01*
X12801456Y-18231076D02*
X12744313Y-18231076D01*
X12744313Y-18231076D02*
X12725266Y-18221552D01*
X12725266Y-18221552D02*
X12715742Y-18212028D01*
X12915742Y-18031076D02*
X12915742Y-18069171D01*
X12991933Y-18031076D02*
X12991933Y-18069171D01*
X13287171Y-18307266D02*
X13277647Y-18297742D01*
X13277647Y-18297742D02*
X13258599Y-18269171D01*
X13258599Y-18269171D02*
X13249075Y-18250123D01*
X13249075Y-18250123D02*
X13239552Y-18221552D01*
X13239552Y-18221552D02*
X13230028Y-18173933D01*
X13230028Y-18173933D02*
X13230028Y-18135838D01*
X13230028Y-18135838D02*
X13239552Y-18088219D01*
X13239552Y-18088219D02*
X13249075Y-18059647D01*
X13249075Y-18059647D02*
X13258599Y-18040600D01*
X13258599Y-18040600D02*
X13277647Y-18012028D01*
X13277647Y-18012028D02*
X13287171Y-18002504D01*
X13449075Y-18097742D02*
X13449075Y-18231076D01*
X13401456Y-18021552D02*
X13353837Y-18164409D01*
X13353837Y-18164409D02*
X13477647Y-18164409D01*
X13706218Y-18231076D02*
X13706218Y-18031076D01*
X13791933Y-18231076D02*
X13791933Y-18126314D01*
X13791933Y-18126314D02*
X13782409Y-18107266D01*
X13782409Y-18107266D02*
X13763361Y-18097742D01*
X13763361Y-18097742D02*
X13734790Y-18097742D01*
X13734790Y-18097742D02*
X13715742Y-18107266D01*
X13715742Y-18107266D02*
X13706218Y-18116790D01*
X13915742Y-18231076D02*
X13896695Y-18221552D01*
X13896695Y-18221552D02*
X13887171Y-18212028D01*
X13887171Y-18212028D02*
X13877647Y-18192980D01*
X13877647Y-18192980D02*
X13877647Y-18135838D01*
X13877647Y-18135838D02*
X13887171Y-18116790D01*
X13887171Y-18116790D02*
X13896695Y-18107266D01*
X13896695Y-18107266D02*
X13915742Y-18097742D01*
X13915742Y-18097742D02*
X13944314Y-18097742D01*
X13944314Y-18097742D02*
X13963361Y-18107266D01*
X13963361Y-18107266D02*
X13972885Y-18116790D01*
X13972885Y-18116790D02*
X13982409Y-18135838D01*
X13982409Y-18135838D02*
X13982409Y-18192980D01*
X13982409Y-18192980D02*
X13972885Y-18212028D01*
X13972885Y-18212028D02*
X13963361Y-18221552D01*
X13963361Y-18221552D02*
X13944314Y-18231076D01*
X13944314Y-18231076D02*
X13915742Y-18231076D01*
X14096695Y-18231076D02*
X14077647Y-18221552D01*
X14077647Y-18221552D02*
X14068123Y-18202504D01*
X14068123Y-18202504D02*
X14068123Y-18031076D01*
X14249076Y-18221552D02*
X14230028Y-18231076D01*
X14230028Y-18231076D02*
X14191933Y-18231076D01*
X14191933Y-18231076D02*
X14172885Y-18221552D01*
X14172885Y-18221552D02*
X14163361Y-18202504D01*
X14163361Y-18202504D02*
X14163361Y-18126314D01*
X14163361Y-18126314D02*
X14172885Y-18107266D01*
X14172885Y-18107266D02*
X14191933Y-18097742D01*
X14191933Y-18097742D02*
X14230028Y-18097742D01*
X14230028Y-18097742D02*
X14249076Y-18107266D01*
X14249076Y-18107266D02*
X14258599Y-18126314D01*
X14258599Y-18126314D02*
X14258599Y-18145361D01*
X14258599Y-18145361D02*
X14163361Y-18164409D01*
X14334790Y-18221552D02*
X14353837Y-18231076D01*
X14353837Y-18231076D02*
X14391933Y-18231076D01*
X14391933Y-18231076D02*
X14410980Y-18221552D01*
X14410980Y-18221552D02*
X14420504Y-18202504D01*
X14420504Y-18202504D02*
X14420504Y-18192980D01*
X14420504Y-18192980D02*
X14410980Y-18173933D01*
X14410980Y-18173933D02*
X14391933Y-18164409D01*
X14391933Y-18164409D02*
X14363361Y-18164409D01*
X14363361Y-18164409D02*
X14344314Y-18154885D01*
X14344314Y-18154885D02*
X14334790Y-18135838D01*
X14334790Y-18135838D02*
X14334790Y-18126314D01*
X14334790Y-18126314D02*
X14344314Y-18107266D01*
X14344314Y-18107266D02*
X14363361Y-18097742D01*
X14363361Y-18097742D02*
X14391933Y-18097742D01*
X14391933Y-18097742D02*
X14410980Y-18107266D01*
X14487171Y-18307266D02*
X14496695Y-18297742D01*
X14496695Y-18297742D02*
X14515742Y-18269171D01*
X14515742Y-18269171D02*
X14525266Y-18250123D01*
X14525266Y-18250123D02*
X14534790Y-18221552D01*
X14534790Y-18221552D02*
X14544314Y-18173933D01*
X14544314Y-18173933D02*
X14544314Y-18135838D01*
X14544314Y-18135838D02*
X14534790Y-18088219D01*
X14534790Y-18088219D02*
X14525266Y-18059647D01*
X14525266Y-18059647D02*
X14515742Y-18040600D01*
X14515742Y-18040600D02*
X14496695Y-18012028D01*
X14496695Y-18012028D02*
X14487171Y-18002504D01*
M02*
