G04 #@! TF.GenerationSoftware,KiCad,Pcbnew,7.0.9*
G04 #@! TF.CreationDate,2024-10-07T21:11:22-04:00*
G04 #@! TF.ProjectId,T12 soldering station,54313220-736f-46c6-9465-72696e672073,rev?*
G04 #@! TF.SameCoordinates,Original*
G04 #@! TF.FileFunction,Soldermask,Top*
G04 #@! TF.FilePolarity,Negative*
%FSLAX46Y46*%
G04 Gerber Fmt 4.6, Leading zero omitted, Abs format (unit mm)*
G04 Created by KiCad (PCBNEW 7.0.9) date 2024-10-07 21:11:22*
%MOMM*%
%LPD*%
G01*
G04 APERTURE LIST*
G04 Aperture macros list*
%AMRoundRect*
0 Rectangle with rounded corners*
0 $1 Rounding radius*
0 $2 $3 $4 $5 $6 $7 $8 $9 X,Y pos of 4 corners*
0 Add a 4 corners polygon primitive as box body*
4,1,4,$2,$3,$4,$5,$6,$7,$8,$9,$2,$3,0*
0 Add four circle primitives for the rounded corners*
1,1,$1+$1,$2,$3*
1,1,$1+$1,$4,$5*
1,1,$1+$1,$6,$7*
1,1,$1+$1,$8,$9*
0 Add four rect primitives between the rounded corners*
20,1,$1+$1,$2,$3,$4,$5,0*
20,1,$1+$1,$4,$5,$6,$7,0*
20,1,$1+$1,$6,$7,$8,$9,0*
20,1,$1+$1,$8,$9,$2,$3,0*%
G04 Aperture macros list end*
%ADD10R,2.500000X1.400000*%
%ADD11RoundRect,0.225000X-0.225000X-0.250000X0.225000X-0.250000X0.225000X0.250000X-0.225000X0.250000X0*%
%ADD12RoundRect,0.200000X0.200000X0.275000X-0.200000X0.275000X-0.200000X-0.275000X0.200000X-0.275000X0*%
%ADD13RoundRect,0.250000X-1.000000X-0.650000X1.000000X-0.650000X1.000000X0.650000X-1.000000X0.650000X0*%
%ADD14RoundRect,0.225000X-0.375000X0.225000X-0.375000X-0.225000X0.375000X-0.225000X0.375000X0.225000X0*%
%ADD15R,4.500000X1.650000*%
%ADD16RoundRect,0.250000X-1.100000X0.325000X-1.100000X-0.325000X1.100000X-0.325000X1.100000X0.325000X0*%
%ADD17RoundRect,0.225000X0.225000X0.250000X-0.225000X0.250000X-0.225000X-0.250000X0.225000X-0.250000X0*%
%ADD18C,3.100000*%
%ADD19C,5.400000*%
%ADD20RoundRect,0.200000X-0.200000X-0.275000X0.200000X-0.275000X0.200000X0.275000X-0.200000X0.275000X0*%
%ADD21RoundRect,0.150000X-0.512500X-0.150000X0.512500X-0.150000X0.512500X0.150000X-0.512500X0.150000X0*%
%ADD22RoundRect,0.250000X-0.650000X0.325000X-0.650000X-0.325000X0.650000X-0.325000X0.650000X0.325000X0*%
%ADD23RoundRect,0.200000X0.275000X-0.200000X0.275000X0.200000X-0.275000X0.200000X-0.275000X-0.200000X0*%
%ADD24RoundRect,0.225000X0.250000X-0.225000X0.250000X0.225000X-0.250000X0.225000X-0.250000X-0.225000X0*%
%ADD25RoundRect,0.150000X-0.825000X-0.150000X0.825000X-0.150000X0.825000X0.150000X-0.825000X0.150000X0*%
%ADD26RoundRect,0.225000X-0.250000X0.225000X-0.250000X-0.225000X0.250000X-0.225000X0.250000X0.225000X0*%
%ADD27C,1.500000*%
%ADD28R,3.600000X2.700000*%
%ADD29RoundRect,0.225000X0.225000X0.375000X-0.225000X0.375000X-0.225000X-0.375000X0.225000X-0.375000X0*%
%ADD30RoundRect,0.250000X-0.850000X-0.350000X0.850000X-0.350000X0.850000X0.350000X-0.850000X0.350000X0*%
%ADD31RoundRect,0.249997X-2.950003X-2.650003X2.950003X-2.650003X2.950003X2.650003X-2.950003X2.650003X0*%
%ADD32C,2.000000*%
%ADD33RoundRect,0.150000X0.150000X-0.587500X0.150000X0.587500X-0.150000X0.587500X-0.150000X-0.587500X0*%
%ADD34RoundRect,0.250000X-0.325000X-0.650000X0.325000X-0.650000X0.325000X0.650000X-0.325000X0.650000X0*%
%ADD35RoundRect,0.250000X1.100000X-0.325000X1.100000X0.325000X-1.100000X0.325000X-1.100000X-0.325000X0*%
%ADD36RoundRect,0.200000X-0.275000X0.200000X-0.275000X-0.200000X0.275000X-0.200000X0.275000X0.200000X0*%
%ADD37R,2.800000X1.500000*%
%ADD38R,6.500000X6.000000*%
%ADD39R,2.800000X1.350000*%
%ADD40R,1.500000X0.550000*%
%ADD41R,0.550000X1.500000*%
%ADD42R,3.500000X1.649000*%
%ADD43RoundRect,0.150000X-0.587500X-0.150000X0.587500X-0.150000X0.587500X0.150000X-0.587500X0.150000X0*%
%ADD44RoundRect,0.225000X0.375000X-0.225000X0.375000X0.225000X-0.375000X0.225000X-0.375000X-0.225000X0*%
%ADD45R,2.740000X2.160000*%
%ADD46R,3.300000X2.700000*%
%ADD47R,2.400000X1.900000*%
%ADD48RoundRect,0.250000X-0.625000X0.312500X-0.625000X-0.312500X0.625000X-0.312500X0.625000X0.312500X0*%
%ADD49O,3.200000X3.500000*%
%ADD50C,2.500000*%
%ADD51C,2.100000*%
G04 APERTURE END LIST*
D10*
X148590000Y-122529600D03*
X152146000Y-122529600D03*
X148590000Y-119126000D03*
D11*
X141478000Y-150215600D03*
X143028000Y-150215600D03*
D12*
X140374000Y-116256800D03*
X138724000Y-116256800D03*
D13*
X127643000Y-120827800D03*
X131643000Y-120827800D03*
D14*
X117398800Y-125705600D03*
X117398800Y-129005600D03*
D15*
X127385200Y-136652000D03*
X118385200Y-136652000D03*
D16*
X131927600Y-139012400D03*
X131927600Y-141962400D03*
D17*
X129794000Y-104140000D03*
X128244000Y-104140000D03*
D18*
X174142400Y-103581200D03*
D19*
X174142400Y-103581200D03*
D20*
X134303000Y-104648000D03*
X135953000Y-104648000D03*
D21*
X140055600Y-144779600D03*
X140055600Y-145729600D03*
X140055600Y-146679600D03*
X142330600Y-146679600D03*
X142330600Y-145729600D03*
X142330600Y-144779600D03*
D17*
X174134000Y-143377000D03*
X172584000Y-143377000D03*
D12*
X140372600Y-114706400D03*
X138722600Y-114706400D03*
D11*
X156959000Y-137632000D03*
X158509000Y-137632000D03*
D22*
X120269000Y-118794000D03*
X120269000Y-121744000D03*
D23*
X139750800Y-110908600D03*
X139750800Y-109258600D03*
D12*
X145351000Y-130810000D03*
X143701000Y-130810000D03*
D24*
X131064000Y-129045000D03*
X131064000Y-127495000D03*
D25*
X120842000Y-104140000D03*
X120842000Y-105410000D03*
X120842000Y-106680000D03*
X120842000Y-107950000D03*
X125792000Y-107950000D03*
X125792000Y-106680000D03*
X125792000Y-105410000D03*
X125792000Y-104140000D03*
D18*
X101803200Y-103530400D03*
D19*
X101803200Y-103530400D03*
D26*
X160553400Y-140576000D03*
X160553400Y-142126000D03*
D27*
X167792400Y-150460400D03*
X165252400Y-150480400D03*
X162712400Y-150480400D03*
X160172400Y-150520400D03*
X157612400Y-150420400D03*
X155072400Y-150460400D03*
D20*
X150813000Y-146558000D03*
X152463000Y-146558000D03*
X134303000Y-106235000D03*
X135953000Y-106235000D03*
D16*
X135204200Y-139012400D03*
X135204200Y-141962400D03*
D28*
X142544800Y-142417800D03*
X142544800Y-134117800D03*
D24*
X136296400Y-147409200D03*
X136296400Y-145859200D03*
D12*
X152437600Y-141706600D03*
X150787600Y-141706600D03*
D20*
X138380000Y-150215600D03*
X140030000Y-150215600D03*
D29*
X123391200Y-111861600D03*
X120091200Y-111861600D03*
D11*
X117081000Y-106908600D03*
X118631000Y-106908600D03*
D30*
X120142000Y-123952000D03*
D31*
X126442000Y-126232000D03*
D30*
X120142000Y-128512000D03*
D32*
X110744000Y-130048000D03*
X110744000Y-135048000D03*
D23*
X127508000Y-116776000D03*
X127508000Y-115126000D03*
D11*
X157009800Y-146471200D03*
X158559800Y-146471200D03*
D32*
X110744000Y-119184400D03*
X110744000Y-124184400D03*
D33*
X134863800Y-119908800D03*
X136763800Y-119908800D03*
X135813800Y-118033800D03*
D17*
X174146400Y-141903800D03*
X172596400Y-141903800D03*
D34*
X149324800Y-138226800D03*
X152274800Y-138226800D03*
D17*
X152387600Y-140182600D03*
X150837600Y-140182600D03*
D35*
X133858000Y-147829800D03*
X133858000Y-144879800D03*
D36*
X152552400Y-127863600D03*
X152552400Y-129513600D03*
D37*
X142723000Y-123968000D03*
D38*
X135763000Y-126238000D03*
D39*
X142723000Y-128548000D03*
D24*
X141833600Y-121717400D03*
X141833600Y-120167400D03*
D20*
X143929600Y-146278600D03*
X145579600Y-146278600D03*
D40*
X162389600Y-138519600D03*
X162389600Y-139319600D03*
X162389600Y-140119600D03*
X162389600Y-140919600D03*
X162389600Y-141719600D03*
X162389600Y-142519600D03*
X162389600Y-143319600D03*
X162389600Y-144119600D03*
D41*
X163789600Y-145519600D03*
X164589600Y-145519600D03*
X165389600Y-145519600D03*
X166189600Y-145519600D03*
X166989600Y-145519600D03*
X167789600Y-145519600D03*
X168589600Y-145519600D03*
X169389600Y-145519600D03*
D40*
X170789600Y-144119600D03*
X170789600Y-143319600D03*
X170789600Y-142519600D03*
X170789600Y-141719600D03*
X170789600Y-140919600D03*
X170789600Y-140119600D03*
X170789600Y-139319600D03*
X170789600Y-138519600D03*
D41*
X169389600Y-137119600D03*
X168589600Y-137119600D03*
X167789600Y-137119600D03*
X166989600Y-137119600D03*
X166189600Y-137119600D03*
X165389600Y-137119600D03*
X164589600Y-137119600D03*
X163789600Y-137119600D03*
D42*
X118211600Y-148349900D03*
X118211600Y-144410900D03*
D32*
X110490000Y-108284000D03*
X110490000Y-113284000D03*
D12*
X129857000Y-107315000D03*
X128207000Y-107315000D03*
D18*
X174142400Y-151485600D03*
D19*
X174142400Y-151485600D03*
D36*
X118618000Y-103797600D03*
X118618000Y-105447600D03*
D17*
X118618000Y-109982000D03*
X117068000Y-109982000D03*
D32*
X110744000Y-140970000D03*
X110744000Y-145970000D03*
D23*
X138176000Y-110920800D03*
X138176000Y-109270800D03*
D33*
X138369000Y-119908800D03*
X140269000Y-119908800D03*
X139319000Y-118033800D03*
D12*
X129857000Y-105791000D03*
X128207000Y-105791000D03*
D20*
X117018800Y-108458000D03*
X118668800Y-108458000D03*
D11*
X143992600Y-144780000D03*
X145542600Y-144780000D03*
D20*
X134785600Y-121640600D03*
X136435600Y-121640600D03*
D43*
X123268500Y-115255000D03*
X123268500Y-117155000D03*
X125143500Y-116205000D03*
D44*
X147320000Y-130809000D03*
X147320000Y-127509000D03*
D45*
X129743200Y-147116800D03*
X129743200Y-151536800D03*
D36*
X117094000Y-103797600D03*
X117094000Y-105447600D03*
X149352000Y-129223000D03*
X149352000Y-130873000D03*
D46*
X123901200Y-151391200D03*
X123901200Y-144011200D03*
D18*
X101803200Y-151485600D03*
D19*
X101803200Y-151485600D03*
D36*
X141325600Y-109258600D03*
X141325600Y-110908600D03*
D47*
X157784800Y-144119600D03*
X157784800Y-140019600D03*
D20*
X150787600Y-143230600D03*
X152437600Y-143230600D03*
D48*
X122682000Y-118806500D03*
X122682000Y-121731500D03*
D49*
X171306200Y-122570000D03*
X156506200Y-122570000D03*
D50*
X168986200Y-133070000D03*
X163906200Y-133070000D03*
X158826200Y-133070000D03*
X166446200Y-115570000D03*
X161366200Y-115570000D03*
D51*
X134895600Y-111404400D03*
X132395600Y-111404400D03*
X129895600Y-111404400D03*
X127395600Y-111404400D03*
M02*
