M48
; DRILL file {KiCad 7.0.9} date Mon Oct  7 21:11:48 2024
; FORMAT={-:-/ absolute / metric / decimal}
; #@! TF.CreationDate,2024-10-07T21:11:48-04:00
; #@! TF.GenerationSoftware,Kicad,Pcbnew,7.0.9
; #@! TF.FileFunction,Plated,1,4,PTH
FMAT,2
METRIC
; #@! TA.AperFunction,Plated,PTH,ViaDrill
T1C0.305
; #@! TA.AperFunction,Plated,PTH,ViaDrill
T2C0.400
; #@! TA.AperFunction,Plated,PTH,ViaDrill
T3C0.610
; #@! TA.AperFunction,Plated,PTH,ComponentDrill
T4C1.100
; #@! TA.AperFunction,Plated,PTH,ComponentDrill
T5C1.200
; #@! TA.AperFunction,Plated,PTH,ComponentDrill
T6C1.600
; #@! TA.AperFunction,Plated,PTH,ComponentDrill
T7C2.400
; #@! TA.AperFunction,Plated,PTH,ComponentDrill
T8C2.700
%
G90
G05
T1
X122.337Y-102.484
X122.987Y-102.972
X124.729Y-121.467
X125.039Y-117.856
X125.331Y-122.012
X127.457Y-118.008
X128.256Y-117.86
X133.096Y-103.963
X133.096Y-104.775
X133.49Y-106.703
X134.061Y-107.366
X137.084Y-107.569
X137.897Y-107.569
X139.751Y-111.608
X140.767Y-112.217
X141.193Y-146.318
X141.491Y-149.301
X141.884Y-114.807
X142.399Y-110.795
X143.039Y-110.294
X146.101Y-110.693
X148.641Y-124.308
X149.301Y-132.029
X149.453Y-124.279
X149.809Y-132.664
X150.774Y-147.906
X153.268Y-125.685
X153.365Y-126.492
X154.153Y-130.581
X154.181Y-131.393
X154.559Y-110.693
X155.245Y-106.528
X155.944Y-106.113
X157.581Y-148.542
X158.547Y-148.712
X162.495Y-148.809
X162.958Y-146.002
X163.17Y-146.787
X163.322Y-148.844
X163.647Y-144.262
X163.754Y-139.294
X163.754Y-143.358
X163.814Y-138.484
X164.533Y-143.127
X164.88Y-146.789
X165.185Y-142.42
X165.363Y-143.529
X165.405Y-144.348
X165.887Y-147.244
X166.642Y-139.068
X166.853Y-141.326
X166.954Y-147.218
X167.386Y-139.395
X167.665Y-141.402
X167.79Y-146.877
X168.197Y-138.363
X168.704Y-144.092
X169.016Y-138.367
X169.484Y-139.129
X169.516Y-144.12
X170.282Y-135.382
X170.704Y-136.076
X172.212Y-139.32
X173.05Y-139.421
T2
X141.199Y-118.135
T3
X115.824Y-106.756
X116.078Y-103.798
X116.18Y-138.735
X118.415Y-138.786
X118.669Y-111.1
X120.345Y-152.4
X120.752Y-138.735
X121.666Y-117.155
X122.301Y-108.991
X123.393Y-110.541
X129.857Y-108.547
X130.785Y-104.14
X131.572Y-126.238
X131.775Y-144.78
X131.928Y-143.104
X132.486Y-152.451
X133.579Y-143.485
X133.604Y-124.206
X133.604Y-125.984
X133.604Y-128.016
X135.179Y-143.078
X135.89Y-124.206
X135.89Y-125.984
X135.89Y-128.016
X136.296Y-143.663
X136.296Y-144.678
X137.668Y-145.73
X137.922Y-124.206
X137.922Y-125.984
X137.922Y-128.016
X137.922Y-140.208
X137.973Y-103.429
X138.024Y-141.783
X138.024Y-143.053
X138.125Y-147.117
X138.76Y-145.73
X139.598Y-103.48
X139.852Y-140.233
X139.852Y-141.757
X139.878Y-143.053
X141.478Y-116.332
X141.91Y-140.183
X141.935Y-119.088
X143.015Y-151.282
X145.796Y-127.508
X146.939Y-146.304
X147.569Y-138.587
X149.352Y-128.143
X152.146Y-120.853
X152.451Y-144.272
X152.552Y-130.81
X153.721Y-148.844
X155.804Y-146.355
X156.972Y-136.55
X160.744Y-139.357
X163.716Y-141.72
X172.33Y-140.558
X175.175Y-143.453
X175.276Y-141.929
T4
X127.396Y-111.404
X129.896Y-111.404
X132.396Y-111.404
X134.896Y-111.404
T5
X110.49Y-108.284
X110.49Y-113.284
X110.744Y-119.184
X110.744Y-124.184
X110.744Y-130.048
X110.744Y-135.048
X110.744Y-140.97
X110.744Y-145.97
T6
X158.826Y-133.07
X161.366Y-115.57
X163.906Y-133.07
X166.446Y-115.57
X168.986Y-133.07
T8
X101.803Y-103.53
X101.803Y-151.486
X174.142Y-103.581
X174.142Y-151.486
T7
X156.506Y-122.62G85X156.506Y-122.52
G05
X171.306Y-122.62G85X171.306Y-122.52
G05
T0
M30
