G04 #@! TF.GenerationSoftware,KiCad,Pcbnew,7.0.9*
G04 #@! TF.CreationDate,2024-10-07T21:11:22-04:00*
G04 #@! TF.ProjectId,T12 soldering station,54313220-736f-46c6-9465-72696e672073,rev?*
G04 #@! TF.SameCoordinates,Original*
G04 #@! TF.FileFunction,Copper,L2,Inr*
G04 #@! TF.FilePolarity,Positive*
%FSLAX46Y46*%
G04 Gerber Fmt 4.6, Leading zero omitted, Abs format (unit mm)*
G04 Created by KiCad (PCBNEW 7.0.9) date 2024-10-07 21:11:22*
%MOMM*%
%LPD*%
G01*
G04 APERTURE LIST*
G04 #@! TA.AperFunction,ComponentPad*
%ADD10C,3.100000*%
G04 #@! TD*
G04 #@! TA.AperFunction,ComponentPad*
%ADD11C,2.000000*%
G04 #@! TD*
G04 #@! TA.AperFunction,ComponentPad*
%ADD12O,3.200000X3.500000*%
G04 #@! TD*
G04 #@! TA.AperFunction,ComponentPad*
%ADD13C,2.500000*%
G04 #@! TD*
G04 #@! TA.AperFunction,ComponentPad*
%ADD14C,2.100000*%
G04 #@! TD*
G04 #@! TA.AperFunction,ViaPad*
%ADD15C,0.914400*%
G04 #@! TD*
G04 #@! TA.AperFunction,ViaPad*
%ADD16C,0.609600*%
G04 #@! TD*
G04 #@! TA.AperFunction,ViaPad*
%ADD17C,0.800000*%
G04 #@! TD*
G04 APERTURE END LIST*
D10*
X174142400Y-103581200D03*
X101803200Y-103530400D03*
D11*
X110744000Y-130048000D03*
X110744000Y-135048000D03*
X110744000Y-119184400D03*
X110744000Y-124184400D03*
X110490000Y-108284000D03*
X110490000Y-113284000D03*
D10*
X174142400Y-151485600D03*
D11*
X110744000Y-140970000D03*
X110744000Y-145970000D03*
D10*
X101803200Y-151485600D03*
D12*
X171306200Y-122570000D03*
X156506200Y-122570000D03*
D13*
X168986200Y-133070000D03*
X163906200Y-133070000D03*
X158826200Y-133070000D03*
X166446200Y-115570000D03*
X161366200Y-115570000D03*
D14*
X134895600Y-111404400D03*
X132395600Y-111404400D03*
X129895600Y-111404400D03*
X127395600Y-111404400D03*
D15*
X136296400Y-144678400D03*
D16*
X128255922Y-117860489D03*
D15*
X115824000Y-106756200D03*
X118668800Y-111099600D03*
X155803600Y-146354800D03*
D16*
X162495388Y-148809214D03*
D15*
X152552400Y-130810000D03*
X121666000Y-117155000D03*
X120345200Y-152400000D03*
X175276400Y-141929200D03*
X141478000Y-116332000D03*
D16*
X155943617Y-106113486D03*
D15*
X118414800Y-138785600D03*
X116078000Y-103797600D03*
D17*
X141198600Y-118135400D03*
D15*
X122301000Y-108991400D03*
X138125200Y-147116800D03*
D16*
X149452585Y-124278608D03*
X140766800Y-112216700D03*
X146100800Y-110693200D03*
X173050200Y-139420600D03*
X137084297Y-107569000D03*
D15*
X137972800Y-103428800D03*
X133604000Y-128016000D03*
X153720800Y-148844000D03*
X141935200Y-119088200D03*
X175174800Y-143453200D03*
X129857000Y-108547400D03*
X145796000Y-127508000D03*
X137922000Y-140208000D03*
X156972000Y-136550400D03*
D16*
X149808642Y-132663502D03*
X165362991Y-143528610D03*
D15*
X131927600Y-143103600D03*
X139852400Y-140233400D03*
X133578600Y-143484600D03*
D16*
X154559000Y-110693200D03*
X163813806Y-138483517D03*
X167386000Y-139395200D03*
D15*
X137922000Y-128016000D03*
X131775200Y-144780000D03*
D16*
X153268418Y-125685484D03*
X170703955Y-136075868D03*
D15*
X163716000Y-141719600D03*
X131572000Y-126238000D03*
D16*
X168704283Y-144092415D03*
D15*
X135890000Y-128016000D03*
D16*
X166954200Y-147218400D03*
D15*
X147568938Y-138587462D03*
D16*
X163647102Y-144262098D03*
X143039060Y-110294259D03*
D15*
X136296400Y-143662897D03*
X130784600Y-104140000D03*
X152450800Y-144272000D03*
X123393200Y-110540800D03*
X172330000Y-140557600D03*
D16*
X164532634Y-143126834D03*
D15*
X143015000Y-151282400D03*
D16*
X133096000Y-103962697D03*
X162958423Y-146002228D03*
D15*
X139598400Y-103479600D03*
X152146000Y-120853200D03*
D16*
X167665400Y-141401800D03*
X125331273Y-122011546D03*
D15*
X132486400Y-152450800D03*
D16*
X164879516Y-146789100D03*
D15*
X133604000Y-125984000D03*
X141909800Y-140182600D03*
X146939000Y-146304000D03*
D16*
X157581225Y-148541777D03*
D15*
X116179600Y-138734800D03*
X137922000Y-125984000D03*
X120751600Y-138734800D03*
X160743900Y-139357100D03*
X135890000Y-125984000D03*
X135890000Y-124206000D03*
X133604000Y-124206000D03*
D16*
X168196556Y-138363182D03*
X122336958Y-102484218D03*
D15*
X137922000Y-124206000D03*
X135178800Y-143078200D03*
X149352000Y-128143000D03*
D16*
X134061200Y-107365800D03*
X154180594Y-131393220D03*
D15*
X139877800Y-143052800D03*
X138023600Y-143052800D03*
X137668000Y-145729600D03*
X139852400Y-141757400D03*
X138023600Y-141782800D03*
X138760200Y-145729600D03*
D16*
X125038802Y-117856000D03*
X124728820Y-121466674D03*
X169015864Y-138367404D03*
X149301200Y-132029200D03*
X137896600Y-107569000D03*
X142399300Y-110794800D03*
X167789600Y-146876518D03*
X150774400Y-147906200D03*
X170281600Y-135382000D03*
X141884400Y-114807500D03*
X165887400Y-147243800D03*
X127457200Y-118008400D03*
X172212000Y-139319600D03*
X122986800Y-102971600D03*
X133096000Y-104775000D03*
X169483810Y-139128700D03*
X166642487Y-139068054D03*
X133490075Y-106702941D03*
X158546800Y-148712100D03*
X166852600Y-141325600D03*
X155244800Y-106527600D03*
X139750800Y-111607600D03*
X141192869Y-146318217D03*
X141491000Y-149301200D03*
X163169600Y-146786600D03*
X148640800Y-124307600D03*
X163753800Y-143357600D03*
X165404800Y-144348200D03*
X165185408Y-142419756D03*
X163322000Y-148844000D03*
X169516130Y-144119600D03*
X153365200Y-126492000D03*
X154152600Y-130581400D03*
X163753800Y-139293600D03*
G04 #@! TA.AperFunction,Conductor*
G36*
X177677381Y-99447867D02*
G01*
X177729417Y-99453243D01*
X177825637Y-99463186D01*
X177845871Y-99467413D01*
X177980429Y-99510352D01*
X177999378Y-99518630D01*
X178122311Y-99588176D01*
X178139169Y-99600155D01*
X178245285Y-99693370D01*
X178259335Y-99708541D01*
X178344145Y-99821481D01*
X178354798Y-99839207D01*
X178414723Y-99967105D01*
X178421526Y-99986634D01*
X178454032Y-100124084D01*
X178456697Y-100144593D01*
X178460321Y-100282412D01*
X178460080Y-100288067D01*
X178460083Y-100302040D01*
X178459936Y-100305901D01*
X178457580Y-100336574D01*
X178458763Y-100346409D01*
X178457904Y-100346512D01*
X178460096Y-100360270D01*
X178472820Y-154751542D01*
X178472577Y-154756488D01*
X178458644Y-154897923D01*
X178454797Y-154917265D01*
X178415693Y-155046166D01*
X178408146Y-155064385D01*
X178344650Y-155183177D01*
X178333693Y-155199575D01*
X178248240Y-155303698D01*
X178234296Y-155317642D01*
X178130173Y-155403094D01*
X178113776Y-155414050D01*
X177994984Y-155477546D01*
X177976765Y-155485093D01*
X177847864Y-155524197D01*
X177828523Y-155528044D01*
X177772316Y-155533581D01*
X177687063Y-155541979D01*
X177682147Y-155542221D01*
X98165453Y-155542221D01*
X98160536Y-155541979D01*
X98069454Y-155533007D01*
X98019076Y-155528044D01*
X97999735Y-155524197D01*
X97870834Y-155485093D01*
X97852616Y-155477546D01*
X97733821Y-155414049D01*
X97717423Y-155403092D01*
X97613301Y-155317640D01*
X97599358Y-155303697D01*
X97524899Y-155212970D01*
X97513905Y-155199574D01*
X97502950Y-155183178D01*
X97439453Y-155064383D01*
X97431906Y-155046165D01*
X97416474Y-154995297D01*
X97392801Y-154917261D01*
X97388955Y-154897922D01*
X97377038Y-154776951D01*
X97375020Y-154756464D01*
X97374779Y-154751547D01*
X97374779Y-151485600D01*
X100044583Y-151485600D01*
X100064225Y-151747708D01*
X100122713Y-152003961D01*
X100122714Y-152003964D01*
X100218739Y-152248630D01*
X100218741Y-152248635D01*
X100350158Y-152476257D01*
X100350165Y-152476268D01*
X100514043Y-152681763D01*
X100514048Y-152681769D01*
X100706713Y-152860536D01*
X100706715Y-152860538D01*
X100706720Y-152860542D01*
X100923892Y-153008607D01*
X101160705Y-153122650D01*
X101411871Y-153200125D01*
X101671778Y-153239300D01*
X101934622Y-153239300D01*
X102194529Y-153200125D01*
X102445695Y-153122650D01*
X102682509Y-153008607D01*
X102899680Y-152860542D01*
X103092357Y-152681763D01*
X103256238Y-152476264D01*
X103387659Y-152248635D01*
X103483687Y-152003961D01*
X103542175Y-151747708D01*
X103561817Y-151485600D01*
X172383783Y-151485600D01*
X172403425Y-151747708D01*
X172461913Y-152003961D01*
X172461914Y-152003964D01*
X172557939Y-152248630D01*
X172557941Y-152248635D01*
X172689358Y-152476257D01*
X172689365Y-152476268D01*
X172853243Y-152681763D01*
X172853248Y-152681769D01*
X173045913Y-152860536D01*
X173045915Y-152860538D01*
X173045920Y-152860542D01*
X173263092Y-153008607D01*
X173499905Y-153122650D01*
X173751071Y-153200125D01*
X174010978Y-153239300D01*
X174273822Y-153239300D01*
X174533729Y-153200125D01*
X174784895Y-153122650D01*
X175021709Y-153008607D01*
X175238880Y-152860542D01*
X175431557Y-152681763D01*
X175595438Y-152476264D01*
X175726859Y-152248635D01*
X175822887Y-152003961D01*
X175881375Y-151747708D01*
X175901017Y-151485600D01*
X175881375Y-151223492D01*
X175822887Y-150967239D01*
X175726859Y-150722565D01*
X175595438Y-150494936D01*
X175431557Y-150289437D01*
X175431556Y-150289436D01*
X175431551Y-150289430D01*
X175238886Y-150110663D01*
X175238882Y-150110660D01*
X175238880Y-150110658D01*
X175021709Y-149962593D01*
X175021710Y-149962593D01*
X175021708Y-149962592D01*
X175021706Y-149962591D01*
X174784902Y-149848553D01*
X174784899Y-149848552D01*
X174784895Y-149848550D01*
X174533729Y-149771075D01*
X174533721Y-149771073D01*
X174273822Y-149731900D01*
X174010978Y-149731900D01*
X173751078Y-149771073D01*
X173751070Y-149771075D01*
X173658919Y-149799500D01*
X173499905Y-149848550D01*
X173499901Y-149848551D01*
X173499897Y-149848553D01*
X173263095Y-149962591D01*
X173263092Y-149962592D01*
X173045921Y-150110657D01*
X173045913Y-150110663D01*
X172853248Y-150289430D01*
X172853243Y-150289436D01*
X172689365Y-150494931D01*
X172689358Y-150494942D01*
X172557941Y-150722564D01*
X172557939Y-150722569D01*
X172461914Y-150967235D01*
X172461913Y-150967238D01*
X172461913Y-150967239D01*
X172403425Y-151223492D01*
X172383783Y-151485600D01*
X103561817Y-151485600D01*
X103542175Y-151223492D01*
X103483687Y-150967239D01*
X103387659Y-150722565D01*
X103256238Y-150494936D01*
X103092357Y-150289437D01*
X103092356Y-150289436D01*
X103092351Y-150289430D01*
X102899686Y-150110663D01*
X102899682Y-150110660D01*
X102899680Y-150110658D01*
X102682509Y-149962593D01*
X102682510Y-149962593D01*
X102682508Y-149962592D01*
X102682506Y-149962591D01*
X102445702Y-149848553D01*
X102445699Y-149848552D01*
X102445695Y-149848550D01*
X102194529Y-149771075D01*
X102194521Y-149771073D01*
X101934622Y-149731900D01*
X101671778Y-149731900D01*
X101411878Y-149771073D01*
X101411870Y-149771075D01*
X101319719Y-149799500D01*
X101160705Y-149848550D01*
X101160701Y-149848551D01*
X101160697Y-149848553D01*
X100923895Y-149962591D01*
X100923892Y-149962592D01*
X100706721Y-150110657D01*
X100706713Y-150110663D01*
X100514048Y-150289430D01*
X100514043Y-150289436D01*
X100350165Y-150494931D01*
X100350158Y-150494942D01*
X100218741Y-150722564D01*
X100218739Y-150722569D01*
X100122714Y-150967235D01*
X100122713Y-150967238D01*
X100122713Y-150967239D01*
X100064225Y-151223492D01*
X100044583Y-151485600D01*
X97374779Y-151485600D01*
X97374779Y-149301200D01*
X140977271Y-149301200D01*
X140998080Y-149445933D01*
X141058822Y-149578940D01*
X141058823Y-149578941D01*
X141058824Y-149578943D01*
X141154579Y-149689450D01*
X141277589Y-149768504D01*
X141417889Y-149809700D01*
X141564111Y-149809700D01*
X141704411Y-149768504D01*
X141827421Y-149689450D01*
X141923176Y-149578943D01*
X141983919Y-149445934D01*
X142004729Y-149301200D01*
X141983919Y-149156466D01*
X141923176Y-149023457D01*
X141827421Y-148912950D01*
X141720133Y-148844000D01*
X141704410Y-148833895D01*
X141564111Y-148792700D01*
X141417889Y-148792700D01*
X141277590Y-148833895D01*
X141277589Y-148833895D01*
X141154577Y-148912951D01*
X141058822Y-149023459D01*
X140998080Y-149156466D01*
X140977271Y-149301200D01*
X97374779Y-149301200D01*
X97374779Y-148712100D01*
X158033071Y-148712100D01*
X158053880Y-148856833D01*
X158114622Y-148989840D01*
X158114623Y-148989841D01*
X158114624Y-148989843D01*
X158210379Y-149100350D01*
X158333389Y-149179404D01*
X158473689Y-149220600D01*
X158619911Y-149220600D01*
X158760211Y-149179404D01*
X158883221Y-149100350D01*
X158978976Y-148989843D01*
X159039719Y-148856834D01*
X159041564Y-148844000D01*
X162808271Y-148844000D01*
X162829080Y-148988733D01*
X162889822Y-149121740D01*
X162889823Y-149121741D01*
X162889824Y-149121743D01*
X162985579Y-149232250D01*
X163108589Y-149311304D01*
X163248889Y-149352500D01*
X163395111Y-149352500D01*
X163535411Y-149311304D01*
X163658421Y-149232250D01*
X163754176Y-149121743D01*
X163814919Y-148988734D01*
X163835729Y-148844000D01*
X163814919Y-148699266D01*
X163754177Y-148566259D01*
X163754176Y-148566258D01*
X163754176Y-148566257D01*
X163658421Y-148455750D01*
X163594545Y-148414699D01*
X163535410Y-148376695D01*
X163395111Y-148335500D01*
X163248889Y-148335500D01*
X163108590Y-148376695D01*
X163108589Y-148376695D01*
X162985577Y-148455751D01*
X162889822Y-148566259D01*
X162829080Y-148699266D01*
X162808271Y-148844000D01*
X159041564Y-148844000D01*
X159060529Y-148712100D01*
X159039719Y-148567366D01*
X158978976Y-148434357D01*
X158883221Y-148323850D01*
X158821716Y-148284323D01*
X158760210Y-148244795D01*
X158619911Y-148203600D01*
X158473689Y-148203600D01*
X158333390Y-148244795D01*
X158333389Y-148244795D01*
X158210377Y-148323851D01*
X158114622Y-148434359D01*
X158053880Y-148567366D01*
X158033071Y-148712100D01*
X97374779Y-148712100D01*
X97374779Y-147906200D01*
X150260671Y-147906200D01*
X150281480Y-148050933D01*
X150342222Y-148183940D01*
X150342223Y-148183941D01*
X150342224Y-148183943D01*
X150437979Y-148294450D01*
X150560989Y-148373504D01*
X150701289Y-148414700D01*
X150847511Y-148414700D01*
X150987811Y-148373504D01*
X151110821Y-148294450D01*
X151206576Y-148183943D01*
X151267319Y-148050934D01*
X151288129Y-147906200D01*
X151267319Y-147761466D01*
X151206576Y-147628457D01*
X151110821Y-147517950D01*
X151036208Y-147469999D01*
X150987810Y-147438895D01*
X150847511Y-147397700D01*
X150701289Y-147397700D01*
X150560990Y-147438895D01*
X150560989Y-147438895D01*
X150437977Y-147517951D01*
X150342222Y-147628459D01*
X150281480Y-147761466D01*
X150260671Y-147906200D01*
X97374779Y-147906200D01*
X97374779Y-145970005D01*
X109238859Y-145970005D01*
X109259385Y-146217731D01*
X109320413Y-146458720D01*
X109420269Y-146686371D01*
X109520563Y-146839881D01*
X110181265Y-146179179D01*
X110219946Y-146272562D01*
X110316112Y-146397888D01*
X110441438Y-146494054D01*
X110534818Y-146532733D01*
X109873942Y-147193609D01*
X109873942Y-147193611D01*
X109920763Y-147230052D01*
X110139391Y-147348367D01*
X110139392Y-147348368D01*
X110374510Y-147429083D01*
X110619700Y-147469999D01*
X110619710Y-147470000D01*
X110868290Y-147470000D01*
X110868299Y-147469999D01*
X111113489Y-147429083D01*
X111348607Y-147348368D01*
X111348608Y-147348367D01*
X111567226Y-147230058D01*
X111614056Y-147193609D01*
X110953180Y-146532733D01*
X111046562Y-146494054D01*
X111171888Y-146397888D01*
X111268054Y-146272563D01*
X111306733Y-146179180D01*
X111967434Y-146839881D01*
X112067729Y-146686373D01*
X112167586Y-146458720D01*
X112228614Y-146217731D01*
X112249141Y-145970005D01*
X112249141Y-145969994D01*
X112229222Y-145729603D01*
X137002246Y-145729603D01*
X137021591Y-145888923D01*
X137078504Y-146038991D01*
X137078504Y-146038992D01*
X137121900Y-146101861D01*
X137169676Y-146171077D01*
X137289809Y-146277505D01*
X137431920Y-146352091D01*
X137587752Y-146390500D01*
X137587756Y-146390500D01*
X137748244Y-146390500D01*
X137748248Y-146390500D01*
X137904080Y-146352091D01*
X138046191Y-146277505D01*
X138147390Y-146187851D01*
X138204391Y-146163021D01*
X138265101Y-146176437D01*
X138280810Y-146187851D01*
X138382009Y-146277505D01*
X138524120Y-146352091D01*
X138679952Y-146390500D01*
X138679956Y-146390500D01*
X138840444Y-146390500D01*
X138840448Y-146390500D01*
X138996280Y-146352091D01*
X139060821Y-146318217D01*
X140679140Y-146318217D01*
X140699949Y-146462950D01*
X140760691Y-146595957D01*
X140760692Y-146595958D01*
X140760693Y-146595960D01*
X140856448Y-146706467D01*
X140979458Y-146785521D01*
X141119758Y-146826717D01*
X141265980Y-146826717D01*
X141402605Y-146786600D01*
X162655871Y-146786600D01*
X162676680Y-146931333D01*
X162737422Y-147064340D01*
X162737423Y-147064341D01*
X162737424Y-147064343D01*
X162767512Y-147099066D01*
X162815338Y-147154261D01*
X162833179Y-147174850D01*
X162956189Y-147253904D01*
X163096489Y-147295100D01*
X163242711Y-147295100D01*
X163383011Y-147253904D01*
X163398733Y-147243800D01*
X165373671Y-147243800D01*
X165394480Y-147388533D01*
X165455222Y-147521540D01*
X165455223Y-147521541D01*
X165455224Y-147521543D01*
X165521473Y-147597998D01*
X165547865Y-147628457D01*
X165550979Y-147632050D01*
X165673989Y-147711104D01*
X165814289Y-147752300D01*
X165960511Y-147752300D01*
X166100811Y-147711104D01*
X166223821Y-147632050D01*
X166319576Y-147521543D01*
X166380319Y-147388534D01*
X166401129Y-147243800D01*
X166380319Y-147099066D01*
X166319576Y-146966057D01*
X166241990Y-146876518D01*
X167275871Y-146876518D01*
X167296680Y-147021251D01*
X167357422Y-147154258D01*
X167357423Y-147154259D01*
X167357424Y-147154261D01*
X167453179Y-147264768D01*
X167576189Y-147343822D01*
X167716489Y-147385018D01*
X167862711Y-147385018D01*
X168003011Y-147343822D01*
X168126021Y-147264768D01*
X168221776Y-147154261D01*
X168282519Y-147021252D01*
X168303329Y-146876518D01*
X168282519Y-146731784D01*
X168221776Y-146598775D01*
X168126021Y-146488268D01*
X168064516Y-146448741D01*
X168003010Y-146409213D01*
X167862711Y-146368018D01*
X167716489Y-146368018D01*
X167576190Y-146409213D01*
X167576189Y-146409213D01*
X167453177Y-146488269D01*
X167357422Y-146598777D01*
X167296680Y-146731784D01*
X167275871Y-146876518D01*
X166241990Y-146876518D01*
X166223821Y-146855550D01*
X166116533Y-146786600D01*
X166100810Y-146776495D01*
X165960511Y-146735300D01*
X165814289Y-146735300D01*
X165673990Y-146776495D01*
X165673989Y-146776495D01*
X165550977Y-146855551D01*
X165455222Y-146966059D01*
X165394480Y-147099066D01*
X165373671Y-147243800D01*
X163398733Y-147243800D01*
X163506021Y-147174850D01*
X163601776Y-147064343D01*
X163662519Y-146931334D01*
X163683329Y-146786600D01*
X163662519Y-146641866D01*
X163642840Y-146598775D01*
X163601777Y-146508859D01*
X163601776Y-146508858D01*
X163601776Y-146508857D01*
X163506021Y-146398350D01*
X163389635Y-146323553D01*
X163383010Y-146319295D01*
X163242711Y-146278100D01*
X163096489Y-146278100D01*
X162956190Y-146319295D01*
X162956189Y-146319295D01*
X162833177Y-146398351D01*
X162737422Y-146508859D01*
X162676680Y-146641866D01*
X162655871Y-146786600D01*
X141402605Y-146786600D01*
X141406280Y-146785521D01*
X141529290Y-146706467D01*
X141625045Y-146595960D01*
X141685788Y-146462951D01*
X141706598Y-146318217D01*
X141685788Y-146173483D01*
X141625045Y-146040474D01*
X141529290Y-145929967D01*
X141465425Y-145888923D01*
X141406279Y-145850912D01*
X141265980Y-145809717D01*
X141119758Y-145809717D01*
X140979459Y-145850912D01*
X140979458Y-145850912D01*
X140856446Y-145929968D01*
X140760691Y-146040476D01*
X140699949Y-146173483D01*
X140679140Y-146318217D01*
X139060821Y-146318217D01*
X139138391Y-146277505D01*
X139258524Y-146171077D01*
X139349696Y-146038991D01*
X139406608Y-145888925D01*
X139425954Y-145729600D01*
X139406608Y-145570275D01*
X139349696Y-145420209D01*
X139258524Y-145288123D01*
X139138391Y-145181695D01*
X138996280Y-145107109D01*
X138917268Y-145087634D01*
X138840450Y-145068700D01*
X138840448Y-145068700D01*
X138679952Y-145068700D01*
X138679949Y-145068700D01*
X138564722Y-145097101D01*
X138524120Y-145107109D01*
X138524119Y-145107109D01*
X138524117Y-145107110D01*
X138382009Y-145181694D01*
X138280809Y-145271349D01*
X138223808Y-145296178D01*
X138163099Y-145282762D01*
X138147391Y-145271349D01*
X138046190Y-145181694D01*
X137904082Y-145107110D01*
X137904081Y-145107109D01*
X137904080Y-145107109D01*
X137825068Y-145087634D01*
X137748250Y-145068700D01*
X137748248Y-145068700D01*
X137587752Y-145068700D01*
X137587749Y-145068700D01*
X137472522Y-145097101D01*
X137431920Y-145107109D01*
X137431919Y-145107109D01*
X137431917Y-145107110D01*
X137289812Y-145181693D01*
X137289810Y-145181694D01*
X137289809Y-145181695D01*
X137169676Y-145288123D01*
X137169675Y-145288124D01*
X137078504Y-145420207D01*
X137078504Y-145420208D01*
X137021591Y-145570276D01*
X137002246Y-145729596D01*
X137002246Y-145729603D01*
X112229222Y-145729603D01*
X112228614Y-145722268D01*
X112167586Y-145481279D01*
X112067730Y-145253628D01*
X111967435Y-145100116D01*
X111306733Y-145760818D01*
X111268054Y-145667438D01*
X111171888Y-145542112D01*
X111046562Y-145445946D01*
X110953179Y-145407265D01*
X111614056Y-144746388D01*
X111567236Y-144709947D01*
X111348608Y-144591632D01*
X111348607Y-144591631D01*
X111113489Y-144510916D01*
X110868299Y-144470000D01*
X110619700Y-144470000D01*
X110374510Y-144510916D01*
X110139392Y-144591631D01*
X110139391Y-144591632D01*
X109920771Y-144709942D01*
X109920763Y-144709948D01*
X109873942Y-144746388D01*
X109873942Y-144746389D01*
X110534819Y-145407266D01*
X110441438Y-145445946D01*
X110316112Y-145542112D01*
X110219946Y-145667437D01*
X110181266Y-145760819D01*
X109520563Y-145100117D01*
X109420269Y-145253628D01*
X109320413Y-145481279D01*
X109259385Y-145722268D01*
X109238859Y-145969994D01*
X109238859Y-145970005D01*
X97374779Y-145970005D01*
X97374779Y-144348200D01*
X164891071Y-144348200D01*
X164911880Y-144492933D01*
X164972622Y-144625940D01*
X164972623Y-144625941D01*
X164972624Y-144625943D01*
X165068379Y-144736450D01*
X165191389Y-144815504D01*
X165331689Y-144856700D01*
X165477911Y-144856700D01*
X165618211Y-144815504D01*
X165741221Y-144736450D01*
X165836976Y-144625943D01*
X165897719Y-144492934D01*
X165918529Y-144348200D01*
X165897719Y-144203466D01*
X165859419Y-144119600D01*
X169002401Y-144119600D01*
X169023210Y-144264333D01*
X169083952Y-144397340D01*
X169083953Y-144397341D01*
X169083954Y-144397343D01*
X169179709Y-144507850D01*
X169302719Y-144586904D01*
X169443019Y-144628100D01*
X169589241Y-144628100D01*
X169729541Y-144586904D01*
X169852551Y-144507850D01*
X169948306Y-144397343D01*
X170009049Y-144264334D01*
X170029859Y-144119600D01*
X170009049Y-143974866D01*
X170002237Y-143959950D01*
X169948307Y-143841859D01*
X169948306Y-143841858D01*
X169948306Y-143841857D01*
X169852551Y-143731350D01*
X169765319Y-143675289D01*
X169729540Y-143652295D01*
X169589241Y-143611100D01*
X169443019Y-143611100D01*
X169302720Y-143652295D01*
X169302719Y-143652295D01*
X169179707Y-143731351D01*
X169083952Y-143841859D01*
X169023210Y-143974866D01*
X169002401Y-144119600D01*
X165859419Y-144119600D01*
X165836976Y-144070457D01*
X165741221Y-143959950D01*
X165679716Y-143920423D01*
X165618210Y-143880895D01*
X165477911Y-143839700D01*
X165331689Y-143839700D01*
X165191390Y-143880895D01*
X165191389Y-143880895D01*
X165068377Y-143959951D01*
X164972622Y-144070459D01*
X164911880Y-144203466D01*
X164891071Y-144348200D01*
X97374779Y-144348200D01*
X97374779Y-143052803D01*
X137357846Y-143052803D01*
X137377191Y-143212123D01*
X137434104Y-143362191D01*
X137434104Y-143362192D01*
X137492876Y-143447338D01*
X137525276Y-143494277D01*
X137645409Y-143600705D01*
X137787520Y-143675291D01*
X137943352Y-143713700D01*
X137943356Y-143713700D01*
X138103844Y-143713700D01*
X138103848Y-143713700D01*
X138259680Y-143675291D01*
X138401791Y-143600705D01*
X138521924Y-143494277D01*
X138613096Y-143362191D01*
X138670008Y-143212125D01*
X138677746Y-143148395D01*
X138689354Y-143052803D01*
X138689354Y-143052796D01*
X138670008Y-142893476D01*
X138667575Y-142887060D01*
X138613096Y-142743409D01*
X138521924Y-142611323D01*
X138401791Y-142504895D01*
X138401787Y-142504893D01*
X138401784Y-142504890D01*
X138396780Y-142501436D01*
X138398220Y-142499349D01*
X138362138Y-142462387D01*
X138353154Y-142400865D01*
X138382046Y-142345812D01*
X138397213Y-142334792D01*
X138396780Y-142334164D01*
X138401784Y-142330709D01*
X138401784Y-142330708D01*
X138401791Y-142330705D01*
X138521924Y-142224277D01*
X138613096Y-142092191D01*
X138670008Y-141942125D01*
X138688127Y-141792904D01*
X138689354Y-141782803D01*
X138689354Y-141782796D01*
X138686271Y-141757403D01*
X139186646Y-141757403D01*
X139205991Y-141916723D01*
X139262904Y-142066791D01*
X139262904Y-142066792D01*
X139308404Y-142132710D01*
X139354076Y-142198877D01*
X139474209Y-142305305D01*
X139507330Y-142322688D01*
X139550759Y-142367180D01*
X139559743Y-142428702D01*
X139530849Y-142483754D01*
X139507335Y-142500839D01*
X139499614Y-142504891D01*
X139379475Y-142611324D01*
X139288304Y-142743407D01*
X139288304Y-142743408D01*
X139231391Y-142893476D01*
X139212046Y-143052796D01*
X139212046Y-143052803D01*
X139231391Y-143212123D01*
X139288304Y-143362191D01*
X139288304Y-143362192D01*
X139347076Y-143447338D01*
X139379476Y-143494277D01*
X139499609Y-143600705D01*
X139641720Y-143675291D01*
X139797552Y-143713700D01*
X139797556Y-143713700D01*
X139958044Y-143713700D01*
X139958048Y-143713700D01*
X140113880Y-143675291D01*
X140255991Y-143600705D01*
X140376124Y-143494277D01*
X140467296Y-143362191D01*
X140469037Y-143357600D01*
X163240071Y-143357600D01*
X163260880Y-143502333D01*
X163321622Y-143635340D01*
X163321623Y-143635341D01*
X163321624Y-143635343D01*
X163356239Y-143675291D01*
X163404815Y-143731351D01*
X163417379Y-143745850D01*
X163540389Y-143824904D01*
X163680689Y-143866100D01*
X163826911Y-143866100D01*
X163967211Y-143824904D01*
X164090221Y-143745850D01*
X164185976Y-143635343D01*
X164246719Y-143502334D01*
X164267529Y-143357600D01*
X164246719Y-143212866D01*
X164185976Y-143079857D01*
X164090221Y-142969350D01*
X164026276Y-142928255D01*
X163967210Y-142890295D01*
X163826911Y-142849100D01*
X163680689Y-142849100D01*
X163540390Y-142890295D01*
X163540389Y-142890295D01*
X163417377Y-142969351D01*
X163321622Y-143079859D01*
X163260880Y-143212866D01*
X163240071Y-143357600D01*
X140469037Y-143357600D01*
X140524208Y-143212125D01*
X140531946Y-143148395D01*
X140543554Y-143052803D01*
X140543554Y-143052796D01*
X140524208Y-142893476D01*
X140521775Y-142887060D01*
X140467296Y-142743409D01*
X140376124Y-142611323D01*
X140255991Y-142504895D01*
X140222867Y-142487510D01*
X140179439Y-142443018D01*
X140176042Y-142419756D01*
X164671679Y-142419756D01*
X164692488Y-142564489D01*
X164753230Y-142697496D01*
X164753231Y-142697497D01*
X164753232Y-142697499D01*
X164848987Y-142808006D01*
X164971997Y-142887060D01*
X165112297Y-142928256D01*
X165258519Y-142928256D01*
X165398819Y-142887060D01*
X165521829Y-142808006D01*
X165617584Y-142697499D01*
X165678327Y-142564490D01*
X165699137Y-142419756D01*
X165678327Y-142275022D01*
X165617584Y-142142013D01*
X165521829Y-142031506D01*
X165460324Y-141991979D01*
X165398818Y-141952451D01*
X165258519Y-141911256D01*
X165112297Y-141911256D01*
X164971998Y-141952451D01*
X164971997Y-141952451D01*
X164848985Y-142031507D01*
X164753230Y-142142015D01*
X164692488Y-142275022D01*
X164671679Y-142419756D01*
X140176042Y-142419756D01*
X140170456Y-142381496D01*
X140199350Y-142326444D01*
X140222865Y-142309359D01*
X140230591Y-142305305D01*
X140350724Y-142198877D01*
X140441896Y-142066791D01*
X140498808Y-141916725D01*
X140513843Y-141792904D01*
X140518154Y-141757403D01*
X140518154Y-141757396D01*
X140501892Y-141623475D01*
X140498808Y-141598075D01*
X140441896Y-141448009D01*
X140357404Y-141325600D01*
X166338871Y-141325600D01*
X166359680Y-141470333D01*
X166420422Y-141603340D01*
X166420423Y-141603341D01*
X166420424Y-141603343D01*
X166516179Y-141713850D01*
X166639189Y-141792904D01*
X166779489Y-141834100D01*
X166925711Y-141834100D01*
X167066011Y-141792904D01*
X167189021Y-141713850D01*
X167284776Y-141603343D01*
X167345519Y-141470334D01*
X167366329Y-141325600D01*
X167345519Y-141180866D01*
X167318590Y-141121900D01*
X167284777Y-141047859D01*
X167284776Y-141047858D01*
X167284776Y-141047857D01*
X167189021Y-140937350D01*
X167127516Y-140897823D01*
X167066010Y-140858295D01*
X166925711Y-140817100D01*
X166779489Y-140817100D01*
X166639190Y-140858295D01*
X166639189Y-140858295D01*
X166516177Y-140937351D01*
X166420422Y-141047859D01*
X166359680Y-141180866D01*
X166338871Y-141325600D01*
X140357404Y-141325600D01*
X140350724Y-141315923D01*
X140230591Y-141209495D01*
X140088480Y-141134909D01*
X140009468Y-141115434D01*
X139932650Y-141096500D01*
X139932648Y-141096500D01*
X139772152Y-141096500D01*
X139772149Y-141096500D01*
X139656922Y-141124901D01*
X139616320Y-141134909D01*
X139616319Y-141134909D01*
X139616317Y-141134910D01*
X139474212Y-141209493D01*
X139474210Y-141209494D01*
X139474209Y-141209495D01*
X139354076Y-141315923D01*
X139354075Y-141315924D01*
X139262904Y-141448007D01*
X139262904Y-141448008D01*
X139205991Y-141598076D01*
X139186646Y-141757396D01*
X139186646Y-141757403D01*
X138686271Y-141757403D01*
X138670008Y-141623476D01*
X138662373Y-141603343D01*
X138613096Y-141473409D01*
X138610973Y-141470334D01*
X138567043Y-141406690D01*
X138521924Y-141341323D01*
X138401791Y-141234895D01*
X138259680Y-141160309D01*
X138156628Y-141134909D01*
X138103850Y-141121900D01*
X138103848Y-141121900D01*
X137943352Y-141121900D01*
X137943349Y-141121900D01*
X137828122Y-141150301D01*
X137787520Y-141160309D01*
X137787519Y-141160309D01*
X137787517Y-141160310D01*
X137645412Y-141234893D01*
X137645410Y-141234894D01*
X137645409Y-141234895D01*
X137553947Y-141315923D01*
X137525275Y-141341324D01*
X137434104Y-141473407D01*
X137434104Y-141473408D01*
X137377191Y-141623476D01*
X137357846Y-141782796D01*
X137357846Y-141782803D01*
X137377191Y-141942123D01*
X137434104Y-142092191D01*
X137434104Y-142092192D01*
X137468493Y-142142013D01*
X137525276Y-142224277D01*
X137645409Y-142330705D01*
X137645412Y-142330706D01*
X137645415Y-142330709D01*
X137650420Y-142334164D01*
X137648982Y-142336246D01*
X137685072Y-142373236D01*
X137694041Y-142434760D01*
X137665134Y-142489806D01*
X137649988Y-142500810D01*
X137650420Y-142501436D01*
X137645415Y-142504890D01*
X137525275Y-142611324D01*
X137434104Y-142743407D01*
X137434104Y-142743408D01*
X137377191Y-142893476D01*
X137357846Y-143052796D01*
X137357846Y-143052803D01*
X97374779Y-143052803D01*
X97374779Y-140970000D01*
X109535143Y-140970000D01*
X109555725Y-141192126D01*
X109555726Y-141192129D01*
X109616774Y-141406691D01*
X109616775Y-141406693D01*
X109716206Y-141606376D01*
X109716207Y-141606377D01*
X109716209Y-141606381D01*
X109850644Y-141784402D01*
X110015491Y-141934681D01*
X110015495Y-141934684D01*
X110015501Y-141934689D01*
X110205166Y-142052124D01*
X110413181Y-142132710D01*
X110462948Y-142142013D01*
X110632459Y-142173700D01*
X110632461Y-142173700D01*
X110855540Y-142173700D01*
X110938271Y-142158234D01*
X111074819Y-142132710D01*
X111282834Y-142052124D01*
X111472499Y-141934689D01*
X111637356Y-141784402D01*
X111771791Y-141606381D01*
X111871226Y-141406690D01*
X111932274Y-141192127D01*
X111952857Y-140970000D01*
X111932274Y-140747873D01*
X111871226Y-140533310D01*
X111771791Y-140333619D01*
X111637356Y-140155598D01*
X111637355Y-140155597D01*
X111472508Y-140005318D01*
X111472503Y-140005314D01*
X111472499Y-140005311D01*
X111282834Y-139887876D01*
X111282830Y-139887874D01*
X111074817Y-139807289D01*
X111074812Y-139807288D01*
X110855541Y-139766300D01*
X110855539Y-139766300D01*
X110632461Y-139766300D01*
X110632459Y-139766300D01*
X110413187Y-139807288D01*
X110413182Y-139807289D01*
X110205169Y-139887874D01*
X110205165Y-139887876D01*
X110087730Y-139960588D01*
X110015501Y-140005311D01*
X110015500Y-140005312D01*
X110015491Y-140005318D01*
X109850644Y-140155597D01*
X109793474Y-140231302D01*
X109716209Y-140333619D01*
X109716207Y-140333623D01*
X109716206Y-140333623D01*
X109616775Y-140533306D01*
X109616774Y-140533308D01*
X109555726Y-140747870D01*
X109555725Y-140747873D01*
X109535143Y-140970000D01*
X97374779Y-140970000D01*
X97374779Y-139293600D01*
X163240071Y-139293600D01*
X163260880Y-139438333D01*
X163321622Y-139571340D01*
X163321623Y-139571341D01*
X163321624Y-139571343D01*
X163417379Y-139681850D01*
X163540389Y-139760904D01*
X163680689Y-139802100D01*
X163826911Y-139802100D01*
X163967211Y-139760904D01*
X164090221Y-139681850D01*
X164185976Y-139571343D01*
X164246719Y-139438334D01*
X164267529Y-139293600D01*
X164246719Y-139148866D01*
X164209814Y-139068054D01*
X166128758Y-139068054D01*
X166149567Y-139212787D01*
X166210309Y-139345794D01*
X166210310Y-139345795D01*
X166210311Y-139345797D01*
X166306066Y-139456304D01*
X166429076Y-139535358D01*
X166569376Y-139576554D01*
X166715598Y-139576554D01*
X166855898Y-139535358D01*
X166978908Y-139456304D01*
X167074663Y-139345797D01*
X167135406Y-139212788D01*
X167156216Y-139068054D01*
X167135406Y-138923320D01*
X167074663Y-138790311D01*
X166978908Y-138679804D01*
X166886163Y-138620200D01*
X166855897Y-138600749D01*
X166715598Y-138559554D01*
X166569376Y-138559554D01*
X166429077Y-138600749D01*
X166429076Y-138600749D01*
X166306064Y-138679805D01*
X166210309Y-138790313D01*
X166149567Y-138923320D01*
X166128758Y-139068054D01*
X164209814Y-139068054D01*
X164185976Y-139015857D01*
X164090221Y-138905350D01*
X164005584Y-138850957D01*
X163967210Y-138826295D01*
X163826911Y-138785100D01*
X163680689Y-138785100D01*
X163540390Y-138826295D01*
X163540389Y-138826295D01*
X163417377Y-138905351D01*
X163321622Y-139015859D01*
X163260880Y-139148866D01*
X163240071Y-139293600D01*
X97374779Y-139293600D01*
X97374779Y-138367404D01*
X168502135Y-138367404D01*
X168522944Y-138512137D01*
X168583686Y-138645144D01*
X168583687Y-138645145D01*
X168583688Y-138645147D01*
X168649937Y-138721602D01*
X168666269Y-138740451D01*
X168679443Y-138755654D01*
X168802453Y-138834708D01*
X168920210Y-138869284D01*
X168971532Y-138904378D01*
X168992426Y-138962936D01*
X168991443Y-138980126D01*
X168970081Y-139128699D01*
X168990890Y-139273433D01*
X169051632Y-139406440D01*
X169051633Y-139406441D01*
X169051634Y-139406443D01*
X169147389Y-139516950D01*
X169270399Y-139596004D01*
X169410699Y-139637200D01*
X169556921Y-139637200D01*
X169697221Y-139596004D01*
X169820231Y-139516950D01*
X169915986Y-139406443D01*
X169955646Y-139319600D01*
X171698271Y-139319600D01*
X171719080Y-139464333D01*
X171779822Y-139597340D01*
X171779823Y-139597341D01*
X171779824Y-139597343D01*
X171875579Y-139707850D01*
X171998589Y-139786904D01*
X172138889Y-139828100D01*
X172285111Y-139828100D01*
X172425411Y-139786904D01*
X172548421Y-139707850D01*
X172644176Y-139597343D01*
X172704919Y-139464334D01*
X172725729Y-139319600D01*
X172704919Y-139174866D01*
X172644176Y-139041857D01*
X172548421Y-138931350D01*
X172451845Y-138869284D01*
X172425410Y-138852295D01*
X172285111Y-138811100D01*
X172138889Y-138811100D01*
X171998590Y-138852295D01*
X171998589Y-138852295D01*
X171875577Y-138931351D01*
X171779822Y-139041859D01*
X171719080Y-139174866D01*
X171698271Y-139319600D01*
X169955646Y-139319600D01*
X169976729Y-139273434D01*
X169997539Y-139128700D01*
X169976729Y-138983966D01*
X169940826Y-138905350D01*
X169915987Y-138850959D01*
X169915986Y-138850958D01*
X169915986Y-138850957D01*
X169820231Y-138740450D01*
X169725866Y-138679805D01*
X169697220Y-138661395D01*
X169579464Y-138626819D01*
X169528141Y-138591725D01*
X169507247Y-138533167D01*
X169508230Y-138515976D01*
X169508781Y-138512141D01*
X169508783Y-138512138D01*
X169529593Y-138367404D01*
X169508783Y-138222670D01*
X169448040Y-138089661D01*
X169352285Y-137979154D01*
X169290780Y-137939627D01*
X169229274Y-137900099D01*
X169088975Y-137858904D01*
X168942753Y-137858904D01*
X168802454Y-137900099D01*
X168802453Y-137900099D01*
X168679441Y-137979155D01*
X168583686Y-138089663D01*
X168522944Y-138222670D01*
X168502135Y-138367404D01*
X97374779Y-138367404D01*
X97374779Y-135048005D01*
X109238859Y-135048005D01*
X109259385Y-135295731D01*
X109320413Y-135536720D01*
X109420269Y-135764371D01*
X109520563Y-135917881D01*
X110181265Y-135257179D01*
X110219946Y-135350562D01*
X110316112Y-135475888D01*
X110441438Y-135572054D01*
X110534818Y-135610733D01*
X109873942Y-136271609D01*
X109873942Y-136271611D01*
X109920763Y-136308052D01*
X110139391Y-136426367D01*
X110139392Y-136426368D01*
X110374510Y-136507083D01*
X110619700Y-136547999D01*
X110619710Y-136548000D01*
X110868290Y-136548000D01*
X110868299Y-136547999D01*
X111113489Y-136507083D01*
X111348607Y-136426368D01*
X111348608Y-136426367D01*
X111567226Y-136308058D01*
X111614056Y-136271609D01*
X110953180Y-135610733D01*
X111046562Y-135572054D01*
X111171888Y-135475888D01*
X111268054Y-135350563D01*
X111306733Y-135257180D01*
X111967434Y-135917881D01*
X112067729Y-135764373D01*
X112167586Y-135536720D01*
X112206767Y-135382000D01*
X169767871Y-135382000D01*
X169788680Y-135526733D01*
X169849422Y-135659740D01*
X169849423Y-135659741D01*
X169849424Y-135659743D01*
X169915673Y-135736198D01*
X169940086Y-135764373D01*
X169945179Y-135770250D01*
X170068189Y-135849304D01*
X170208489Y-135890500D01*
X170354711Y-135890500D01*
X170495011Y-135849304D01*
X170618021Y-135770250D01*
X170713776Y-135659743D01*
X170774519Y-135526734D01*
X170795329Y-135382000D01*
X170774519Y-135237266D01*
X170713776Y-135104257D01*
X170618021Y-134993750D01*
X170556516Y-134954223D01*
X170495010Y-134914695D01*
X170354711Y-134873500D01*
X170208489Y-134873500D01*
X170068190Y-134914695D01*
X170068189Y-134914695D01*
X169945177Y-134993751D01*
X169849422Y-135104259D01*
X169788680Y-135237266D01*
X169767871Y-135382000D01*
X112206767Y-135382000D01*
X112228614Y-135295731D01*
X112249141Y-135048005D01*
X112249141Y-135047994D01*
X112228614Y-134800268D01*
X112167586Y-134559279D01*
X112067730Y-134331628D01*
X111967435Y-134178116D01*
X111306733Y-134838818D01*
X111268054Y-134745438D01*
X111171888Y-134620112D01*
X111046562Y-134523946D01*
X110953179Y-134485265D01*
X111614056Y-133824388D01*
X111567236Y-133787947D01*
X111348608Y-133669632D01*
X111348607Y-133669631D01*
X111113489Y-133588916D01*
X110868299Y-133548000D01*
X110619700Y-133548000D01*
X110374510Y-133588916D01*
X110139392Y-133669631D01*
X110139391Y-133669632D01*
X109920771Y-133787942D01*
X109920763Y-133787948D01*
X109873942Y-133824388D01*
X109873942Y-133824389D01*
X110534819Y-134485266D01*
X110441438Y-134523946D01*
X110316112Y-134620112D01*
X110219946Y-134745437D01*
X110181266Y-134838819D01*
X109520563Y-134178117D01*
X109420269Y-134331628D01*
X109320413Y-134559279D01*
X109259385Y-134800268D01*
X109238859Y-135047994D01*
X109238859Y-135048005D01*
X97374779Y-135048005D01*
X97374779Y-133070000D01*
X157071293Y-133070000D01*
X157090894Y-133331555D01*
X157149259Y-133587268D01*
X157149260Y-133587271D01*
X157245081Y-133831422D01*
X157245083Y-133831425D01*
X157376223Y-134058567D01*
X157376231Y-134058579D01*
X157424073Y-134118570D01*
X157424074Y-134118570D01*
X158109538Y-133433105D01*
X158196778Y-133571947D01*
X158324253Y-133699422D01*
X158463091Y-133786660D01*
X157777032Y-134472720D01*
X157777032Y-134472721D01*
X157948747Y-134589794D01*
X157948750Y-134589795D01*
X158185054Y-134703594D01*
X158435699Y-134780908D01*
X158695057Y-134820000D01*
X158957343Y-134820000D01*
X159216699Y-134780908D01*
X159216702Y-134780908D01*
X159467345Y-134703594D01*
X159703650Y-134589795D01*
X159703662Y-134589788D01*
X159875366Y-134472721D01*
X159875366Y-134472720D01*
X159189307Y-133786660D01*
X159328147Y-133699422D01*
X159455622Y-133571947D01*
X159542861Y-133433107D01*
X160228324Y-134118570D01*
X160276172Y-134058573D01*
X160407316Y-133831425D01*
X160407318Y-133831422D01*
X160503139Y-133587271D01*
X160503140Y-133587268D01*
X160561505Y-133331555D01*
X160581106Y-133070004D01*
X162447518Y-133070004D01*
X162467411Y-133310084D01*
X162467413Y-133310091D01*
X162526553Y-133543633D01*
X162623327Y-133764256D01*
X162755095Y-133965941D01*
X162918262Y-134143187D01*
X162918263Y-134143188D01*
X163108380Y-134291162D01*
X163183155Y-134331628D01*
X163320254Y-134405822D01*
X163548115Y-134484047D01*
X163785743Y-134523700D01*
X163785747Y-134523700D01*
X164026653Y-134523700D01*
X164026657Y-134523700D01*
X164264285Y-134484047D01*
X164492146Y-134405822D01*
X164704023Y-134291160D01*
X164894138Y-134143187D01*
X165057305Y-133965941D01*
X165189073Y-133764256D01*
X165285847Y-133543633D01*
X165344987Y-133310091D01*
X165350038Y-133249143D01*
X165364882Y-133070004D01*
X167527518Y-133070004D01*
X167547411Y-133310084D01*
X167547413Y-133310091D01*
X167606553Y-133543633D01*
X167703327Y-133764256D01*
X167835095Y-133965941D01*
X167998262Y-134143187D01*
X167998263Y-134143188D01*
X168188380Y-134291162D01*
X168263155Y-134331628D01*
X168400254Y-134405822D01*
X168628115Y-134484047D01*
X168865743Y-134523700D01*
X168865747Y-134523700D01*
X169106653Y-134523700D01*
X169106657Y-134523700D01*
X169344285Y-134484047D01*
X169572146Y-134405822D01*
X169784023Y-134291160D01*
X169974138Y-134143187D01*
X170137305Y-133965941D01*
X170269073Y-133764256D01*
X170365847Y-133543633D01*
X170424987Y-133310091D01*
X170430038Y-133249143D01*
X170444882Y-133070004D01*
X170444882Y-133069995D01*
X170424988Y-132829915D01*
X170424987Y-132829912D01*
X170424987Y-132829909D01*
X170365847Y-132596367D01*
X170269073Y-132375744D01*
X170137305Y-132174059D01*
X169974138Y-131996813D01*
X169974137Y-131996812D01*
X169974136Y-131996811D01*
X169784019Y-131848837D01*
X169572146Y-131734178D01*
X169572145Y-131734177D01*
X169422509Y-131682807D01*
X169344285Y-131655953D01*
X169304680Y-131649344D01*
X169106662Y-131616300D01*
X169106657Y-131616300D01*
X168865743Y-131616300D01*
X168865737Y-131616300D01*
X168628115Y-131655953D01*
X168400254Y-131734177D01*
X168400253Y-131734178D01*
X168188380Y-131848837D01*
X167998263Y-131996811D01*
X167835094Y-132174060D01*
X167703330Y-132375738D01*
X167606553Y-132596366D01*
X167547411Y-132829915D01*
X167527518Y-133069995D01*
X167527518Y-133070004D01*
X165364882Y-133070004D01*
X165364882Y-133069995D01*
X165344988Y-132829915D01*
X165344987Y-132829912D01*
X165344987Y-132829909D01*
X165285847Y-132596367D01*
X165189073Y-132375744D01*
X165057305Y-132174059D01*
X164894138Y-131996813D01*
X164894137Y-131996812D01*
X164894136Y-131996811D01*
X164704019Y-131848837D01*
X164492146Y-131734178D01*
X164492145Y-131734177D01*
X164342509Y-131682807D01*
X164264285Y-131655953D01*
X164224680Y-131649344D01*
X164026662Y-131616300D01*
X164026657Y-131616300D01*
X163785743Y-131616300D01*
X163785737Y-131616300D01*
X163548115Y-131655953D01*
X163320254Y-131734177D01*
X163320253Y-131734178D01*
X163108380Y-131848837D01*
X162918263Y-131996811D01*
X162755094Y-132174060D01*
X162623330Y-132375738D01*
X162526553Y-132596366D01*
X162467411Y-132829915D01*
X162447518Y-133069995D01*
X162447518Y-133070004D01*
X160581106Y-133070004D01*
X160581106Y-133070000D01*
X160561505Y-132808444D01*
X160503140Y-132552731D01*
X160503139Y-132552728D01*
X160407318Y-132308577D01*
X160407316Y-132308574D01*
X160276176Y-132081432D01*
X160276168Y-132081421D01*
X160228325Y-132021428D01*
X160228324Y-132021428D01*
X159542860Y-132706891D01*
X159455622Y-132568053D01*
X159328147Y-132440578D01*
X159189305Y-132353338D01*
X159875366Y-131667278D01*
X159875366Y-131667277D01*
X159703653Y-131550205D01*
X159703650Y-131550204D01*
X159467345Y-131436405D01*
X159216700Y-131359091D01*
X158957343Y-131320000D01*
X158695057Y-131320000D01*
X158435700Y-131359091D01*
X158435697Y-131359091D01*
X158185054Y-131436405D01*
X157948750Y-131550204D01*
X157948747Y-131550205D01*
X157777032Y-131667278D01*
X158463092Y-132353338D01*
X158324253Y-132440578D01*
X158196778Y-132568053D01*
X158109538Y-132706892D01*
X157424074Y-132021428D01*
X157376226Y-132081429D01*
X157376223Y-132081432D01*
X157245083Y-132308574D01*
X157245081Y-132308577D01*
X157149260Y-132552728D01*
X157149259Y-132552731D01*
X157090894Y-132808444D01*
X157071293Y-133070000D01*
X97374779Y-133070000D01*
X97374779Y-132029200D01*
X148787471Y-132029200D01*
X148808280Y-132173933D01*
X148869022Y-132306940D01*
X148869023Y-132306941D01*
X148869024Y-132306943D01*
X148964779Y-132417450D01*
X149087789Y-132496504D01*
X149228089Y-132537700D01*
X149374311Y-132537700D01*
X149514611Y-132496504D01*
X149637621Y-132417450D01*
X149733376Y-132306943D01*
X149794119Y-132173934D01*
X149814929Y-132029200D01*
X149794119Y-131884466D01*
X149733376Y-131751457D01*
X149637621Y-131640950D01*
X149576116Y-131601423D01*
X149514610Y-131561895D01*
X149374311Y-131520700D01*
X149228089Y-131520700D01*
X149087790Y-131561895D01*
X149087789Y-131561895D01*
X148964777Y-131640951D01*
X148869022Y-131751459D01*
X148808280Y-131884466D01*
X148787471Y-132029200D01*
X97374779Y-132029200D01*
X97374779Y-130048000D01*
X109535143Y-130048000D01*
X109555725Y-130270126D01*
X109555726Y-130270129D01*
X109616774Y-130484691D01*
X109616775Y-130484693D01*
X109716206Y-130684376D01*
X109716207Y-130684377D01*
X109716209Y-130684381D01*
X109848181Y-130859140D01*
X109850644Y-130862402D01*
X110015491Y-131012681D01*
X110015495Y-131012684D01*
X110015501Y-131012689D01*
X110205166Y-131130124D01*
X110413181Y-131210710D01*
X110466995Y-131220769D01*
X110632459Y-131251700D01*
X110632461Y-131251700D01*
X110855540Y-131251700D01*
X110938271Y-131236234D01*
X111074819Y-131210710D01*
X111282834Y-131130124D01*
X111472499Y-131012689D01*
X111637356Y-130862402D01*
X111771791Y-130684381D01*
X111823070Y-130581400D01*
X153638871Y-130581400D01*
X153659680Y-130726133D01*
X153720422Y-130859140D01*
X153720423Y-130859141D01*
X153720424Y-130859143D01*
X153816179Y-130969650D01*
X153939189Y-131048704D01*
X154079489Y-131089900D01*
X154225711Y-131089900D01*
X154366011Y-131048704D01*
X154489021Y-130969650D01*
X154584776Y-130859143D01*
X154645519Y-130726134D01*
X154666329Y-130581400D01*
X154645519Y-130436666D01*
X154584776Y-130303657D01*
X154489021Y-130193150D01*
X154427516Y-130153623D01*
X154366010Y-130114095D01*
X154225711Y-130072900D01*
X154079489Y-130072900D01*
X153939190Y-130114095D01*
X153939189Y-130114095D01*
X153816177Y-130193151D01*
X153720422Y-130303659D01*
X153659680Y-130436666D01*
X153638871Y-130581400D01*
X111823070Y-130581400D01*
X111871226Y-130484690D01*
X111932274Y-130270127D01*
X111952857Y-130048000D01*
X111932274Y-129825873D01*
X111871226Y-129611310D01*
X111771791Y-129411619D01*
X111637356Y-129233598D01*
X111637355Y-129233597D01*
X111472508Y-129083318D01*
X111472503Y-129083314D01*
X111472499Y-129083311D01*
X111282834Y-128965876D01*
X111282830Y-128965874D01*
X111074817Y-128885289D01*
X111074812Y-128885288D01*
X110855541Y-128844300D01*
X110855539Y-128844300D01*
X110632461Y-128844300D01*
X110632459Y-128844300D01*
X110413187Y-128885288D01*
X110413182Y-128885289D01*
X110205169Y-128965874D01*
X110205165Y-128965876D01*
X110087730Y-129038588D01*
X110015501Y-129083311D01*
X110015500Y-129083312D01*
X110015491Y-129083318D01*
X109850644Y-129233597D01*
X109793474Y-129309302D01*
X109716209Y-129411619D01*
X109716207Y-129411623D01*
X109716206Y-129411623D01*
X109616775Y-129611306D01*
X109616774Y-129611308D01*
X109555726Y-129825870D01*
X109555725Y-129825873D01*
X109535143Y-130048000D01*
X97374779Y-130048000D01*
X97374779Y-126492000D01*
X152851471Y-126492000D01*
X152872280Y-126636733D01*
X152933022Y-126769740D01*
X152933023Y-126769741D01*
X152933024Y-126769743D01*
X153028779Y-126880250D01*
X153151789Y-126959304D01*
X153292089Y-127000500D01*
X153438311Y-127000500D01*
X153578611Y-126959304D01*
X153701621Y-126880250D01*
X153797376Y-126769743D01*
X153858119Y-126636734D01*
X153878929Y-126492000D01*
X153858119Y-126347266D01*
X153797376Y-126214257D01*
X153701621Y-126103750D01*
X153640116Y-126064223D01*
X153578610Y-126024695D01*
X153438311Y-125983500D01*
X153292089Y-125983500D01*
X153151790Y-126024695D01*
X153151789Y-126024695D01*
X153028777Y-126103751D01*
X152933022Y-126214259D01*
X152872280Y-126347266D01*
X152851471Y-126492000D01*
X97374779Y-126492000D01*
X97374779Y-124184405D01*
X109238859Y-124184405D01*
X109259385Y-124432131D01*
X109320413Y-124673120D01*
X109420269Y-124900771D01*
X109520563Y-125054281D01*
X110181265Y-124393579D01*
X110219946Y-124486962D01*
X110316112Y-124612288D01*
X110441438Y-124708454D01*
X110534818Y-124747133D01*
X109873942Y-125408009D01*
X109873942Y-125408011D01*
X109920763Y-125444452D01*
X110139391Y-125562767D01*
X110139392Y-125562768D01*
X110374510Y-125643483D01*
X110619700Y-125684399D01*
X110619710Y-125684400D01*
X110868290Y-125684400D01*
X110868299Y-125684399D01*
X111113489Y-125643483D01*
X111348607Y-125562768D01*
X111348608Y-125562767D01*
X111567226Y-125444458D01*
X111614056Y-125408009D01*
X110953180Y-124747133D01*
X111046562Y-124708454D01*
X111171888Y-124612288D01*
X111268054Y-124486963D01*
X111306733Y-124393580D01*
X111967434Y-125054281D01*
X112067729Y-124900773D01*
X112167586Y-124673120D01*
X112228614Y-124432131D01*
X112238933Y-124307600D01*
X148127071Y-124307600D01*
X148147880Y-124452333D01*
X148208622Y-124585340D01*
X148208623Y-124585341D01*
X148208624Y-124585343D01*
X148304379Y-124695850D01*
X148427389Y-124774904D01*
X148567689Y-124816100D01*
X148713911Y-124816100D01*
X148854211Y-124774904D01*
X148977221Y-124695850D01*
X149072976Y-124585343D01*
X149133719Y-124452334D01*
X149154529Y-124307600D01*
X149133719Y-124162866D01*
X149072976Y-124029857D01*
X148977221Y-123919350D01*
X148915716Y-123879823D01*
X148854210Y-123840295D01*
X148713911Y-123799100D01*
X148567689Y-123799100D01*
X148427390Y-123840295D01*
X148427389Y-123840295D01*
X148304377Y-123919351D01*
X148208622Y-124029859D01*
X148147880Y-124162866D01*
X148127071Y-124307600D01*
X112238933Y-124307600D01*
X112249141Y-124184405D01*
X112249141Y-124184394D01*
X112228614Y-123936668D01*
X112167586Y-123695679D01*
X112067730Y-123468028D01*
X111967435Y-123314516D01*
X111306733Y-123975218D01*
X111268054Y-123881838D01*
X111171888Y-123756512D01*
X111046562Y-123660346D01*
X110953179Y-123621665D01*
X111614056Y-122960788D01*
X111567236Y-122924347D01*
X111348608Y-122806032D01*
X111348607Y-122806031D01*
X111294613Y-122787495D01*
X154702500Y-122787495D01*
X154717644Y-122989581D01*
X154777800Y-123253141D01*
X154876565Y-123504791D01*
X154922557Y-123584452D01*
X155011729Y-123738903D01*
X155011737Y-123738914D01*
X155180287Y-123950268D01*
X155180292Y-123950274D01*
X155378451Y-124134138D01*
X155378453Y-124134140D01*
X155378458Y-124134144D01*
X155601821Y-124286430D01*
X155845386Y-124403725D01*
X156103713Y-124483409D01*
X156371031Y-124523700D01*
X156641368Y-124523700D01*
X156641369Y-124523700D01*
X156908687Y-124483409D01*
X157167014Y-124403725D01*
X157410579Y-124286430D01*
X157633942Y-124134144D01*
X157832113Y-123950268D01*
X158000666Y-123738910D01*
X158135835Y-123504791D01*
X158234600Y-123253141D01*
X158294756Y-122989581D01*
X158309900Y-122787495D01*
X169502500Y-122787495D01*
X169517644Y-122989581D01*
X169577800Y-123253141D01*
X169676565Y-123504791D01*
X169722557Y-123584452D01*
X169811729Y-123738903D01*
X169811737Y-123738914D01*
X169980287Y-123950268D01*
X169980292Y-123950274D01*
X170178451Y-124134138D01*
X170178453Y-124134140D01*
X170178458Y-124134144D01*
X170401821Y-124286430D01*
X170645386Y-124403725D01*
X170903713Y-124483409D01*
X171171031Y-124523700D01*
X171441368Y-124523700D01*
X171441369Y-124523700D01*
X171708687Y-124483409D01*
X171967014Y-124403725D01*
X172210579Y-124286430D01*
X172433942Y-124134144D01*
X172632113Y-123950268D01*
X172800666Y-123738910D01*
X172935835Y-123504791D01*
X173034600Y-123253141D01*
X173094756Y-122989581D01*
X173109900Y-122787495D01*
X173109900Y-122352505D01*
X173094756Y-122150419D01*
X173034600Y-121886859D01*
X172935835Y-121635209D01*
X172838531Y-121466674D01*
X172800670Y-121401096D01*
X172800662Y-121401085D01*
X172632112Y-121189731D01*
X172632107Y-121189725D01*
X172433948Y-121005861D01*
X172433944Y-121005858D01*
X172433942Y-121005856D01*
X172210579Y-120853570D01*
X172210580Y-120853570D01*
X172210578Y-120853569D01*
X172210575Y-120853568D01*
X171967019Y-120736277D01*
X171967016Y-120736276D01*
X171967014Y-120736275D01*
X171708687Y-120656591D01*
X171708677Y-120656589D01*
X171441369Y-120616300D01*
X171171031Y-120616300D01*
X170903722Y-120656589D01*
X170903712Y-120656591D01*
X170645380Y-120736277D01*
X170401824Y-120853568D01*
X170401821Y-120853569D01*
X170178459Y-121005855D01*
X170178451Y-121005861D01*
X169980292Y-121189725D01*
X169980287Y-121189731D01*
X169811737Y-121401085D01*
X169811729Y-121401096D01*
X169676565Y-121635209D01*
X169676563Y-121635213D01*
X169577801Y-121886855D01*
X169577800Y-121886858D01*
X169577800Y-121886859D01*
X169517644Y-122150419D01*
X169502500Y-122352505D01*
X169502500Y-122787495D01*
X158309900Y-122787495D01*
X158309900Y-122352505D01*
X158294756Y-122150419D01*
X158234600Y-121886859D01*
X158135835Y-121635209D01*
X158038531Y-121466674D01*
X158000670Y-121401096D01*
X158000662Y-121401085D01*
X157832112Y-121189731D01*
X157832107Y-121189725D01*
X157633948Y-121005861D01*
X157633944Y-121005858D01*
X157633942Y-121005856D01*
X157410579Y-120853570D01*
X157410580Y-120853570D01*
X157410578Y-120853569D01*
X157410575Y-120853568D01*
X157167019Y-120736277D01*
X157167016Y-120736276D01*
X157167014Y-120736275D01*
X156908687Y-120656591D01*
X156908677Y-120656589D01*
X156641369Y-120616300D01*
X156371031Y-120616300D01*
X156103722Y-120656589D01*
X156103712Y-120656591D01*
X155845380Y-120736277D01*
X155601824Y-120853568D01*
X155601821Y-120853569D01*
X155378459Y-121005855D01*
X155378451Y-121005861D01*
X155180292Y-121189725D01*
X155180287Y-121189731D01*
X155011737Y-121401085D01*
X155011729Y-121401096D01*
X154876565Y-121635209D01*
X154876563Y-121635213D01*
X154777801Y-121886855D01*
X154777800Y-121886858D01*
X154777800Y-121886859D01*
X154717644Y-122150419D01*
X154702500Y-122352505D01*
X154702500Y-122787495D01*
X111294613Y-122787495D01*
X111113489Y-122725316D01*
X110868299Y-122684400D01*
X110619700Y-122684400D01*
X110374510Y-122725316D01*
X110139392Y-122806031D01*
X110139391Y-122806032D01*
X109920771Y-122924342D01*
X109920763Y-122924348D01*
X109873942Y-122960788D01*
X109873942Y-122960789D01*
X110534819Y-123621666D01*
X110441438Y-123660346D01*
X110316112Y-123756512D01*
X110219946Y-123881837D01*
X110181266Y-123975219D01*
X109520563Y-123314517D01*
X109420269Y-123468028D01*
X109320413Y-123695679D01*
X109259385Y-123936668D01*
X109238859Y-124184394D01*
X109238859Y-124184405D01*
X97374779Y-124184405D01*
X97374779Y-121466674D01*
X124215091Y-121466674D01*
X124235900Y-121611407D01*
X124296642Y-121744414D01*
X124296643Y-121744415D01*
X124296644Y-121744417D01*
X124392399Y-121854924D01*
X124515409Y-121933978D01*
X124655709Y-121975174D01*
X124801931Y-121975174D01*
X124942231Y-121933978D01*
X125065241Y-121854924D01*
X125160996Y-121744417D01*
X125221739Y-121611408D01*
X125242549Y-121466674D01*
X125221739Y-121321940D01*
X125160996Y-121188931D01*
X125065241Y-121078424D01*
X125003736Y-121038897D01*
X124942230Y-120999369D01*
X124801931Y-120958174D01*
X124655709Y-120958174D01*
X124515410Y-120999369D01*
X124515409Y-120999369D01*
X124392397Y-121078425D01*
X124296642Y-121188933D01*
X124235900Y-121321940D01*
X124215091Y-121466674D01*
X97374779Y-121466674D01*
X97374779Y-119184400D01*
X109535143Y-119184400D01*
X109555725Y-119406526D01*
X109555726Y-119406529D01*
X109616774Y-119621091D01*
X109616775Y-119621093D01*
X109716206Y-119820776D01*
X109716207Y-119820777D01*
X109716209Y-119820781D01*
X109850644Y-119998802D01*
X110015491Y-120149081D01*
X110015495Y-120149084D01*
X110015501Y-120149089D01*
X110205166Y-120266524D01*
X110413181Y-120347110D01*
X110466995Y-120357169D01*
X110632459Y-120388100D01*
X110632461Y-120388100D01*
X110855540Y-120388100D01*
X110938271Y-120372634D01*
X111074819Y-120347110D01*
X111282834Y-120266524D01*
X111472499Y-120149089D01*
X111637356Y-119998802D01*
X111771791Y-119820781D01*
X111871226Y-119621090D01*
X111932274Y-119406527D01*
X111952857Y-119184400D01*
X111932274Y-118962273D01*
X111871226Y-118747710D01*
X111771791Y-118548019D01*
X111637356Y-118369998D01*
X111631324Y-118364499D01*
X111472508Y-118219718D01*
X111472503Y-118219714D01*
X111472499Y-118219711D01*
X111282834Y-118102276D01*
X111282830Y-118102274D01*
X111074817Y-118021689D01*
X111074812Y-118021688D01*
X110855541Y-117980700D01*
X110855539Y-117980700D01*
X110632461Y-117980700D01*
X110632459Y-117980700D01*
X110413187Y-118021688D01*
X110413182Y-118021689D01*
X110205169Y-118102274D01*
X110205165Y-118102276D01*
X110123027Y-118153134D01*
X110015501Y-118219711D01*
X110015500Y-118219712D01*
X110015491Y-118219718D01*
X109850644Y-118369997D01*
X109830517Y-118396650D01*
X109716209Y-118548019D01*
X109716207Y-118548023D01*
X109716206Y-118548023D01*
X109616775Y-118747706D01*
X109616774Y-118747708D01*
X109555726Y-118962270D01*
X109555725Y-118962273D01*
X109535143Y-119184400D01*
X97374779Y-119184400D01*
X97374779Y-117856000D01*
X124525073Y-117856000D01*
X124545882Y-118000733D01*
X124606624Y-118133740D01*
X124606625Y-118133741D01*
X124606626Y-118133743D01*
X124702381Y-118244250D01*
X124825391Y-118323304D01*
X124965691Y-118364500D01*
X125111913Y-118364500D01*
X125252213Y-118323304D01*
X125375223Y-118244250D01*
X125470978Y-118133743D01*
X125528220Y-118008400D01*
X126943471Y-118008400D01*
X126964280Y-118153133D01*
X127025022Y-118286140D01*
X127025023Y-118286141D01*
X127025024Y-118286143D01*
X127120779Y-118396650D01*
X127243789Y-118475704D01*
X127384089Y-118516900D01*
X127530311Y-118516900D01*
X127670611Y-118475704D01*
X127793621Y-118396650D01*
X127889376Y-118286143D01*
X127950119Y-118153134D01*
X127970929Y-118008400D01*
X127950119Y-117863666D01*
X127889376Y-117730657D01*
X127793621Y-117620150D01*
X127728434Y-117578257D01*
X127670610Y-117541095D01*
X127530311Y-117499900D01*
X127384089Y-117499900D01*
X127243790Y-117541095D01*
X127243789Y-117541095D01*
X127120777Y-117620151D01*
X127025022Y-117730659D01*
X126964280Y-117863666D01*
X126943471Y-118008400D01*
X125528220Y-118008400D01*
X125531721Y-118000734D01*
X125552531Y-117856000D01*
X125531721Y-117711266D01*
X125470978Y-117578257D01*
X125375223Y-117467750D01*
X125313718Y-117428223D01*
X125252212Y-117388695D01*
X125111913Y-117347500D01*
X124965691Y-117347500D01*
X124825392Y-117388695D01*
X124825391Y-117388695D01*
X124702379Y-117467751D01*
X124606624Y-117578259D01*
X124545882Y-117711266D01*
X124525073Y-117856000D01*
X97374779Y-117856000D01*
X97374779Y-115570000D01*
X159611293Y-115570000D01*
X159630894Y-115831555D01*
X159689259Y-116087268D01*
X159689260Y-116087271D01*
X159785081Y-116331422D01*
X159785083Y-116331425D01*
X159916223Y-116558567D01*
X159916231Y-116558579D01*
X159964073Y-116618570D01*
X159964074Y-116618570D01*
X160649538Y-115933105D01*
X160736778Y-116071947D01*
X160864253Y-116199422D01*
X161003091Y-116286660D01*
X160317032Y-116972720D01*
X160317032Y-116972721D01*
X160488747Y-117089794D01*
X160488750Y-117089795D01*
X160725054Y-117203594D01*
X160975699Y-117280908D01*
X161235057Y-117320000D01*
X161497343Y-117320000D01*
X161756699Y-117280908D01*
X161756702Y-117280908D01*
X162007345Y-117203594D01*
X162243650Y-117089795D01*
X162243662Y-117089788D01*
X162415366Y-116972721D01*
X162415366Y-116972720D01*
X161729307Y-116286660D01*
X161868147Y-116199422D01*
X161995622Y-116071947D01*
X162082861Y-115933107D01*
X162768324Y-116618570D01*
X162816172Y-116558573D01*
X162947316Y-116331425D01*
X162947318Y-116331422D01*
X163043139Y-116087271D01*
X163043140Y-116087268D01*
X163101505Y-115831555D01*
X163121106Y-115570004D01*
X164987518Y-115570004D01*
X165007411Y-115810084D01*
X165007413Y-115810091D01*
X165066553Y-116043633D01*
X165163327Y-116264256D01*
X165295095Y-116465941D01*
X165458262Y-116643187D01*
X165458263Y-116643188D01*
X165648380Y-116791162D01*
X165743873Y-116842839D01*
X165860254Y-116905822D01*
X166088115Y-116984047D01*
X166325743Y-117023700D01*
X166325747Y-117023700D01*
X166566653Y-117023700D01*
X166566657Y-117023700D01*
X166804285Y-116984047D01*
X167032146Y-116905822D01*
X167244023Y-116791160D01*
X167434138Y-116643187D01*
X167597305Y-116465941D01*
X167729073Y-116264256D01*
X167825847Y-116043633D01*
X167884987Y-115810091D01*
X167890038Y-115749143D01*
X167904882Y-115570004D01*
X167904882Y-115569995D01*
X167884988Y-115329915D01*
X167884987Y-115329912D01*
X167884987Y-115329909D01*
X167825847Y-115096367D01*
X167729073Y-114875744D01*
X167597305Y-114674059D01*
X167434138Y-114496813D01*
X167434137Y-114496812D01*
X167434136Y-114496811D01*
X167244019Y-114348837D01*
X167032146Y-114234178D01*
X167032145Y-114234177D01*
X166882509Y-114182807D01*
X166804285Y-114155953D01*
X166764680Y-114149344D01*
X166566662Y-114116300D01*
X166566657Y-114116300D01*
X166325743Y-114116300D01*
X166325737Y-114116300D01*
X166088115Y-114155953D01*
X165860254Y-114234177D01*
X165860253Y-114234178D01*
X165648380Y-114348837D01*
X165458263Y-114496811D01*
X165295094Y-114674060D01*
X165163330Y-114875738D01*
X165163328Y-114875742D01*
X165163327Y-114875744D01*
X165119168Y-114976415D01*
X165066553Y-115096366D01*
X165007411Y-115329915D01*
X164987518Y-115569995D01*
X164987518Y-115570004D01*
X163121106Y-115570004D01*
X163121106Y-115570000D01*
X163101505Y-115308444D01*
X163043140Y-115052731D01*
X163043139Y-115052728D01*
X162947318Y-114808577D01*
X162947316Y-114808574D01*
X162816176Y-114581432D01*
X162816168Y-114581421D01*
X162768325Y-114521428D01*
X162768324Y-114521428D01*
X162082860Y-115206891D01*
X161995622Y-115068053D01*
X161868147Y-114940578D01*
X161729305Y-114853338D01*
X162415366Y-114167278D01*
X162415366Y-114167277D01*
X162243653Y-114050205D01*
X162243650Y-114050204D01*
X162007345Y-113936405D01*
X161756700Y-113859091D01*
X161497343Y-113820000D01*
X161235057Y-113820000D01*
X160975700Y-113859091D01*
X160975697Y-113859091D01*
X160725054Y-113936405D01*
X160488750Y-114050204D01*
X160488747Y-114050205D01*
X160317032Y-114167278D01*
X161003092Y-114853338D01*
X160864253Y-114940578D01*
X160736778Y-115068053D01*
X160649538Y-115206892D01*
X159964074Y-114521428D01*
X159916226Y-114581429D01*
X159916223Y-114581432D01*
X159785083Y-114808574D01*
X159785081Y-114808577D01*
X159689260Y-115052728D01*
X159689259Y-115052731D01*
X159630894Y-115308444D01*
X159611293Y-115570000D01*
X97374779Y-115570000D01*
X97374779Y-114807500D01*
X141370671Y-114807500D01*
X141391480Y-114952233D01*
X141452222Y-115085240D01*
X141452223Y-115085241D01*
X141452224Y-115085243D01*
X141547979Y-115195750D01*
X141670989Y-115274804D01*
X141811289Y-115316000D01*
X141957511Y-115316000D01*
X142097811Y-115274804D01*
X142220821Y-115195750D01*
X142316576Y-115085243D01*
X142377319Y-114952234D01*
X142398129Y-114807500D01*
X142377319Y-114662766D01*
X142316576Y-114529757D01*
X142220821Y-114419250D01*
X142159316Y-114379723D01*
X142097810Y-114340195D01*
X141957511Y-114299000D01*
X141811289Y-114299000D01*
X141670990Y-114340195D01*
X141670989Y-114340195D01*
X141547977Y-114419251D01*
X141452222Y-114529759D01*
X141391480Y-114662766D01*
X141370671Y-114807500D01*
X97374779Y-114807500D01*
X97374779Y-113284005D01*
X108984859Y-113284005D01*
X109005385Y-113531731D01*
X109066413Y-113772720D01*
X109166269Y-114000371D01*
X109266563Y-114153881D01*
X109927265Y-113493179D01*
X109965946Y-113586562D01*
X110062112Y-113711888D01*
X110187438Y-113808054D01*
X110280818Y-113846733D01*
X109619942Y-114507609D01*
X109619942Y-114507611D01*
X109666763Y-114544052D01*
X109885391Y-114662367D01*
X109885392Y-114662368D01*
X110120510Y-114743083D01*
X110365700Y-114783999D01*
X110365710Y-114784000D01*
X110614290Y-114784000D01*
X110614299Y-114783999D01*
X110859489Y-114743083D01*
X111094607Y-114662368D01*
X111094608Y-114662367D01*
X111313226Y-114544058D01*
X111360056Y-114507609D01*
X110699180Y-113846733D01*
X110792562Y-113808054D01*
X110917888Y-113711888D01*
X111014054Y-113586563D01*
X111052733Y-113493180D01*
X111713434Y-114153881D01*
X111813729Y-114000373D01*
X111913586Y-113772720D01*
X111974614Y-113531731D01*
X111995141Y-113284005D01*
X111995141Y-113283994D01*
X111974614Y-113036268D01*
X111913586Y-112795279D01*
X111813730Y-112567628D01*
X111713435Y-112414116D01*
X111052733Y-113074818D01*
X111014054Y-112981438D01*
X110917888Y-112856112D01*
X110792562Y-112759946D01*
X110699179Y-112721265D01*
X111360056Y-112060388D01*
X111313236Y-112023947D01*
X111094608Y-111905632D01*
X111094607Y-111905631D01*
X110859489Y-111824916D01*
X110614299Y-111784000D01*
X110365700Y-111784000D01*
X110120510Y-111824916D01*
X109885392Y-111905631D01*
X109885391Y-111905632D01*
X109666771Y-112023942D01*
X109666763Y-112023948D01*
X109619942Y-112060388D01*
X109619942Y-112060389D01*
X110280819Y-112721266D01*
X110187438Y-112759946D01*
X110062112Y-112856112D01*
X109965946Y-112981437D01*
X109927266Y-113074819D01*
X109266563Y-112414117D01*
X109166269Y-112567628D01*
X109066413Y-112795279D01*
X109005385Y-113036268D01*
X108984859Y-113283994D01*
X108984859Y-113284005D01*
X97374779Y-113284005D01*
X97374779Y-111404400D01*
X126137111Y-111404400D01*
X126154888Y-111607600D01*
X126156230Y-111622931D01*
X126156231Y-111622942D01*
X126213008Y-111834832D01*
X126268764Y-111954400D01*
X126305717Y-112033645D01*
X126431541Y-112213341D01*
X126586659Y-112368459D01*
X126766355Y-112494283D01*
X126965171Y-112586993D01*
X127111969Y-112626327D01*
X127177057Y-112643768D01*
X127177059Y-112643768D01*
X127177066Y-112643770D01*
X127367273Y-112660410D01*
X127395598Y-112662889D01*
X127395600Y-112662889D01*
X127395602Y-112662889D01*
X127422202Y-112660561D01*
X127614134Y-112643770D01*
X127614141Y-112643768D01*
X127614142Y-112643768D01*
X127636851Y-112637682D01*
X127826029Y-112586993D01*
X128024845Y-112494283D01*
X128204541Y-112368459D01*
X128359659Y-112213341D01*
X128485483Y-112033645D01*
X128545177Y-111905632D01*
X128554426Y-111885798D01*
X128596829Y-111840327D01*
X128657861Y-111828464D01*
X128714209Y-111854740D01*
X128736774Y-111885798D01*
X128768764Y-111954400D01*
X128805717Y-112033645D01*
X128931541Y-112213341D01*
X129086659Y-112368459D01*
X129266355Y-112494283D01*
X129465171Y-112586993D01*
X129611969Y-112626327D01*
X129677057Y-112643768D01*
X129677059Y-112643768D01*
X129677066Y-112643770D01*
X129867273Y-112660410D01*
X129895598Y-112662889D01*
X129895600Y-112662889D01*
X129895602Y-112662889D01*
X129922202Y-112660561D01*
X130114134Y-112643770D01*
X130114141Y-112643768D01*
X130114142Y-112643768D01*
X130136851Y-112637682D01*
X130326029Y-112586993D01*
X130524845Y-112494283D01*
X130704541Y-112368459D01*
X130859659Y-112213341D01*
X130985483Y-112033645D01*
X131045177Y-111905632D01*
X131054426Y-111885798D01*
X131096829Y-111840327D01*
X131157861Y-111828464D01*
X131214209Y-111854740D01*
X131236774Y-111885798D01*
X131268764Y-111954400D01*
X131305717Y-112033645D01*
X131431541Y-112213341D01*
X131586659Y-112368459D01*
X131766355Y-112494283D01*
X131965171Y-112586993D01*
X132111969Y-112626327D01*
X132177057Y-112643768D01*
X132177059Y-112643768D01*
X132177066Y-112643770D01*
X132367273Y-112660410D01*
X132395598Y-112662889D01*
X132395600Y-112662889D01*
X132395602Y-112662889D01*
X132422202Y-112660561D01*
X132614134Y-112643770D01*
X132614141Y-112643768D01*
X132614142Y-112643768D01*
X132636851Y-112637682D01*
X132826029Y-112586993D01*
X133024845Y-112494283D01*
X133204541Y-112368459D01*
X133359659Y-112213341D01*
X133385653Y-112176217D01*
X133435304Y-112138800D01*
X133497469Y-112137713D01*
X133548400Y-112173373D01*
X133553835Y-112181355D01*
X133634103Y-112312341D01*
X133634104Y-112312341D01*
X134369670Y-111576774D01*
X134372484Y-111590315D01*
X134442042Y-111724556D01*
X134545238Y-111835052D01*
X134674419Y-111913609D01*
X134725602Y-111927949D01*
X133987656Y-112665895D01*
X134189742Y-112789732D01*
X134189744Y-112789733D01*
X134415146Y-112883097D01*
X134652370Y-112940049D01*
X134652379Y-112940051D01*
X134895600Y-112959192D01*
X135138820Y-112940051D01*
X135138829Y-112940049D01*
X135376053Y-112883097D01*
X135376054Y-112883097D01*
X135601455Y-112789733D01*
X135601461Y-112789731D01*
X135803541Y-112665895D01*
X135803542Y-112665895D01*
X135067168Y-111929521D01*
X135184058Y-111878749D01*
X135301339Y-111783334D01*
X135388528Y-111659815D01*
X135418954Y-111574201D01*
X136157095Y-112312342D01*
X136157095Y-112312341D01*
X136280931Y-112110261D01*
X136280933Y-112110255D01*
X136374297Y-111884854D01*
X136374297Y-111884853D01*
X136431249Y-111647629D01*
X136431251Y-111647620D01*
X136434401Y-111607600D01*
X139237071Y-111607600D01*
X139257880Y-111752333D01*
X139318622Y-111885340D01*
X139318623Y-111885341D01*
X139318624Y-111885343D01*
X139414379Y-111995850D01*
X139537389Y-112074904D01*
X139677689Y-112116100D01*
X139823911Y-112116100D01*
X139964211Y-112074904D01*
X140087221Y-111995850D01*
X140182976Y-111885343D01*
X140243719Y-111752334D01*
X140264529Y-111607600D01*
X140243719Y-111462866D01*
X140182976Y-111329857D01*
X140087221Y-111219350D01*
X140025716Y-111179823D01*
X139964210Y-111140295D01*
X139823911Y-111099100D01*
X139677689Y-111099100D01*
X139537390Y-111140295D01*
X139537389Y-111140295D01*
X139414377Y-111219351D01*
X139318622Y-111329859D01*
X139257880Y-111462866D01*
X139237071Y-111607600D01*
X136434401Y-111607600D01*
X136450392Y-111404400D01*
X136431251Y-111161179D01*
X136431249Y-111161170D01*
X136374297Y-110923946D01*
X136374297Y-110923945D01*
X136320803Y-110794800D01*
X141885571Y-110794800D01*
X141906380Y-110939533D01*
X141967122Y-111072540D01*
X141967123Y-111072541D01*
X141967124Y-111072543D01*
X142062879Y-111183050D01*
X142185889Y-111262104D01*
X142326189Y-111303300D01*
X142472411Y-111303300D01*
X142612711Y-111262104D01*
X142735721Y-111183050D01*
X142831476Y-111072543D01*
X142892219Y-110939534D01*
X142913029Y-110794800D01*
X142892219Y-110650066D01*
X142831476Y-110517057D01*
X142735721Y-110406550D01*
X142674216Y-110367023D01*
X142612710Y-110327495D01*
X142472411Y-110286300D01*
X142326189Y-110286300D01*
X142185890Y-110327495D01*
X142185889Y-110327495D01*
X142062877Y-110406551D01*
X141967122Y-110517059D01*
X141906380Y-110650066D01*
X141885571Y-110794800D01*
X136320803Y-110794800D01*
X136280933Y-110698544D01*
X136280932Y-110698542D01*
X136157095Y-110496456D01*
X135421529Y-111232022D01*
X135418716Y-111218485D01*
X135349158Y-111084244D01*
X135245962Y-110973748D01*
X135116781Y-110895191D01*
X135065595Y-110880849D01*
X135803541Y-110142904D01*
X135803541Y-110142903D01*
X135601457Y-110019067D01*
X135601455Y-110019066D01*
X135376053Y-109925702D01*
X135138829Y-109868750D01*
X135138820Y-109868748D01*
X134895600Y-109849607D01*
X134652379Y-109868748D01*
X134652370Y-109868750D01*
X134415146Y-109925702D01*
X134415145Y-109925702D01*
X134189741Y-110019067D01*
X134189740Y-110019068D01*
X133987657Y-110142903D01*
X133987657Y-110142904D01*
X134724031Y-110879278D01*
X134607142Y-110930051D01*
X134489861Y-111025466D01*
X134402672Y-111148985D01*
X134372245Y-111234598D01*
X133634104Y-110496457D01*
X133634103Y-110496457D01*
X133553836Y-110627443D01*
X133506558Y-110667822D01*
X133444576Y-110672700D01*
X133391563Y-110640215D01*
X133385653Y-110632582D01*
X133359660Y-110595460D01*
X133204543Y-110440343D01*
X133204541Y-110440341D01*
X133024845Y-110314517D01*
X132964334Y-110286300D01*
X132826032Y-110221808D01*
X132826029Y-110221807D01*
X132795008Y-110213495D01*
X132614142Y-110165031D01*
X132614135Y-110165030D01*
X132614134Y-110165030D01*
X132483013Y-110153558D01*
X132395602Y-110145911D01*
X132395598Y-110145911D01*
X132286333Y-110155470D01*
X132177066Y-110165030D01*
X132177064Y-110165030D01*
X132177057Y-110165031D01*
X131965167Y-110221808D01*
X131766361Y-110314514D01*
X131766347Y-110314522D01*
X131586660Y-110440339D01*
X131431539Y-110595460D01*
X131305722Y-110775147D01*
X131305714Y-110775161D01*
X131236774Y-110923002D01*
X131194371Y-110968473D01*
X131133339Y-110980336D01*
X131076990Y-110954060D01*
X131054426Y-110923002D01*
X130985485Y-110775161D01*
X130985483Y-110775156D01*
X130931839Y-110698544D01*
X130859660Y-110595460D01*
X130704543Y-110440343D01*
X130704541Y-110440341D01*
X130524845Y-110314517D01*
X130464334Y-110286300D01*
X130326032Y-110221808D01*
X130326029Y-110221807D01*
X130295008Y-110213495D01*
X130114142Y-110165031D01*
X130114135Y-110165030D01*
X130114134Y-110165030D01*
X129983013Y-110153558D01*
X129895602Y-110145911D01*
X129895598Y-110145911D01*
X129786333Y-110155470D01*
X129677066Y-110165030D01*
X129677064Y-110165030D01*
X129677057Y-110165031D01*
X129465167Y-110221808D01*
X129266361Y-110314514D01*
X129266347Y-110314522D01*
X129086660Y-110440339D01*
X128931539Y-110595460D01*
X128805722Y-110775147D01*
X128805714Y-110775161D01*
X128736774Y-110923002D01*
X128694371Y-110968473D01*
X128633339Y-110980336D01*
X128576990Y-110954060D01*
X128554426Y-110923002D01*
X128485485Y-110775161D01*
X128485483Y-110775156D01*
X128431839Y-110698544D01*
X128359660Y-110595460D01*
X128204543Y-110440343D01*
X128204541Y-110440341D01*
X128024845Y-110314517D01*
X127964334Y-110286300D01*
X127826032Y-110221808D01*
X127826029Y-110221807D01*
X127795008Y-110213495D01*
X127614142Y-110165031D01*
X127614135Y-110165030D01*
X127614134Y-110165030D01*
X127483013Y-110153558D01*
X127395602Y-110145911D01*
X127395598Y-110145911D01*
X127286333Y-110155470D01*
X127177066Y-110165030D01*
X127177064Y-110165030D01*
X127177057Y-110165031D01*
X126965167Y-110221808D01*
X126766361Y-110314514D01*
X126766347Y-110314522D01*
X126586660Y-110440339D01*
X126431539Y-110595460D01*
X126305722Y-110775147D01*
X126305714Y-110775161D01*
X126213008Y-110973967D01*
X126156231Y-111185857D01*
X126156230Y-111185864D01*
X126156230Y-111185866D01*
X126149560Y-111262104D01*
X126140426Y-111366514D01*
X126137111Y-111404400D01*
X97374779Y-111404400D01*
X97374779Y-108284000D01*
X109281143Y-108284000D01*
X109301725Y-108506126D01*
X109301726Y-108506129D01*
X109362774Y-108720691D01*
X109362775Y-108720693D01*
X109462206Y-108920376D01*
X109462207Y-108920377D01*
X109462209Y-108920381D01*
X109596644Y-109098402D01*
X109761491Y-109248681D01*
X109761495Y-109248684D01*
X109761501Y-109248689D01*
X109951166Y-109366124D01*
X110159181Y-109446710D01*
X110212995Y-109456769D01*
X110378459Y-109487700D01*
X110378461Y-109487700D01*
X110601540Y-109487700D01*
X110684271Y-109472234D01*
X110820819Y-109446710D01*
X111028834Y-109366124D01*
X111218499Y-109248689D01*
X111383356Y-109098402D01*
X111517791Y-108920381D01*
X111617226Y-108720690D01*
X111678274Y-108506127D01*
X111698857Y-108284000D01*
X111678274Y-108061873D01*
X111617226Y-107847310D01*
X111517791Y-107647619D01*
X111458421Y-107569000D01*
X137382871Y-107569000D01*
X137403680Y-107713733D01*
X137464422Y-107846740D01*
X137464423Y-107846741D01*
X137464424Y-107846743D01*
X137560179Y-107957250D01*
X137683189Y-108036304D01*
X137823489Y-108077500D01*
X137969711Y-108077500D01*
X138110011Y-108036304D01*
X138233021Y-107957250D01*
X138328776Y-107846743D01*
X138389519Y-107713734D01*
X138410329Y-107569000D01*
X138389519Y-107424266D01*
X138328776Y-107291257D01*
X138233021Y-107180750D01*
X138140497Y-107121288D01*
X138110010Y-107101695D01*
X137969711Y-107060500D01*
X137823489Y-107060500D01*
X137683190Y-107101695D01*
X137683189Y-107101695D01*
X137560177Y-107180751D01*
X137464422Y-107291259D01*
X137403680Y-107424266D01*
X137382871Y-107569000D01*
X111458421Y-107569000D01*
X111383356Y-107469598D01*
X111383355Y-107469597D01*
X111218508Y-107319318D01*
X111218503Y-107319314D01*
X111218499Y-107319311D01*
X111028834Y-107201876D01*
X111028830Y-107201874D01*
X110820817Y-107121289D01*
X110820812Y-107121288D01*
X110601541Y-107080300D01*
X110601539Y-107080300D01*
X110378461Y-107080300D01*
X110378459Y-107080300D01*
X110159187Y-107121288D01*
X110159182Y-107121289D01*
X109951169Y-107201874D01*
X109951165Y-107201876D01*
X109833730Y-107274588D01*
X109761501Y-107319311D01*
X109761500Y-107319312D01*
X109761491Y-107319318D01*
X109596644Y-107469597D01*
X109539474Y-107545302D01*
X109462209Y-107647619D01*
X109462207Y-107647623D01*
X109462206Y-107647623D01*
X109362775Y-107847306D01*
X109362774Y-107847308D01*
X109301726Y-108061870D01*
X109301725Y-108061873D01*
X109281143Y-108284000D01*
X97374779Y-108284000D01*
X97374779Y-106702941D01*
X132976346Y-106702941D01*
X132997155Y-106847674D01*
X133057897Y-106980681D01*
X133057898Y-106980682D01*
X133057899Y-106980684D01*
X133153654Y-107091191D01*
X133276664Y-107170245D01*
X133416964Y-107211441D01*
X133563186Y-107211441D01*
X133703486Y-107170245D01*
X133826496Y-107091191D01*
X133922251Y-106980684D01*
X133982994Y-106847675D01*
X134003804Y-106702941D01*
X133982994Y-106558207D01*
X133969016Y-106527600D01*
X154731071Y-106527600D01*
X154751880Y-106672333D01*
X154812622Y-106805340D01*
X154812623Y-106805341D01*
X154812624Y-106805343D01*
X154908379Y-106915850D01*
X155031389Y-106994904D01*
X155171689Y-107036100D01*
X155317911Y-107036100D01*
X155458211Y-106994904D01*
X155581221Y-106915850D01*
X155676976Y-106805343D01*
X155737719Y-106672334D01*
X155758529Y-106527600D01*
X155737719Y-106382866D01*
X155676976Y-106249857D01*
X155581221Y-106139350D01*
X155519716Y-106099823D01*
X155458210Y-106060295D01*
X155317911Y-106019100D01*
X155171689Y-106019100D01*
X155031390Y-106060295D01*
X155031389Y-106060295D01*
X154908377Y-106139351D01*
X154812622Y-106249859D01*
X154751880Y-106382866D01*
X154731071Y-106527600D01*
X133969016Y-106527600D01*
X133922251Y-106425198D01*
X133826496Y-106314691D01*
X133725613Y-106249857D01*
X133703485Y-106235636D01*
X133563186Y-106194441D01*
X133416964Y-106194441D01*
X133276665Y-106235636D01*
X133276664Y-106235636D01*
X133153652Y-106314692D01*
X133057897Y-106425200D01*
X132997155Y-106558207D01*
X132976346Y-106702941D01*
X97374779Y-106702941D01*
X97374779Y-103530400D01*
X100044583Y-103530400D01*
X100064225Y-103792508D01*
X100122713Y-104048761D01*
X100122714Y-104048764D01*
X100218739Y-104293430D01*
X100218741Y-104293435D01*
X100350158Y-104521057D01*
X100350165Y-104521068D01*
X100514043Y-104726563D01*
X100514048Y-104726569D01*
X100706713Y-104905336D01*
X100706715Y-104905338D01*
X100706720Y-104905342D01*
X100923892Y-105053407D01*
X101160705Y-105167450D01*
X101411871Y-105244925D01*
X101671778Y-105284100D01*
X101934622Y-105284100D01*
X102194529Y-105244925D01*
X102445695Y-105167450D01*
X102682509Y-105053407D01*
X102899680Y-104905342D01*
X102996018Y-104815952D01*
X103040154Y-104775000D01*
X132582271Y-104775000D01*
X132603080Y-104919733D01*
X132663822Y-105052740D01*
X132663823Y-105052741D01*
X132663824Y-105052743D01*
X132759579Y-105163250D01*
X132882589Y-105242304D01*
X133022889Y-105283500D01*
X133169111Y-105283500D01*
X133309411Y-105242304D01*
X133432421Y-105163250D01*
X133528176Y-105052743D01*
X133588919Y-104919734D01*
X133609729Y-104775000D01*
X133588919Y-104630266D01*
X133528176Y-104497257D01*
X133432421Y-104386750D01*
X133366259Y-104344230D01*
X133309410Y-104307695D01*
X133169111Y-104266500D01*
X133022889Y-104266500D01*
X132882590Y-104307695D01*
X132882589Y-104307695D01*
X132759577Y-104386751D01*
X132663822Y-104497259D01*
X132603080Y-104630266D01*
X132582271Y-104775000D01*
X103040154Y-104775000D01*
X103092351Y-104726569D01*
X103092352Y-104726567D01*
X103092357Y-104726563D01*
X103256238Y-104521064D01*
X103387659Y-104293435D01*
X103483687Y-104048761D01*
X103542175Y-103792508D01*
X103558010Y-103581200D01*
X172383783Y-103581200D01*
X172403425Y-103843308D01*
X172461913Y-104099561D01*
X172557941Y-104344235D01*
X172582487Y-104386751D01*
X172689358Y-104571857D01*
X172689365Y-104571868D01*
X172853243Y-104777363D01*
X172853248Y-104777369D01*
X173045913Y-104956136D01*
X173045915Y-104956138D01*
X173045920Y-104956142D01*
X173263092Y-105104207D01*
X173499905Y-105218250D01*
X173751071Y-105295725D01*
X174010978Y-105334900D01*
X174273822Y-105334900D01*
X174533729Y-105295725D01*
X174784895Y-105218250D01*
X175021709Y-105104207D01*
X175238880Y-104956142D01*
X175431557Y-104777363D01*
X175595438Y-104571864D01*
X175726859Y-104344235D01*
X175822887Y-104099561D01*
X175881375Y-103843308D01*
X175901017Y-103581200D01*
X175881375Y-103319092D01*
X175822887Y-103062839D01*
X175726859Y-102818165D01*
X175595438Y-102590536D01*
X175431557Y-102385037D01*
X175431556Y-102385036D01*
X175431551Y-102385030D01*
X175238886Y-102206263D01*
X175238882Y-102206260D01*
X175238880Y-102206258D01*
X175021709Y-102058193D01*
X175021710Y-102058193D01*
X175021708Y-102058192D01*
X175021706Y-102058191D01*
X174784902Y-101944153D01*
X174784899Y-101944152D01*
X174784895Y-101944150D01*
X174533729Y-101866675D01*
X174533721Y-101866673D01*
X174273822Y-101827500D01*
X174010978Y-101827500D01*
X173751078Y-101866673D01*
X173751070Y-101866675D01*
X173664593Y-101893350D01*
X173499905Y-101944150D01*
X173499901Y-101944151D01*
X173499897Y-101944153D01*
X173263095Y-102058191D01*
X173263092Y-102058192D01*
X173045921Y-102206257D01*
X173045913Y-102206263D01*
X172853248Y-102385030D01*
X172853243Y-102385036D01*
X172689365Y-102590531D01*
X172689358Y-102590542D01*
X172557941Y-102818164D01*
X172557939Y-102818169D01*
X172461914Y-103062835D01*
X172461913Y-103062838D01*
X172461913Y-103062839D01*
X172403425Y-103319092D01*
X172383783Y-103581200D01*
X103558010Y-103581200D01*
X103561817Y-103530400D01*
X103542175Y-103268292D01*
X103483687Y-103012039D01*
X103467816Y-102971600D01*
X122473071Y-102971600D01*
X122493880Y-103116333D01*
X122554622Y-103249340D01*
X122554623Y-103249341D01*
X122554624Y-103249343D01*
X122650379Y-103359850D01*
X122773389Y-103438904D01*
X122913689Y-103480100D01*
X123059911Y-103480100D01*
X123200211Y-103438904D01*
X123323221Y-103359850D01*
X123418976Y-103249343D01*
X123479719Y-103116334D01*
X123500529Y-102971600D01*
X123479719Y-102826866D01*
X123418976Y-102693857D01*
X123323221Y-102583350D01*
X123255349Y-102539731D01*
X123200210Y-102504295D01*
X123059911Y-102463100D01*
X122913689Y-102463100D01*
X122773390Y-102504295D01*
X122773389Y-102504295D01*
X122650377Y-102583351D01*
X122554622Y-102693859D01*
X122493880Y-102826866D01*
X122473071Y-102971600D01*
X103467816Y-102971600D01*
X103387659Y-102767365D01*
X103256238Y-102539736D01*
X103092357Y-102334237D01*
X103092356Y-102334236D01*
X103092351Y-102334230D01*
X102899686Y-102155463D01*
X102899682Y-102155460D01*
X102899680Y-102155458D01*
X102682509Y-102007393D01*
X102682510Y-102007393D01*
X102682508Y-102007392D01*
X102682506Y-102007391D01*
X102445702Y-101893353D01*
X102445699Y-101893352D01*
X102445695Y-101893350D01*
X102194529Y-101815875D01*
X102194521Y-101815873D01*
X101934622Y-101776700D01*
X101671778Y-101776700D01*
X101411878Y-101815873D01*
X101411870Y-101815875D01*
X101319719Y-101844300D01*
X101160705Y-101893350D01*
X101160701Y-101893351D01*
X101160697Y-101893353D01*
X100923895Y-102007391D01*
X100923892Y-102007392D01*
X100706721Y-102155457D01*
X100706713Y-102155463D01*
X100514048Y-102334230D01*
X100514043Y-102334236D01*
X100350165Y-102539731D01*
X100350158Y-102539742D01*
X100218741Y-102767364D01*
X100218739Y-102767369D01*
X100122714Y-103012035D01*
X100122713Y-103012038D01*
X100122713Y-103012039D01*
X100064225Y-103268292D01*
X100044583Y-103530400D01*
X97374779Y-103530400D01*
X97374779Y-100238276D01*
X97375021Y-100233343D01*
X97388953Y-100091885D01*
X97392801Y-100072543D01*
X97405008Y-100032302D01*
X97431902Y-99943642D01*
X97439441Y-99925437D01*
X97502949Y-99806622D01*
X97513896Y-99790239D01*
X97599355Y-99686104D01*
X97613295Y-99672164D01*
X97717420Y-99586709D01*
X97733815Y-99575755D01*
X97852612Y-99512254D01*
X97870827Y-99504707D01*
X97999738Y-99465600D01*
X98019070Y-99461755D01*
X98160322Y-99447841D01*
X98165240Y-99447600D01*
X177634281Y-99447600D01*
X177672208Y-99447600D01*
X177677381Y-99447867D01*
G37*
G04 #@! TD.AperFunction*
M02*
